<?xml version="1.0" encoding="UTF-8"?>
<!DOCTYPE svg PUBLIC "-//W3C//DTD SVG 1.1//EN" "http://www.w3.org/Graphics/SVG/1.1/DTD/svg11.dtd">
<!-- Creator: CorelDRAW Standard 2021 (64-Bit 评估版) -->
<svg xmlns="http://www.w3.org/2000/svg" xml:space="preserve" width="40px" height="40px" version="1.1" style="shape-rendering:geometricPrecision; text-rendering:geometricPrecision; image-rendering:optimizeQuality; fill-rule:evenodd; clip-rule:evenodd"
viewBox="0 0 40 40"
 xmlns:xlink="http://www.w3.org/1999/xlink"
 xmlns:xodm="http://www.corel.com/coreldraw/odm/2003">
 <defs>
  <style type="text/css">
   <![CDATA[
    .fil0 {fill:#1C1C1C;fill-rule:nonzero}
   ]]>
  </style>
 </defs>
 <g id="图层_x0020_1">
  <metadata id="CorelCorpID_0Corel-Layer"/>
  <g id="成绩查询.svg">
   <path class="fil0" d="M0.258 34.224c-0.5,0 -0.942,-0.306 -1.104,-0.765 -0.157,-0.451 0,-0.947 0.389,-1.236 4.002,-2.997 4.159,-8.128 3.907,-13.597 -0.029,-0.079 -0.05,-0.162 -0.054,-0.248l-0.012 -0.162c-0.1,-1.513 -0.203,-3.08 -0.153,-4.638 0.07,-2.212 0.521,-4.217 1.331,-5.953 0.918,-1.956 2.282,-3.535 4.056,-4.701 0.467,-0.306 1.021,-0.475 1.599,-0.488l21.882 -0.516c0.513,-0.013 0.968,0.293 1.133,0.764 0.157,0.451 0,0.947 -0.389,1.237 -2.645,1.984 -3.873,5.027 -3.981,9.872 -0.008,0.455 -0.388,0.818 -0.843,0.81 -0.455,-0.008 -0.819,-0.389 -0.81,-0.843 0.053,-2.456 0.359,-4.387 0.959,-6.077 0.574,-1.613 1.401,-2.956 2.517,-4.072l-20.426 0.479c-0.265,0.008 -0.525,0.083 -0.732,0.219 -3.667,2.402 -4.548,6.396 -4.643,9.323 -0.045,1.447 0.05,2.935 0.141,4.382 0.037,0.087 0.058,0.178 0.062,0.277 0.128,2.699 0.211,5.556 -0.331,8.206 -0.512,2.505 -1.517,4.498 -3.059,6.044l20.431 -0.479c0.264,-0.009 0.525,-0.083 0.732,-0.22 0.599,-0.392 1.149,-0.847 1.637,-1.351 0.318,-0.327 0.839,-0.335 1.17,-0.017 0.326,0.318 0.334,0.839 0.016,1.17 -0.57,0.591 -1.215,1.12 -1.918,1.583 -0.467,0.306 -1.021,0.476 -1.6,0.488l-21.878 0.509 -0.029 0z" p-id="3513"/>
   <path class="fil0" d="M9.502 12.602l0 -0.496c0.145,-0.128 0.294,-0.252 0.442,-0.376 0.149,-0.12 0.315,-0.252 0.501,-0.393 0.182,-0.14 0.372,-0.277 0.566,-0.405 0.194,-0.128 0.418,-0.26 0.67,-0.401 0.223,0.323 0.331,0.633 0.331,0.926 0,0.161 -0.033,0.339 -0.104,0.538 -0.07,0.198 -0.161,0.421 -0.281,0.678 -0.12,0.252 -0.269,0.57 -0.446,0.955 -0.476,1.05 -0.831,1.918 -1.067,2.604 -0.236,0.682 -0.356,1.149 -0.356,1.393 0,0.021 0.013,0.099 0.042,0.236 0.029,0.136 0.041,0.24 0.041,0.31 0,0.116 -0.033,0.178 -0.099,0.186 -0.066,0.008 -0.161,-0.017 -0.281,-0.074 -0.31,-0.153 -0.517,-0.298 -0.624,-0.434 -0.104,-0.137 -0.157,-0.315 -0.157,-0.534 0,-0.392 0.144,-0.996 0.429,-1.819 0.145,-0.413 0.315,-0.827 0.509,-1.24 0.194,-0.409 0.409,-0.827 0.645,-1.248 0.236,-0.422 0.459,-0.811 0.67,-1.166 -0.455,0.194 -0.931,0.446 -1.431,0.76l0 0zm7.504 -1.24c0.19,0.083 0.326,0.223 0.413,0.414 0.087,0.19 0.128,0.475 0.128,0.847 0,0.566 -0.116,1.182 -0.343,1.84 -0.227,0.657 -0.546,1.273 -0.955,1.852 -0.409,0.574 -0.876,1.05 -1.405,1.426 -0.592,0.418 -1.08,0.628 -1.456,0.628 -0.293,0 -0.57,-0.086 -0.826,-0.264 -0.257,-0.178 -0.464,-0.43 -0.616,-0.761 -0.153,-0.326 -0.232,-0.711 -0.232,-1.153 0,-0.612 0.17,-1.257 0.504,-1.931 0.335,-0.674 0.765,-1.286 1.282,-1.827 0.517,-0.546 1.058,-0.963 1.621,-1.257 0.562,-0.293 1.045,-0.397 1.447,-0.31 0.264,0.058 0.409,0.223 0.438,0.496l0 0zm-1.394 1.187l0.211 -0.443c-0.24,0.12 -0.446,0.24 -0.628,0.356 -0.182,0.116 -0.389,0.281 -0.624,0.496 -0.236,0.215 -0.484,0.484 -0.74,0.806 -0.418,0.537 -0.736,1.054 -0.951,1.559 -0.215,0.5 -0.323,0.93 -0.323,1.277 0,0.504 0.17,0.757 0.509,0.757 0.194,0 0.471,-0.104 0.831,-0.315 0.359,-0.21 0.744,-0.496 1.145,-0.864 0.388,-0.355 0.727,-0.752 1.017,-1.19 0.293,-0.438 0.517,-0.873 0.669,-1.298 0.158,-0.426 0.232,-0.794 0.232,-1.096 0,-0.194 -0.041,-0.343 -0.128,-0.45 -0.083,-0.108 -0.19,-0.162 -0.323,-0.162 -0.12,0 -0.248,0.046 -0.384,0.141 -0.124,0.091 -0.298,0.231 -0.513,0.426l0 0zm6.818 -1.187c0.19,0.083 0.326,0.223 0.413,0.414 0.087,0.19 0.128,0.475 0.128,0.847 0,0.566 -0.116,1.182 -0.343,1.84 -0.227,0.657 -0.546,1.273 -0.955,1.852 -0.409,0.574 -0.876,1.05 -1.406,1.426 -0.591,0.418 -1.079,0.628 -1.455,0.628 -0.293,0 -0.57,-0.086 -0.827,-0.264 -0.256,-0.178 -0.463,-0.43 -0.616,-0.761 -0.153,-0.326 -0.231,-0.711 -0.231,-1.153 0,-0.612 0.169,-1.257 0.504,-1.931 0.335,-0.674 0.765,-1.286 1.282,-1.827 0.517,-0.546 1.058,-0.963 1.62,-1.257 0.563,-0.293 1.046,-0.397 1.447,-0.31 0.265,0.058 0.41,0.223 0.439,0.496l0 0zm-1.394 1.187l0.211 -0.443c-0.24,0.12 -0.446,0.24 -0.628,0.356 -0.182,0.116 -0.389,0.281 -0.625,0.496 -0.235,0.215 -0.483,0.484 -0.74,0.806 -0.417,0.537 -0.735,1.054 -0.95,1.559 -0.215,0.5 -0.323,0.93 -0.323,1.277 0,0.504 0.17,0.757 0.509,0.757 0.194,0 0.471,-0.104 0.831,-0.315 0.359,-0.21 0.744,-0.496 1.145,-0.864 0.388,-0.355 0.727,-0.752 1.017,-1.19 0.293,-0.438 0.516,-0.873 0.669,-1.298 0.158,-0.426 0.232,-0.794 0.232,-1.096 0,-0.194 -0.041,-0.343 -0.128,-0.45 -0.083,-0.108 -0.19,-0.162 -0.323,-0.162 -0.12,0 -0.248,0.046 -0.384,0.141 -0.124,0.091 -0.298,0.231 -0.513,0.426l0 0z" p-id="3514"/>
   <g>
    <path class="fil0" d="M12.454 21.933c-1.108,-0.05 4.858,-1.621 5.416,-1.509 0,0.004 -2.291,1.65 -5.416,1.509zm-6.42 7.003c0.893,-0.616 11.108,-6.197 20.319,-6.755l-20.319 6.755zm0 0l0 0 0 0z" p-id="3515"/>
   </g>
   <path class="fil0" d="M31.64 30.354c-3.741,0 -6.784,-3.043 -6.784,-6.784 0,-3.741 3.047,-6.78 6.784,-6.78 3.738,0 6.784,3.043 6.784,6.784 0,3.742 -3.042,6.78 -6.784,6.78zm0 -11.91c-2.827,0 -5.13,2.303 -5.13,5.13 0,2.828 2.303,5.127 5.13,5.127 2.828,0 5.131,-2.303 5.131,-5.131 0,-2.828 -2.303,-5.126 -5.131,-5.126l0 0z" p-id="3516"/>
   <path class="fil0" d="M39.317 31.884c-0.21,0 -0.421,-0.083 -0.582,-0.244l-3.444 -3.444c-0.323,-0.322 -0.323,-0.847 0,-1.17 0.322,-0.322 0.847,-0.322 1.17,0l3.443 3.444c0.323,0.322 0.323,0.848 0,1.17 -0.161,0.165 -0.372,0.244 -0.587,0.244z" p-id="3517"/>
  </g>
 </g>
</svg>
