<?xml version="1.0" encoding="UTF-8"?>
<svg width="40px" height="40px" viewBox="0 0 40 40" version="1.1" xmlns="http://www.w3.org/2000/svg" xmlns:xlink="http://www.w3.org/1999/xlink">
    <!-- Generator: Sketch 61 (89581) - https://sketch.com -->
    <title>考勤</title>
    <desc>Created with Sketch.</desc>
    <g id="新员工0616" stroke="none" stroke-width="1" fill="none" fill-rule="evenodd">
        <g id="新员工（We码）图标" transform="translate(-44.000000, -38.000000)">
            <g id="考勤" transform="translate(44.000000, 38.000000)">
                <rect id="Mask" fill="#77CB40" x="0" y="0" width="40" height="40" rx="6.25"></rect>
                <path d="M20,8.2734375 C25.6954464,8.2734375 30.3125,12.9244792 30.3125,18.6640625 C30.3125,22.2701042 27.2580357,26.8815625 20.8525,31.3109375 C20.1580829,31.7911212 19.8418848,31.7911725 19.1475,31.3109375 C12.7429464,26.8815625 9.6875,22.2701042 9.6875,18.6640625 C9.6875,12.9244792 14.3045536,8.2734375 20,8.2734375 Z M19.90625,13.46875 C19.388483,13.46875 18.96875,13.888483 18.96875,14.40625 L18.96875,14.40625 L18.96875,19.1835937 C18.96875,19.7013607 19.388483,20.1210937 19.90625,20.1210937 L19.90625,20.1210937 L24.6356027,20.1210937 C25.1533696,20.1210937 25.5731027,19.7013607 25.5731027,19.1835937 C25.5731027,18.6658268 25.1533696,18.2460937 24.6356027,18.2460937 L24.6356027,18.2460937 L20.84275,18.24575 L20.84375,14.40625 C20.84375,13.888483 20.424017,13.46875 19.90625,13.46875 Z" id="合并形状" fill="#FFFFFF" fill-rule="nonzero"></path>
            </g>
        </g>
    </g>
</svg>