<?xml version="1.0" encoding="UTF-8"?>
<!DOCTYPE svg PUBLIC "-//W3C//DTD SVG 1.1//EN" "http://www.w3.org/Graphics/SVG/1.1/DTD/svg11.dtd">
<!-- Creator: CorelDRAW Standard 2021 (64-Bit 评估版) -->
<svg xmlns="http://www.w3.org/2000/svg" xml:space="preserve" width="45px" height="45px" version="1.1" style="shape-rendering:geometricPrecision; text-rendering:geometricPrecision; image-rendering:optimizeQuality; fill-rule:evenodd; clip-rule:evenodd"
viewBox="0 0 40 40"
 xmlns:xlink="http://www.w3.org/1999/xlink"
 xmlns:xodm="http://www.corel.com/coreldraw/odm/2003">
 <defs>
  <style type="text/css">
   <![CDATA[
    .fil2 {fill:#0072FF;fill-rule:nonzero}
    .fil3 {fill:#333333;fill-rule:nonzero}
    .fil1 {fill:#D6F1FF;fill-rule:nonzero}
    .fil0 {fill:white;fill-rule:nonzero}
   ]]>
  </style>
 </defs>
 <g id="图层_x0020_1">
  <metadata id="CorelCorpID_0Corel-Layer"/>
  <g id="四六级查询.svg">
   <path class="fil0" d="M20.187 20.83m-17.639 0c0,9.74 7.899,17.639 17.639,17.639 9.74,0 17.639,-7.899 17.639,-17.639 0,-9.74 -7.899,-17.639 -17.639,-17.639 -9.74,0 -17.639,7.899 -17.639,17.639l0 0z" p-id="6841"/>
   <path class="fil1" d="M9.824 9.254l21.277 0c0.662,0 1.213,0.552 1.213,1.213l0 21.277c0,0.661 -0.551,1.213 -1.213,1.213l-21.277 0c-0.661,0 -1.212,-0.552 -1.212,-1.213l0 -21.277c0,-0.661 0.551,-1.213 1.212,-1.213z" p-id="6842"/>
   <polygon class="fil0" points="8.612,9.254 32.314,9.254 8.612,32.957 " p-id="6843"/>
   <path class="fil2" d="M19.305 25.874c0,0.358 -0.303,0.661 -0.661,0.661l-4.107 0 -1.075 -1.075 0 -9.508 5.182 0c0.358,0 0.661,0.303 0.661,0.661 0,0.358 -0.303,0.662 -0.661,0.662l-3.831 0 0 3.169 3.831 0c0.358,0 0.661,0.303 0.661,0.662 0,0.358 -0.303,0.661 -0.661,0.661l-3.831 0 0 3.418 3.831 0c0.358,0.027 0.661,0.33 0.661,0.689zm3.115 0.716c-0.359,0 -0.662,-0.303 -0.662,-0.661l0 -9.288c0,-0.386 0.303,-0.689 0.689,-0.689 0.414,0 0.799,0.248 0.965,0.634l3.004 6.89 0 -6.835c0,-0.359 0.303,-0.662 0.661,-0.662 0.359,0 0.662,0.303 0.662,0.662l0 9.343c0,0.33 -0.276,0.634 -0.634,0.634 -0.386,0 -0.717,-0.221 -0.882,-0.579l-3.142 -7.221 0 7.111c0,0.358 -0.303,0.661 -0.661,0.661z" p-id="6844"/>
   <path class="fil3" d="M30.605 32.957l-20.284 0c-0.938,0 -1.709,-0.772 -1.709,-1.709l0 -20.285c0,-0.937 0.771,-1.709 1.709,-1.709l20.312 0c0.909,0 1.681,0.772 1.681,1.709l0 20.312c0,0.91 -0.772,1.682 -1.709,1.682l0 0zm-20.284 -22.738c-0.414,0 -0.717,0.331 -0.717,0.717l0 20.312c0,0.413 0.331,0.717 0.717,0.717l20.312 -0.001c0.413,0 0.716,-0.33 0.716,-0.716l0 -20.285c0,-0.413 -0.33,-0.716 -0.716,-0.716l-20.312 0 0 -0.028z" p-id="6845"/>
  </g>
 </g>
</svg>
