<?xml version="1.0" encoding="UTF-8"?>
<svg width="40px" height="40px" viewBox="0 0 40 40" version="1.1" xmlns="http://www.w3.org/2000/svg" xmlns:xlink="http://www.w3.org/1999/xlink">
    <!-- Generator: Sketch 61 (89581) - https://sketch.com -->
    <title>班车信息</title>
    <desc>Created with Sketch.</desc>
    <defs>
        <linearGradient x1="113.519287%" y1="110.366821%" x2="0%" y2="0%" id="linearGradient-1">
            <stop stop-color="#31B8D6" offset="0%"></stop>
            <stop stop-color="#3CC5D8" offset="100%"></stop>
        </linearGradient>
    </defs>
    <g id="页面-1" stroke="none" stroke-width="1" fill="none" fill-rule="evenodd">
        <g id="新员工（We码）图标" transform="translate(-187.000000, -95.000000)">
            <g id="班车信息" transform="translate(187.000000, 95.000000)">
                <rect id="Rectangle" fill="url(#linearGradient-1)" x="0" y="0" width="40" height="40" rx="6.25"></rect>
                <path d="M26.7388066,19.046297 C27.5346033,19.2147784 28.3410905,19.3464847 29.1236311,19.5637145 C29.7030533,19.7244988 30.1216911,20.1174796 30.3286581,20.717855 C30.6574962,21.6663114 31.0021562,22.6092086 31.3647761,23.5448364 C31.4263531,23.7013445 31.6269058,23.9318306 31.7393693,23.9194296 C32.5018119,23.8334785 32.8605832,24.2572477 33.0936349,24.8841354 C33.1496529,25.0761358 33.1184368,25.2685639 33.0936349,25.3955663 C32.7759149,25.4836556 32.4581949,25.5708897 32.1661319,25.6512818 C32.2071832,25.9814028 32.2815887,26.3166551 32.2832992,26.6519075 C32.2901232,27.4653266 32.2959792,28.2788668 32.2953319,29.0923992 L32.2887981,30.3120691 C32.2855554,30.6213319 32.280973,30.9305842 32.2747468,31.2398191 C32.2696154,31.5126392 32.1118244,31.9372637 32.0019266,32.0061102 C31.8980155,32.1848544 29.5837479,32.1763021 29.4037208,32.0522929 C28.8024901,31.6618778 29.1723795,31.0067673 28.9795239,30.4752384 L21.1169151,30.4752384 C20.9646832,31.0375558 20.8740282,31.981736 20.6905801,32.0522929 C20.2903299,32.2062353 18.1449713,32.2117944 18.0252383,32.0522929 C17.8627435,31.9372637 17.7524181,31.473726 17.7310372,31.176104 C17.7112131,30.8890351 17.705324,30.6009465 17.7054539,30.3124822 C17.7056015,29.954347 17.7150787,29.5948456 17.7186363,29.236002 C17.7306096,28.0348235 17.7485695,26.8336451 17.7643914,25.6243419 C17.5390368,25.5653306 17.2183235,25.4802347 16.8976101,25.3951387 C16.8800778,25.2801095 16.8569864,25.1394233 16.8976101,24.9859085 C17.120399,24.3239561 17.4462438,23.8129528 18.2813814,23.9194296 C18.3822992,23.9322582 18.5683129,23.7167388 18.6234756,23.572204 C18.9086967,22.824728 19.214871,22.0785349 19.4188447,21.3071124 C19.7605114,20.0101475 20.697422,19.4884538 21.893469,19.2583954 C22.3437506,19.1724442 22.8000188,19.1159987 23.2528661,19.046297 C24.5250291,18.8671251 25.5756861,18.8735394 26.7388066,19.046297 Z M27.1875,8.4375 C28.5682119,8.4375 29.6875,9.55678813 29.6875,10.9375 L29.6875,11.5625 L29.6718312,11.5622983 C29.6821059,11.6128468 29.6875,11.6651685 29.6875,11.71875 L29.6875,15.78125 C29.6875,16.2127225 29.3377225,16.5625 28.90625,16.5625 C28.4747775,16.5625 28.125,16.2127225 28.125,15.78125 L28.125,11.71875 C28.125,11.6651685 28.1303941,11.6128468 28.1406688,11.5622983 L28.1245,11.5625 L28.125,10.9375 C28.125,10.4567164 27.7630873,10.060462 27.2968323,10.0063072 L27.1875,10 L10.9375,10 C10.4567164,10 10.060462,10.3619127 10.0063072,10.8281677 L10,10.9375 L10,29.0625 C10,29.5432836 10.3619127,29.939538 10.8281677,29.9936928 L10.9375,30 L13.90625,30 C14.3377225,30 14.6875,30.3497775 14.6875,30.78125 C14.6875,31.2127225 14.3377225,31.5625 13.90625,31.5625 L10.9375,31.5625 C9.55678813,31.5625 8.4375,30.4432119 8.4375,29.0625 L8.4375,10.9375 C8.4375,9.55678813 9.55678813,8.4375 10.9375,8.4375 L27.1875,8.4375 Z M18.5644643,26.7032216 C18.4023972,27.4216196 18.5537739,27.8222975 19.0912895,27.9343333 C19.4014193,27.9987967 19.7202084,28.0216475 20.0384563,28.0478057 L20.356183,28.0767301 C20.6452526,28.0767301 20.9492889,28.0664672 21.2242472,28.0023246 C21.4239447,27.9557142 21.6770944,27.7936471 21.7403819,27.6221723 C21.7848541,27.5003012 21.5932813,27.1877126 21.4346351,27.11459 C20.7743932,26.8084156 20.0961914,26.5308917 19.4043057,26.3038266 C19.0596458,26.1905079 18.675645,26.2118888 18.5644643,26.7032216 Z M30.887127,26.2824457 C30.0532723,26.5411545 29.2254042,26.846046 28.4407255,27.2266258 C28.0802437,27.4019492 28.2093842,27.8851573 28.6194697,27.974957 C28.9478802,28.0463692 29.293823,28.0395273 29.720158,28.074592 C30.0934683,28.0296921 30.5561508,28.013015 30.9991629,27.9099591 C31.6046697,27.7709833 31.476812,27.25998 31.4627006,26.8272308 C31.4507273,26.4569138 31.2206689,26.1785346 30.887127,26.2824457 Z M23.0634314,20.3462551 C22.5083835,20.341979 21.9452108,20.4732576 21.4004257,20.6032535 C21.1759263,20.6571333 20.8804424,20.8281804 20.8038988,21.0206084 C20.4019381,22.0250827 20.0589886,23.0543588 19.6625869,24.1683032 C23.2763851,24.9162068 26.7400894,24.9337391 30.2931658,24.1683032 C29.9946886,23.2489249 29.6953561,22.4321749 29.4700015,21.5966096 C29.2758631,20.879067 28.8114701,20.5258546 28.1200121,20.4950661 C26.4347703,20.4193778 24.7491008,20.3590837 23.0634314,20.3462551 Z M17.03125,18.125 C17.4627225,18.125 17.8125,18.4747775 17.8125,18.90625 C17.8125,19.3377225 17.4627225,19.6875 17.03125,19.6875 L14.21875,19.6875 C13.7872775,19.6875 13.4375,19.3377225 13.4375,18.90625 C13.4375,18.4747775 13.7872775,18.125 14.21875,18.125 L17.03125,18.125 Z M23.90625,13.4375 C24.3377225,13.4375 24.6875,13.7872775 24.6875,14.21875 C24.6875,14.6502225 24.3377225,15 23.90625,15 L14.21875,15 C13.7872775,15 13.4375,14.6502225 13.4375,14.21875 C13.4375,13.7872775 13.7872775,13.4375 14.21875,13.4375 L23.90625,13.4375 Z" id="形状结合" fill="#FFFFFF" fill-rule="nonzero"></path>
            </g>
        </g>
    </g>
</svg>