<?xml version="1.0" encoding="UTF-8"?>
<svg width="40px" height="40px" viewBox="0 0 40 40" version="1.1" xmlns="http://www.w3.org/2000/svg" xmlns:xlink="http://www.w3.org/1999/xlink">
    <!-- Generator: Sketch 61 (89581) - https://sketch.com -->
    <title>出差报销</title>
    <desc>Created with Sketch.</desc>
    <g id="页面-1" stroke="none" stroke-width="1" fill="none" fill-rule="evenodd">
        <g id="新员工（We码）图标" transform="translate(-134.000000, -38.000000)">
            <g id="出差报销" transform="translate(134.000000, 38.000000)">
                <rect id="Rectangle-10-Copy-5" fill="#F36F64" x="0" y="0" width="40" height="40" rx="6.25"></rect>
                <path d="M26.8513709,20.6009104 L17.8150072,22.9836633 L15.625974,21.3989849 L15.9252525,20.8862443 L17.4845599,21.7735036 L20.8796537,20.7276617 L17.6383838,18.2958715 L18.2799423,17.2385589 L23.2883117,19.9843598 L26.387013,19.0305703 C26.8372294,18.8923483 27.3160173,19.1518731 27.4386724,19.5983704 C27.5584416,20.0362647 27.2932179,20.4827621 26.8513709,20.6009104 M31.1111111,17.5471209 L31.1111111,14.258182 C31.1111111,13.6247121 30.594228,13.1111111 29.95671,13.1111111 L13.9633478,13.1111111 L13.9633478,27.1111111 L29.95671,27.1111111 C30.594228,27.1111111 31.1111111,26.5975101 31.1111111,25.9640402 L31.1111111,22.6751013 C29.8126984,22.532291 28.8023088,21.4394192 28.8023088,20.1111111 C28.8023088,18.782803 29.8126984,17.6899313 31.1111111,17.5471209 M8.88888889,14.258182 L8.88888889,17.5471209 C10.1873016,17.6899313 11.1976912,18.782803 11.1976912,20.1111111 C11.1976912,21.4394192 10.1873016,22.532291 8.88888889,22.6751013 L8.88888889,25.9640402 C8.88888889,26.5975101 9.40577201,27.1111111 10.04329,27.1111111 L12.8089466,27.1111111 L12.8089466,13.1111111 L10.04329,13.1111111 C9.40577201,13.1111111 8.88888889,13.6247121 8.88888889,14.258182" id="Fill-11" fill="#FFFFFF"></path>
            </g>
        </g>
    </g>
</svg>