<?xml version="1.0" encoding="UTF-8"?>
<!DOCTYPE svg PUBLIC "-//W3C//DTD SVG 1.1//EN" "http://www.w3.org/Graphics/SVG/1.1/DTD/svg11.dtd">
<!-- Creator: CorelDRAW Standard 2021 (64-Bit 评估版) -->
<svg xmlns="http://www.w3.org/2000/svg" xml:space="preserve" width="40px" height="40px" version="1.1" style="shape-rendering:geometricPrecision; text-rendering:geometricPrecision; image-rendering:optimizeQuality; fill-rule:evenodd; clip-rule:evenodd"
viewBox="0 0 40 40"
 xmlns:xlink="http://www.w3.org/1999/xlink"
 xmlns:xodm="http://www.corel.com/coreldraw/odm/2003">
 <defs>
  <style type="text/css">
   <![CDATA[
    .fil0 {fill:#5B8DF0;fill-rule:nonzero}
    .fil1 {fill:#F2A355;fill-rule:nonzero}
   ]]>
  </style>
 </defs>
 <g id="图层_x0020_1">
  <metadata id="CorelCorpID_0Corel-Layer"/>
  <g id="充值缴费.svg">
   <path class="fil0" d="M37.951 7.794l-3.919 0 0 3.919c0,0.812 -0.659,1.47 -1.47,1.47 -0.812,0 -1.47,-0.658 -1.47,-1.469l0 -3.92 -3.92 0c-0.812,0 -1.47,-0.659 -1.47,-1.47 0,-0.812 0.658,-1.47 1.47,-1.47l3.92 0 0 -3.92c0,-0.812 0.658,-1.47 1.47,-1.47 0.811,0 1.47,0.658 1.47,1.47l0 3.92 3.919 0c0.812,0 1.47,0.658 1.47,1.47 0,0.811 -0.658,1.47 -1.47,1.47zm-18.129 -3.43l-0.979 0c-8.658,0 -15.679,7.021 -15.679,15.679 0,8.658 7.021,15.679 15.679,15.679 8.657,0 15.679,-7.021 15.679,-15.679 0,-0.331 -0.03,-0.655 -0.049,-0.98 0.038,-0.814 0.704,-1.458 1.518,-1.47 0.778,0.077 1.393,0.693 1.471,1.47l0 0.98c-0.001,10.281 -8.338,18.619 -18.619,18.619 -10.281,0 -18.619,-8.338 -18.619,-18.619 0,-10.281 8.338,-18.619 18.619,-18.619l0.979 0c0.796,0.037 1.433,0.674 1.47,1.47 0,0.812 -0.658,1.47 -1.47,1.47z" p-id="5869"/>
   <path class="fil1" d="M26.192 19.063l-5.88 0 0 2.94 3.92 0c0.812,0 1.47,0.658 1.47,1.47 0,0.811 -0.658,1.469 -1.47,1.469l-3.92 0.001 0 3.429c0,0.812 -0.658,1.47 -1.469,1.47 -0.812,0 -1.47,-0.658 -1.47,-1.47l0 -3.429 -3.92 0c-0.812,-0.001 -1.47,-0.659 -1.47,-1.47 0,-0.812 0.658,-1.47 1.47,-1.47l3.92 0 0 -2.94 -5.88 0c-0.812,0 -1.47,-0.658 -1.47,-1.47 0,-0.811 0.658,-1.47 1.47,-1.47l4.371 0 -1.637 -2.833c-0.107,-0.186 -0.164,-0.397 -0.164,-0.612 0,-0.678 0.55,-1.227 1.227,-1.227 0.439,0 0.845,0.234 1.064,0.614l1.715 2.97c0.097,0.179 0.148,0.38 0.148,0.584 0,0.174 -0.037,0.346 -0.109,0.504l1.959 0c-0.072,-0.158 -0.109,-0.33 -0.109,-0.504 0,-0.204 0.051,-0.405 0.149,-0.583l1.715 -2.971c0.219,-0.38 0.624,-0.614 1.063,-0.614 0.677,0 1.227,0.549 1.227,1.227 0,0.215 -0.057,0.426 -0.164,0.612l-1.636 2.833 3.88 0c0.812,0 1.47,0.659 1.47,1.47 0,0.812 -0.658,1.47 -1.47,1.47z" p-id="5870"/>
  </g>
 </g>
</svg>
