<?xml version="1.0" encoding="UTF-8"?>
<!DOCTYPE svg PUBLIC "-//W3C//DTD SVG 1.1//EN" "http://www.w3.org/Graphics/SVG/1.1/DTD/svg11.dtd">
<!-- Creator: CorelDRAW Standard 2021 (64-Bit 评估版) -->
<svg xmlns="http://www.w3.org/2000/svg" xml:space="preserve" width="40px" height="40px" version="1.1" style="shape-rendering:geometricPrecision; text-rendering:geometricPrecision; image-rendering:optimizeQuality; fill-rule:evenodd; clip-rule:evenodd"
viewBox="0 0 40 40"
 xmlns:xlink="http://www.w3.org/1999/xlink"
 xmlns:xodm="http://www.corel.com/coreldraw/odm/2003">
 <defs>
  <style type="text/css">
   <![CDATA[
    .fil1 {fill:#1B69FD;fill-rule:nonzero}
    .fil0 {fill:#474747;fill-rule:nonzero}
   ]]>
  </style>
 </defs>
 <g id="图层_x0020_1">
  <metadata id="CorelCorpID_0Corel-Layer"/>
  <g id="快递查询.svg">
   <path class="fil0" d="M17.775 0.367l1.654 0.004 14.035 0c0.702,0 1.327,0.443 1.56,1.104l0.007 0.02 3.403 10.07c0.066,0.18 0.099,0.371 0.099,0.564 0,0 0,0.001 0,0.001l0 24.713c0,0.914 -0.74,1.654 -1.653,1.654l-35.002 0c-0.914,0 -1.654,-0.74 -1.654,-1.654l0 -24.713c0,-0.198 0.035,-0.389 0.099,-0.565l3.403 -10.07c0.225,-0.664 0.844,-1.115 1.546,-1.124l0.021 0 12.482 0 0 -0.004 0 0zm17.451 13.417l-31.695 0 0 21.406 31.695 0 0 -21.406zm-17.459 -10.105l-11.288 0 -2.297 6.798 13.568 0 0.017 -6.798zm14.511 0l-11.204 0 -0.017 6.798 13.518 0 -2.297 -6.798z" p-id="6496"/>
   <path class="fil1" d="M12.305 27.289l20.946 0 0 3.399 -20.946 0 0 -3.399 0 0zm20.9 -6.063l0 3.399 -11.208 0 0 -3.399 11.208 0z" p-id="6497"/>
  </g>
 </g>
</svg>
