<?xml version="1.0" encoding="UTF-8"?>
<svg width="40px" height="40px" viewBox="0 0 40 40" version="1.1" xmlns="http://www.w3.org/2000/svg" xmlns:xlink="http://www.w3.org/1999/xlink">
    <!-- Generator: Sketch 61 (89581) - https://sketch.com -->
    <title>园区介绍</title>
    <desc>Created with Sketch.</desc>
    <g id="页面-1" stroke="none" stroke-width="1" fill="none" fill-rule="evenodd">
        <g id="新员工（We码）图标" transform="translate(-89.000000, -95.000000)">
            <g id="园区介绍" transform="translate(89.000000, 95.000000)">
                <rect id="Rectangle-10-Copy-5" fill="#00C696" x="0" y="0" width="40" height="40" rx="6.25"></rect>
                <path d="M29.3729882,29.9235932 L29.3973821,17.0270473 L30.3710546,17.0270473 C30.9345828,17.0270473 31.0289752,16.7484877 30.5884278,16.4099219 L20.1107541,8.35772707 C19.8886509,8.18703989 19.534315,8.19513333 19.3136695,8.38055783 L9.39178938,16.7184393 C8.96082106,17.0806211 9.07499628,17.3842764 9.63418117,17.3964165 L10.610055,17.4175863 L10.6512866,29.9445214 L8.90474491,29.9445214 L8.92613417,31.7284017 L31.1011751,31.7478501 L31.0813327,29.9714593 L29.3729882,29.9235932 Z M12.5762308,18.7185174 L15.4188904,18.7514348 L15.4188904,21.1905219 L12.5762308,21.1785328 L12.5762308,18.7184872 L12.5762308,18.7185174 Z M15.4204373,26.0750986 L12.5792652,26.0646194 L12.5792652,23.6075937 L15.4204373,23.6345014 L15.4204373,26.0750986 Z M18.4091328,13.8991111 L21.2518221,13.9320285 L21.2518221,16.3711157 L18.4091328,16.3606365 L18.4091328,13.8990809 L18.4091328,13.8991111 Z M18.4091328,18.7185174 L21.248758,18.7514348 L21.248758,21.1905219 L18.4091328,21.177053 L18.4091328,18.7185174 Z M21.2548862,29.5642501 L18.4091328,29.5463117 L18.4091328,23.6075937 L21.2548862,23.6075937 L21.2548862,29.5642501 Z M24.1000149,18.7185174 L26.9381229,18.7514348 L26.9381229,21.1905219 L24.1000149,21.177053 L24.1000149,18.7185174 Z M24.1000149,23.6060838 L26.9442213,23.6330217 L26.9442213,26.0750986 L24.1000149,26.0646194 L24.1000149,23.6060838 L24.1000149,23.6060838 Z" id="Shape" fill="#FFFFFF" fill-rule="nonzero"></path>
            </g>
        </g>
    </g>
</svg>