<?xml version="1.0" encoding="UTF-8"?>
<svg width="40px" height="40px" viewBox="0 0 40 40" version="1.1" xmlns="http://www.w3.org/2000/svg" xmlns:xlink="http://www.w3.org/1999/xlink">
    <!-- Generator: Sketch 61 (89581) - https://sketch.com -->
    <title>卡证办理</title>
    <desc>Created with Sketch.</desc>
    <g id="页面-1" stroke="none" stroke-width="1" fill="none" fill-rule="evenodd">
        <g id="新员工（We码）图标" transform="translate(-146.000000, -197.000000)">
            <g id="卡证办理" transform="translate(146.000000, 197.000000)">
                <rect id="Rectangle-3-Copy-2" fill="#48A5FF" x="0" y="0" width="40" height="40" rx="6.25"></rect>
                <path d="M32.1875,10 C33.2230339,10 34.0625,10.8394661 34.0625,11.875 L34.0625,28.125 C34.0625,29.1605339 33.2230339,30 32.1875,30 L7.8125,30 C6.77696609,30 5.9375,29.1605339 5.9375,28.125 L5.9375,11.875 C5.9375,10.8394661 6.77696609,10 7.8125,10 L32.1875,10 Z M13.3791671,13.75 C13.1917766,13.75 12.9983695,13.7642376 12.7988066,13.7927128 C12.5992437,13.821188 12.3996947,13.876039 12.2000622,13.9574047 C12.0004993,14.0387009 11.8050588,14.1504884 11.6136155,14.2928366 C11.4222278,14.4351293 11.2490987,14.620107 11.0943396,14.8478114 C10.9232996,15.0836079 10.7949604,15.3519673 10.7094753,15.6528758 C10.6239204,15.9537705 10.5648552,16.2342958 10.5322794,16.4945076 C10.4915981,16.8035082 10.4753172,17.1125505 10.4834228,17.4215511 C10.4100961,17.5028473 10.3571727,17.5882451 10.324597,17.6777168 C10.2920352,17.759013 10.2695984,17.8565629 10.2573704,17.9704498 C10.2451423,18.0842673 10.2635122,18.210348 10.3123828,18.3485946 C10.3531338,18.4868273 10.4019904,18.5925527 10.4589527,18.6656734 C10.5159985,18.7388636 10.5689637,18.795814 10.6178343,18.8364969 C10.6748662,18.8771241 10.7318423,18.9055854 10.7888743,18.9218391 C10.8296253,19.0600996 10.8703066,19.1902264 10.9110576,19.3122054 C10.9517947,19.4179169 10.9965985,19.5216123 11.0454691,19.6232221 C11.0943257,19.7248875 11.1513576,19.8041537 11.2165091,19.8611042 C11.3549733,19.9749355 11.4812095,20.0867925 11.5952873,20.19655 C11.7093093,20.3063214 11.7745025,20.4547318 11.7907834,20.6417533 C11.798903,20.7718801 11.8029558,20.8897575 11.8029558,20.9954689 C11.8029558,21.1011943 11.7826221,21.2028597 11.7418711,21.3004096 C11.7011897,21.3980429 11.6360522,21.4955927 11.5464306,21.5931426 C11.4568369,21.690762 11.3264783,21.7923718 11.1554383,21.8980833 C10.9355277,22.0363299 10.6829997,22.1420414 10.3978819,22.2152455 C10.1128338,22.2884496 9.83792473,22.3717757 9.57315465,22.4653491 C9.3084542,22.5588529 9.07631555,22.684878 8.87676656,22.8434243 C8.67720365,23.0020402 8.55705366,23.2317468 8.51630266,23.5326553 C8.43485636,24.0611848 8.41655601,24.4922061 8.4613459,24.8255525 C8.50616364,25.1589823 8.56928174,25.3581976 8.6507141,25.4233096 C8.69957073,25.4639229 8.81770128,25.5046058 9.00502218,25.5452886 C9.19241271,25.585902 9.42041498,25.6265848 9.68925181,25.6672677 C9.95807472,25.707881 10.2573843,25.7465339 10.5873058,25.7831012 C10.9171438,25.8197519 11.2490987,25.8522592 11.5830731,25.8807345 C11.9170474,25.9091402 12.2408132,25.9315394 12.5544399,25.947793 C12.8680248,25.9640467 13.1429339,25.9722222 13.3791672,25.9722222 C13.6153586,25.9722222 13.8943345,25.9640467 14.2160668,25.947793 C14.5378688,25.9315394 14.8738765,25.9091402 15.2240622,25.8807345 C15.5743314,25.8522592 15.9225672,25.8176524 16.2687696,25.7770391 C16.6149721,25.7363562 16.9285431,25.6895973 17.2095245,25.6367764 C17.4905894,25.583872 17.7267808,25.529021 17.9182242,25.4720845 C18.1096118,25.4151341 18.225709,25.3581975 18.2664461,25.3013305 C18.3234223,25.2118588 18.3662066,25.0817182 18.3947156,24.9109642 C18.4232385,24.7402103 18.4375,24.5572486 18.4375,24.3620655 C18.4375,24.1668962 18.4273053,23.9737987 18.4069576,23.7826755 C18.38661,23.5915522 18.3560676,23.4309898 18.3153166,23.3008353 C18.2419899,23.0813064 18.1177732,22.9085224 17.9426107,22.7824278 C17.7675179,22.6564167 17.5659216,22.5506913 17.3378497,22.4653491 C17.1097639,22.3799373 16.8756058,22.3047032 16.6353058,22.2396746 C16.3949779,22.1746321 16.1730479,22.1014419 15.9693765,22.0200762 C15.7413046,21.9306879 15.5641784,21.8290225 15.4378726,21.7151355 C15.3116364,21.601332 15.217962,21.481369 15.1568773,21.355344 C15.0957926,21.2293189 15.0611835,21.1032382 15.0530082,20.9771992 C15.0449026,20.8511741 15.0530082,20.727179 15.0774783,20.6052 C15.1100541,20.4018691 15.1751916,20.2575465 15.2729745,20.1721347 C15.3707017,20.0867925 15.4969518,19.9830971 15.651697,19.8611181 C15.7169181,19.8041815 15.7759694,19.7249014 15.8288928,19.623236 C15.8818719,19.5216262 15.9287091,19.4179308 15.9693904,19.3122193 C16.0101414,19.1902403 16.0508924,19.0600997 16.0915738,18.921853 C16.1730619,18.8975073 16.2504414,18.8527645 16.3236985,18.7876663 C16.3889196,18.7307854 16.447971,18.6514636 16.5008943,18.5498538 C16.5538734,18.4481884 16.5884686,18.3119717 16.6047634,18.1412177 C16.6210443,18.0110771 16.619011,17.9013196 16.5986076,17.8118479 C16.5782739,17.7224596 16.5517843,17.6492555 16.5192086,17.592319 C16.4866329,17.5272626 16.441843,17.474386 16.3847972,17.4337726 C16.3847972,17.1003429 16.3644634,16.7709869 16.3237124,16.4457327 C16.2830171,16.1610917 16.2137571,15.8622827 16.1160439,15.5491805 C16.018261,15.2360782 15.8635158,14.9494768 15.6517109,14.6892651 C15.5621729,14.5753781 15.4379004,14.4615606 15.2790885,14.3476737 C15.1202627,14.2338562 14.939014,14.1321908 14.7353426,14.042733 C14.5317269,13.9532752 14.3138636,13.8821567 14.081711,13.8292662 C13.8495167,13.7764452 13.6153586,13.75 13.3791671,13.75 Z M30.9375,23.4375 L22.1875,23.4375 C21.842322,23.4375 21.5625,23.717322 21.5625,24.0625 C21.5625,24.407678 21.842322,24.6875 22.1875,24.6875 L22.1875,24.6875 L30.9375,24.6875 C31.282678,24.6875 31.5625,24.407678 31.5625,24.0625 C31.5625,23.717322 31.282678,23.4375 30.9375,23.4375 L30.9375,23.4375 Z M30.9375,19.375 L24.6875,19.375 C24.342322,19.375 24.0625,19.654822 24.0625,20 C24.0625,20.345178 24.342322,20.625 24.6875,20.625 L24.6875,20.625 L30.9375,20.625 C31.282678,20.625 31.5625,20.345178 31.5625,20 C31.5625,19.654822 31.282678,19.375 30.9375,19.375 L30.9375,19.375 Z M30.9375,15.3125 L22.1875,15.3125 C21.842322,15.3125 21.5625,15.592322 21.5625,15.9375 C21.5625,16.282678 21.842322,16.5625 22.1875,16.5625 L22.1875,16.5625 L30.9375,16.5625 C31.282678,16.5625 31.5625,16.282678 31.5625,15.9375 C31.5625,15.592322 31.282678,15.3125 30.9375,15.3125 L30.9375,15.3125 Z" id="形状结合" fill="#FFFFFF"></path>
            </g>
        </g>
    </g>
</svg>