<?xml version="1.0" encoding="UTF-8"?>
<!DOCTYPE svg PUBLIC "-//W3C//DTD SVG 1.1//EN" "http://www.w3.org/Graphics/SVG/1.1/DTD/svg11.dtd">
<!-- Creator: CorelDRAW Standard 2021 (64-Bit 评估版) -->
<svg xmlns="http://www.w3.org/2000/svg" xml:space="preserve" width="40px" height="40px" version="1.1" style="shape-rendering:geometricPrecision; text-rendering:geometricPrecision; image-rendering:optimizeQuality; fill-rule:evenodd; clip-rule:evenodd"
viewBox="0 0 40 40"
 xmlns:xlink="http://www.w3.org/1999/xlink"
 xmlns:xodm="http://www.corel.com/coreldraw/odm/2003">
 <defs>
  <style type="text/css">
   <![CDATA[
    .fil5 {fill:#37348F;fill-rule:nonzero}
    .fil2 {fill:#47E289;fill-rule:nonzero}
    .fil3 {fill:#EBEBFF;fill-rule:nonzero}
    .fil4 {fill:#F4D240;fill-rule:nonzero}
    .fil0 {fill:#FF457A;fill-rule:nonzero}
    .fil1 {fill:white;fill-rule:nonzero}
   ]]>
  </style>
 </defs>
 <g id="图层_x0020_1">
  <metadata id="CorelCorpID_0Corel-Layer"/>
  <g id="当志愿者.svg">
   <path class="fil0" d="M22.233 13.537l-0.533 -2.809 0 -0.11 -0.07 -0.047 0.07 0c0,-6.158 -3.849,-8.607 -8.607,-8.607 -4.757,0 -8.607,2.347 -8.607,8.607l0.18 -0.055c-0.117,0.133 -0.18,0.212 -0.18,0.212l-0.532 2.809c-0.009,0.048 -0.014,0.098 -0.014,0.147 0,0.432 0.35,0.783 0.783,0.783 0.081,0 0.163,-0.013 0.24,-0.038 2.62,-0.884 5.368,-1.369 8.13,-1.433 2.761,0.061 5.512,0.546 8.13,1.425 0.078,0.025 0.158,0.037 0.24,0.037 0.432,0 0.782,-0.35 0.782,-0.782 0,-0.047 -0.004,-0.093 -0.012,-0.139l0 0z" p-id="11075"/>
   <path class="fil1" d="M4.486 12.426c0,0 0.063,-0.086 0.18,-0.212l-0.18 0.055c0,-0.002 0,-0.009 0,-0.012 0,-0.563 0.038,-1.128 0.11,-1.686l-0.11 0.157 -0.532 2.809c-0.009,0.046 -0.013,0.094 -0.013,0.141 0,0.197 0.075,0.387 0.209,0.532l0.336 -1.784z" p-id="11076"/>
   <path class="fil1" d="M13.093 3.662c4.758,0 8.608,2.449 8.608,8.607l-0.071 0 0.071 0.071 0 0.109 0.336 1.784c0.134,-0.144 0.208,-0.334 0.208,-0.532 0,-0.047 -0.004,-0.094 -0.012,-0.141l-0.533 -2.832 0 -0.11 -0.07 -0.047 0.07 0c0,-6.158 -3.849,-8.607 -8.607,-8.607 -4.757,0 -8.607,2.347 -8.607,8.607l0.117 0c0.665,-4.992 4.21,-6.909 8.49,-6.909z" p-id="11077"/>
   <path class="fil2" d="M8.891 27.786l8.404 0c3.297,0 5.97,2.673 5.97,5.97l0 4.984 -20.344 0 0 -4.984c0,-0.002 0,-0.006 0,-0.008 0,-3.292 2.67,-5.962 5.963,-5.962 0.002,0 0.005,0 0.008,0l-0.001 0z" p-id="11078"/>
   <path class="fil1" d="M17.303 27.786l-8.412 0c-0.002,0 -0.005,0 -0.007,0 -3.293,0 -5.963,2.67 -5.963,5.962 0,0.002 0,0.006 0,0.008l0 1.698c0.004,-3.294 2.677,-5.963 5.97,-5.963 0,0 0,0 0,0l8.412 0c3.288,0.005 5.954,2.667 5.962,5.955l0 -1.69c0,-0.002 0,-0.006 0,-0.008 0,-3.292 -2.67,-5.962 -5.962,-5.962 0,0 0,0 0,0l0 0z" p-id="11079"/>
   <g>
    <path class="fil3" d="M20.824 13.701c-2.469,-0.762 -5.043,-1.164 -7.63,-1.174 -2.674,0.031 -5.354,0.425 -7.925,1.172l0 3.521c0,4.323 3.504,7.827 7.824,7.827 4.321,0 7.825,-3.504 7.825,-7.825l0 -3.521 -0.094 0zm-4.21 13.795c-0.003,1.943 -1.578,3.517 -3.521,3.521 -1.942,-0.004 -3.517,-1.578 -3.521,-3.521l7.042 0z" p-id="11080"/>
   </g>
   <polygon class="fil3" points="10.941,25.196 15.245,25.196 15.245,27.543 10.941,27.543 " p-id="11081"/>
   <path class="fil4" d="M25.464 22.387c0.44,-0.44 1.037,-0.687 1.659,-0.687 0.622,0 1.219,0.247 1.659,0.686l1.103 1.104 1.103 -1.104c0.441,-0.439 1.037,-0.686 1.659,-0.686 0.622,0 1.219,0.247 1.659,0.686 0.44,0.441 0.687,1.037 0.687,1.659 0,0.622 -0.247,1.219 -0.687,1.659l-4.421 4.429 -4.429 -4.429c-0.437,-0.439 -0.682,-1.035 -0.682,-1.655 0,-0.624 0.248,-1.222 0.69,-1.663l0 0.001z" p-id="11082"/>
   <path class="fil5" d="M16.223 18.498c0,-0.216 -0.175,-0.392 -0.391,-0.392 -0.216,0 -0.391,0.176 -0.391,0.392 0,1.296 -1.051,2.347 -2.348,2.347 -1.296,0 -2.347,-1.051 -2.347,-2.347 0,-0.216 -0.175,-0.392 -0.391,-0.392 -0.216,0 -0.392,0.176 -0.392,0.392 0.001,1.728 1.402,3.129 3.13,3.129 1.729,0 3.13,-1.401 3.13,-3.129l0 0z" p-id="11083"/>
   <path class="fil5" d="M17.303 27.003l-1.08 0 0 -1.768c3.301,-1.289 5.476,-4.47 5.478,-8.013l0 -1.995c0.762,-0.118 1.326,-0.775 1.326,-1.547 0,-0.098 -0.009,-0.196 -0.028,-0.292l-0.516 -2.731 0 -0.086c0,-5.61 -3.2,-9.053 -8.607,-9.39 0,-0.432 -0.351,-0.782 -0.783,-0.782 -0.432,0 -0.782,0.35 -0.782,0.782 -5.478,0.321 -8.607,3.694 -8.607,9.39l0 0.086 -0.517 2.731c-0.017,0.094 -0.026,0.189 -0.026,0.285 0,0.771 0.563,1.428 1.325,1.546l0 2.003c0.002,3.543 2.176,6.724 5.477,8.013l0 1.768 -1.072 0c-3.728,0 -6.752,3.024 -6.752,6.753l0 4.984c0,0.432 0.35,0.783 0.782,0.783l20.344 0c0.433,0 0.783,-0.351 0.783,-0.783l0 -4.984c0,0 0,0 0,0 0,-3.726 -3.019,-6.75 -6.745,-6.753l0 0zm5.47 8.318c-0.461,1.215 -1.627,2.02 -2.927,2.02 -1.3,0 -2.466,-0.805 -2.926,-2.02l5.853 0zm-18.044 -21.62l0.477 -2.512c2.556,-0.774 5.219,-1.217 7.889,-1.298 2.668,0.072 5.335,0.508 7.894,1.281l0.477 2.529c-2.696,-0.911 -5.527,-1.416 -8.371,-1.485 -2.844,0.069 -5.675,0.573 -8.368,1.484l0.002 0.001zm8.364 -10.955c2.762,0 7.293,0.908 7.786,6.761 -2.529,-0.722 -5.158,-1.125 -7.786,-1.182 -2.632,0.06 -5.256,0.462 -7.786,1.189 0.447,-5.563 4.422,-6.768 7.786,-6.768zm-7.042 14.476l0 -2.347c2.28,-0.698 4.656,-1.079 7.041,-1.126 2.388,0.047 4.763,0.428 7.045,1.127l0 2.347c-0.001,3.888 -3.155,7.041 -7.044,7.041 -3.888,0 -7.042,-3.153 -7.042,-7.042l0 0zm19.562 8.459c0.515,0.099 1.04,0.149 1.565,0.149 0.525,0 1.05,-0.05 1.565,-0.149l0 1.322 -3.13 0 0 -1.322zm-3.13 12.277l-18.779 0 0 -4.202c0,-2.865 2.323,-5.188 5.187,-5.188l0.462 0c0.5,1.649 2.021,2.777 3.744,2.777 1.724,0 3.245,-1.128 3.745,-2.777l0.461 0c2.861,0.004 5.18,2.326 5.18,5.188 0,0 0,0 0,0l0 4.202zm12.387 -16.127c-0.596,-0.571 -1.39,-0.89 -2.215,-0.89 -0.825,0 -1.619,0.319 -2.214,0.89l-0.556 0.555 -0.555 -0.555c-0.596,-0.571 -1.39,-0.89 -2.215,-0.89 -0.825,0 -1.619,0.319 -2.214,0.89 -0.588,0.586 -0.918,1.384 -0.918,2.214 0,0.831 0.33,1.628 0.918,2.215l4.429 4.429c0.146,0.145 0.345,0.227 0.551,0.227 0.207,0 0.406,-0.082 0.552,-0.227l4.437 -4.468c0.587,-0.587 0.918,-1.384 0.918,-2.215 0,-0.83 -0.331,-1.628 -0.918,-2.214l0 0.039zm-1.104 7.707l-3.873 3.913 -3.912 -3.913c-0.294,-0.293 -0.459,-0.692 -0.459,-1.107 0,-0.864 0.701,-1.566 1.566,-1.566 0.415,0 0.814,0.166 1.107,0.459l1.111 1.103c0.147,0.146 0.345,0.228 0.552,0.228 0.207,0 0.405,-0.082 0.551,-0.228l1.104 -1.103c0.293,-0.294 0.692,-0.459 1.107,-0.459 0.415,0 0.814,0.165 1.107,0.459 0.294,0.293 0.459,0.692 0.459,1.107 0,0.415 -0.165,0.814 -0.459,1.107l0.039 0z" p-id="11084"/>
  </g>
 </g>
</svg>
