<?xml version="1.0" encoding="UTF-8"?>
<svg width="40px" height="40px" viewBox="0 0 40 40" version="1.1" xmlns="http://www.w3.org/2000/svg" xmlns:xlink="http://www.w3.org/1999/xlink">
    <!-- Generator: Sketch 61 (89581) - https://sketch.com -->
    <title>开具证明</title>
    <desc>Created with Sketch.</desc>
    <g id="页面-1" stroke="none" stroke-width="1" fill="none" fill-rule="evenodd">
        <g id="新员工（We码）图标" transform="translate(-95.000000, -197.000000)">
            <g id="开具证明" transform="translate(95.000000, 197.000000)">
                <rect id="Rectangle" fill="#2E98EE" x="0" y="0" width="40" height="40" rx="6.25"></rect>
                <path d="M25.3125,19.0625 C29.6272246,19.0625 33.125,22.5602754 33.125,26.875 C33.125,31.1897246 29.6272246,34.6875 25.3125,34.6875 C20.9977754,34.6875 17.5,31.1897246 17.5,26.875 C17.5,22.5602754 20.9977754,19.0625 25.3125,19.0625 Z M25.3125,20.3125 C21.6881313,20.3125 18.75,23.2506313 18.75,26.875 C18.75,30.4993687 21.6881313,33.4375 25.3125,33.4375 C28.9368687,33.4375 31.875,30.4993687 31.875,26.875 C31.875,23.2506313 28.9368687,20.3125 25.3125,20.3125 Z M27.1875,8.4375 C28.5682119,8.4375 29.6875,9.55678813 29.6875,10.9375 L29.6875,11.5625 L29.6718312,11.5622983 C29.6821059,11.6128468 29.6875,11.6651685 29.6875,11.71875 L29.6875,15.78125 C29.6875,16.2127225 29.3377225,16.5625 28.90625,16.5625 C28.4747775,16.5625 28.125,16.2127225 28.125,15.78125 L28.125,11.71875 C28.125,11.6651685 28.1303941,11.6128468 28.1406688,11.5622983 L28.1245,11.5625 L28.125,10.9375 C28.125,10.4567164 27.7630873,10.060462 27.2968323,10.0063072 L27.1875,10 L10.9375,10 C10.4567164,10 10.060462,10.3619127 10.0063072,10.8281677 L10,10.9375 L10,29.0625 C10,29.5432836 10.3619127,29.939538 10.8281677,29.9936928 L10.9375,30 L13.90625,30 C14.3377225,30 14.6875,30.3497775 14.6875,30.78125 C14.6875,31.2127225 14.3377225,31.5625 13.90625,31.5625 L10.9375,31.5625 C9.55678813,31.5625 8.4375,30.4432119 8.4375,29.0625 L8.4375,10.9375 C8.4375,9.55678813 9.55678813,8.4375 10.9375,8.4375 L27.1875,8.4375 Z M25.3125,21.875 L26.7819631,24.8524575 L30.0677826,25.329915 L27.6901413,27.6475425 L28.2514263,30.920085 L25.3125,29.375 L22.3735737,30.920085 L22.9348587,27.6475425 L20.5572174,25.329915 L23.8430369,24.8524575 L25.3125,21.875 Z M17.03125,18.125 C17.4627225,18.125 17.8125,18.4747775 17.8125,18.90625 C17.8125,19.3377225 17.4627225,19.6875 17.03125,19.6875 L14.21875,19.6875 C13.7872775,19.6875 13.4375,19.3377225 13.4375,18.90625 C13.4375,18.4747775 13.7872775,18.125 14.21875,18.125 L17.03125,18.125 Z M23.90625,13.4375 C24.3377225,13.4375 24.6875,13.7872775 24.6875,14.21875 C24.6875,14.6502225 24.3377225,15 23.90625,15 L14.21875,15 C13.7872775,15 13.4375,14.6502225 13.4375,14.21875 C13.4375,13.7872775 13.7872775,13.4375 14.21875,13.4375 L23.90625,13.4375 Z" id="形状结合" fill="#FFFFFF" fill-rule="nonzero"></path>
            </g>
        </g>
    </g>
</svg>