<?xml version="1.0" encoding="UTF-8"?>
<!DOCTYPE svg PUBLIC "-//W3C//DTD SVG 1.1//EN" "http://www.w3.org/Graphics/SVG/1.1/DTD/svg11.dtd">
<!-- Creator: CorelDRAW Standard 2021 (64-Bit 评估版) -->
<svg xmlns="http://www.w3.org/2000/svg" xml:space="preserve" width="40px" height="40px" version="1.1" style="shape-rendering:geometricPrecision; text-rendering:geometricPrecision; image-rendering:optimizeQuality; fill-rule:evenodd; clip-rule:evenodd"
viewBox="0 0 40 40"
 xmlns:xlink="http://www.w3.org/1999/xlink"
 xmlns:xodm="http://www.corel.com/coreldraw/odm/2003">
 <defs>
  <style type="text/css">
   <![CDATA[
    .fil2 {fill:black;fill-rule:nonzero}
    .fil1 {fill:#3399CC;fill-rule:nonzero}
    .fil0 {fill:#FFCC66;fill-rule:nonzero}
   ]]>
  </style>
 </defs>
 <g id="图层_x0020_1">
  <metadata id="CorelCorpID_0Corel-Layer"/>
  <g id="社团活动.svg">
   <path class="fil0" d="M9.402 19.961c0.562,-0.176 1.143,-0.309 1.726,-0.391 0.75,-0.561 1.555,-1.057 2.395,-1.473 1.223,-0.61 2.53,-1.039 3.876,-1.276 -3.33,-1 -5.798,-4.02 -5.969,-7.628 -2.744,0.578 -4.71,3 -4.71,5.805 0,2 1.009,3.867 2.682,4.962l0 0.001zm21.965 -4.961c-0.001,-2.224 -1.246,-4.262 -3.224,-5.279 -0.376,3.374 -2.761,6.149 -5.929,7.1 1.346,0.237 2.654,0.666 3.876,1.274 0.862,0.429 1.692,0.944 2.461,1.524 0.161,0.028 0.321,0.06 0.481,0.096 1.471,-1.121 2.335,-2.866 2.335,-4.715 0,0 0,0 0,0l0 0z" p-id="10753"/>
   <path class="fil1" d="M0.811 33.635l2.966 0c0.343,-4.345 1.956,-8.38 4.631,-11.507 0.548,-0.641 1.148,-1.248 1.786,-1.804 -5.28,1.313 -9.273,6.764 -9.383,13.311zm28.72 -13.214c0.595,0.528 1.158,1.1 1.676,1.706 2.675,3.127 4.289,7.163 4.631,11.507l2.715 0c-0.108,-6.397 -3.922,-11.747 -9.022,-13.213z" p-id="10754"/>
   <path class="fil2" d="M35.497 23.713c-1.622,-1.895 -3.615,-3.201 -5.79,-3.827 1.41,-1.231 2.22,-3.014 2.22,-4.886 0,-2.519 -1.458,-4.811 -3.739,-5.878 0.004,-0.111 0.007,-0.223 0.007,-0.337 0.001,-4.625 -3.762,-8.386 -8.387,-8.386 -4.572,0 -8.299,3.676 -8.387,8.226 -2.993,0.575 -5.262,3.215 -5.262,6.375 0,2.04 0.962,3.962 2.593,5.187 -1.822,0.701 -3.491,1.895 -4.885,3.524 -2.333,2.728 -3.618,6.352 -3.618,10.204 0.001,0.154 0.126,0.278 0.279,0.278 0,0 0,0 0,0l3.212 0c-0.021,0.395 -0.033,0.793 -0.033,1.192 0,0.155 0.125,0.28 0.28,0.28l31.641 0c0.155,0 0.28,-0.125 0.28,-0.28 0,-0.399 -0.012,-0.797 -0.033,-1.192l2.961 0c0.154,0 0.279,-0.125 0.279,-0.28 0,-3.85 -1.285,-7.474 -3.618,-10.2l0 0zm-0.149 11.393l-31.079 0c0.127,-9.913 7.049,-17.93 15.539,-17.93 8.489,0 15.411,8.017 15.54,17.93zm-23.369 -26.321c0,-4.316 3.512,-7.828 7.829,-7.828 4.316,0 7.828,3.512 7.828,7.828 0,4.317 -3.512,7.829 -7.828,7.829 -4.317,0 -7.829,-3.512 -7.829,-7.829zm16.572 10.834c-0.769,-0.58 -1.599,-1.095 -2.462,-1.523 -1.221,-0.609 -2.529,-1.038 -3.874,-1.275 3.167,-0.95 5.552,-3.726 5.928,-7.099 1.979,1.013 3.224,3.052 3.224,5.276 0,1.85 -0.864,3.595 -2.335,4.716 -0.159,-0.035 -0.318,-0.067 -0.481,-0.095l0 0zm-17.121 -10.426c0.171,3.608 2.639,6.628 5.971,7.628 -1.346,0.235 -2.655,0.668 -3.877,1.275 -0.841,0.416 -1.648,0.912 -2.397,1.473 -0.584,0.083 -1.164,0.216 -1.727,0.392 -1.673,-1.096 -2.682,-2.962 -2.682,-4.963 0,-2.805 1.966,-5.227 4.71,-5.805l0.002 0zm-3.266 21.899c0.475,-1.598 0.722,-3.265 0.722,-4.935 0,-1.356 -0.163,-2.712 -0.478,-4.03 -2.676,3.127 -4.289,7.163 -4.632,11.507l-2.965 0c0.11,-6.546 4.103,-11.997 9.383,-13.31l-2.03 10.768zm23.043 -8.965c-0.518,-0.606 -1.081,-1.178 -1.677,-1.706 5.101,1.466 8.915,6.816 9.023,13.214l-2.714 0c-0.343,-4.345 -1.957,-8.379 -4.632,-11.508l0 0z" p-id="10755"/>
   <path class="fil1" d="M19.808 17.176c-8.49,0 -15.412,8.017 -15.539,17.93l31.079 0c-0.129,-9.913 -7.051,-17.93 -15.54,-17.93l0 0z" p-id="10756"/>
   <path class="fil0" d="M19.808 16.614c4.316,0 7.828,-3.512 7.828,-7.829 0,-4.316 -3.512,-7.828 -7.828,-7.828 -4.317,0 -7.829,3.512 -7.829,7.828 0,4.317 3.512,7.829 7.829,7.829zm3.821 -5.044c-0.817,1.287 -2.236,2.054 -3.788,2.054 -1.552,0 -2.968,-0.769 -3.787,-2.055 -0.062,-0.092 -0.095,-0.2 -0.095,-0.311 0,-0.309 0.251,-0.56 0.56,-0.56 0.196,0 0.378,0.102 0.479,0.27 0.613,0.961 1.676,1.538 2.844,1.538 1.167,0 2.23,-0.574 2.843,-1.538 0.103,-0.155 0.278,-0.249 0.465,-0.249 0.309,0 0.56,0.251 0.56,0.56 0,0.102 -0.028,0.203 -0.081,0.29l0 0.001z" p-id="10757"/>
   <path class="fil1" d="M23.457 10.797c-0.09,-0.057 -0.194,-0.088 -0.301,-0.088 -0.191,0 -0.369,0.098 -0.472,0.259 -0.613,0.962 -1.676,1.539 -2.843,1.539 -1.167,0 -2.23,-0.577 -2.843,-1.539 -0.102,-0.167 -0.283,-0.269 -0.479,-0.269 -0.309,0 -0.56,0.25 -0.56,0.56 0,0.11 0.033,0.219 0.094,0.311 0.818,1.287 2.236,2.055 3.788,2.055 1.552,0 2.968,-0.769 3.787,-2.055 0.057,-0.09 0.088,-0.194 0.088,-0.301 0,-0.191 -0.098,-0.369 -0.259,-0.472l0 0z" p-id="10758"/>
  </g>
 </g>
</svg>
