<?xml version="1.0" encoding="UTF-8"?>
<svg width="40px" height="40px" viewBox="0 0 40 40" version="1.1" xmlns="http://www.w3.org/2000/svg" xmlns:xlink="http://www.w3.org/1999/xlink">
    <!-- Generator: Sketch 61 (89581) - https://sketch.com -->
    <title>电脑安装与保修</title>
    <desc>Created with Sketch.</desc>
    <defs>
        <linearGradient x1="0%" y1="0%" x2="100%" y2="100%" id="linearGradient-1">
            <stop stop-color="#1BCCA1" offset="0%"></stop>
            <stop stop-color="#00C696" offset="100%"></stop>
        </linearGradient>
    </defs>
    <g id="页面-1" stroke="none" stroke-width="1" fill="none" fill-rule="evenodd">
        <g id="新员工（We码）图标" transform="translate(-42.000000, -95.000000)">
            <g id="电脑安装与保修" transform="translate(42.000000, 95.000000)">
                <rect id="Rectangle" fill="url(#linearGradient-1)" x="0" y="0" width="40" height="40" rx="6.25"></rect>
                <path d="M28.8565668,10.3125 C29.3996636,10.3125 29.8472593,10.7300111 29.904525,11.2671133 L29.9107143,11.3839286 L29.9110871,17.2443679 C29.4749082,17.004748 29.0030091,16.8220931 28.5054074,16.7064209 L28.5051843,11.7410714 L9.53052995,11.7410714 L9.53052995,23.8839286 L21.9894346,23.8843184 C22.3883529,25.0651312 23.1740798,26.067783 24.1958538,26.7415125 L22.1802995,26.7410714 L22.1802995,28.5267857 L23.5858295,29.9553571 L23.5858295,30.3125 L14.4498848,30.3125 L14.4498848,29.9553571 L15.8554147,28.5267857 L15.8554147,26.7410714 L9.17914747,26.7410714 C8.63539478,26.7410714 8.18836754,26.3229381 8.13118058,25.7863337 L8.125,25.6696429 L8.125,11.3839286 C8.125,10.8312619 8.53577706,10.3769063 9.06421634,10.3187819 L9.17914747,10.3125 L28.8565668,10.3125 Z M27.5575823,18.3331927 C28.3308699,18.4569311 28.9986673,18.8017144 29.560869,19.3675957 C30.0879248,19.8979867 30.4262711,20.5213872 30.5758419,21.2377572 C30.7253468,21.9541538 30.66822,22.6305376 30.4042637,23.2669352 L33.713429,26.611966 C33.8363802,26.6828537 33.8935729,26.8022818 33.8849413,26.9701179 C33.8763096,27.1380202 33.8017219,27.2837743 33.6611122,27.4075127 L32.3696639,28.7073633 C32.1061031,28.9725456 31.8426081,28.9725456 31.5791131,28.7073633 L28.2693812,25.3629293 C27.6366769,25.6281116 26.9645572,25.6856042 26.2531141,25.5354735 C25.5416711,25.3853428 24.9222372,25.0448963 24.3948519,24.514134 C23.8325843,23.9482261 23.4811522,23.2761924 23.3406084,22.4979531 C23.2000382,21.7196873 23.3055548,20.9946304 23.657145,20.3227558 L26.1344854,22.7633343 L27.821275,21.0657435 L25.3962514,18.625165 C26.0638116,18.3068004 26.7842552,18.2094542 27.5575823,18.3331927 Z" id="形状结合" fill="#FFFFFF" fill-rule="nonzero"></path>
            </g>
        </g>
    </g>
</svg>