<?xml version="1.0" encoding="UTF-8"?>
<!DOCTYPE svg PUBLIC "-//W3C//DTD SVG 1.1//EN" "http://www.w3.org/Graphics/SVG/1.1/DTD/svg11.dtd">
<!-- Creator: CorelDRAW Standard 2021 (64-Bit 评估版) -->
<svg xmlns="http://www.w3.org/2000/svg" xml:space="preserve" width="40px" height="40px" version="1.1" style="shape-rendering:geometricPrecision; text-rendering:geometricPrecision; image-rendering:optimizeQuality; fill-rule:evenodd; clip-rule:evenodd"
viewBox="0 0 40 40"
 xmlns:xlink="http://www.w3.org/1999/xlink"
 xmlns:xodm="http://www.corel.com/coreldraw/odm/2003">
 <defs>
  <style type="text/css">
   <![CDATA[
    .fil6 {fill:blue;fill-rule:nonzero}
    .fil3 {fill:#1A1A1A;fill-rule:nonzero}
    .fil0 {fill:#285399;fill-rule:nonzero}
    .fil1 {fill:#3268CF;fill-rule:nonzero}
    .fil5 {fill:#42DA56;fill-rule:nonzero}
    .fil4 {fill:#F74E00;fill-rule:nonzero}
    .fil2 {fill:white;fill-rule:nonzero}
   ]]>
  </style>
 </defs>
 <g id="图层_x0020_1">
  <metadata id="CorelCorpID_0Corel-Layer"/>
  <g id="计算机等级.svg">
   <path class="fil0" d="M31.333 27.23l-17.18 0c-2.967,0 -5.393,-2.425 -5.393,-5.393l0 -12.255c0,-2.968 2.426,-5.393 5.393,-5.393l17.18 0c2.967,0 5.392,2.425 5.392,5.393l0 12.255c0,2.968 -2.43,5.393 -5.392,5.393z" p-id="6274"/>
   <path class="fil1" d="M25.972 27.23l-11.819 0c-2.967,0 -5.393,-2.425 -5.393,-5.393l0 -12.255c0,-2.968 2.426,-5.393 5.393,-5.393l11.819 0c2.967,0 5.393,2.425 5.393,5.393l0 12.255c0,2.968 -2.426,5.393 -5.393,5.393z" p-id="6275"/>
   <path class="fil2" d="M27.332 13.151l-8.599 0c-0.382,0 -0.689,-0.308 -0.689,-0.689 0,-0.381 0.307,-0.689 0.689,-0.689l8.599 0c0.381,0 0.689,0.308 0.689,0.689 0,0.381 -0.308,0.689 -0.689,0.689zm-11.098 0l-2.862 0c-0.381,0 -0.689,-0.308 -0.689,-0.689 0,-0.381 0.308,-0.689 0.689,-0.689l2.862 0c0.381,0 0.689,0.308 0.689,0.689 0,0.381 -0.308,0.689 -0.689,0.689zm11.098 3.445l-13.955 0c-0.381,0 -0.689,-0.308 -0.689,-0.689 0,-0.381 0.308,-0.689 0.689,-0.689l13.955 0c0.381,0 0.689,0.308 0.689,0.689 0,0.381 -0.308,0.689 -0.689,0.689l0 0zm0 3.445l-13.955 0c-0.381,0 -0.689,-0.308 -0.689,-0.689 0,-0.381 0.308,-0.689 0.689,-0.689l13.955 0c0.381,0 0.689,0.308 0.689,0.689 0,0.381 -0.308,0.689 -0.689,0.689l0 0zm-16.679 -9.701c-0.34,0 -0.639,-0.253 -0.685,-0.602 0,-0.018 -0.004,-0.037 -0.004,-0.055 -0.042,-0.377 0.234,-0.717 0.611,-0.758 0.376,-0.041 0.716,0.234 0.758,0.611 0,0.009 0,0.018 0.004,0.032 0.046,0.377 -0.22,0.721 -0.597,0.772l-0.087 0zm0.762 -2.063c-0.128,0 -0.257,-0.036 -0.372,-0.11 -0.321,-0.207 -0.413,-0.634 -0.206,-0.951 0.615,-0.96 1.626,-1.525 1.667,-1.548 0.335,-0.184 0.753,-0.064 0.937,0.271 0.184,0.331 0.064,0.749 -0.266,0.937 -0.019,0.009 -0.758,0.432 -1.176,1.089 -0.133,0.202 -0.354,0.312 -0.584,0.312l0 0z" p-id="6276"/>
   <path class="fil3" d="M28.012 27.708l-16.312 0c-3.5,0 -6.348,-2.848 -6.348,-6.349l0 -3.431c0,-0.381 0.308,-0.689 0.689,-0.689 0.381,0 0.689,0.308 0.689,0.689l0 3.431c0,2.743 2.228,4.971 4.97,4.971l16.312 0c1.281,0 2.241,-0.345 3.105,-1.121 0.285,-0.253 0.721,-0.23 0.973,0.055 0.253,0.285 0.23,0.721 -0.055,0.974 -1.12,1.001 -2.402,1.469 -4.024,1.469l0.001 0.001zm4.841 -2.77c-0.138,0 -0.276,-0.042 -0.395,-0.124 -0.312,-0.221 -0.386,-0.648 -0.17,-0.96 0.023,-0.037 0.046,-0.069 0.074,-0.097l0.018 -0.032c0.184,-0.335 0.602,-0.455 0.937,-0.276 0.335,0.184 0.455,0.602 0.276,0.937l-0.028 0.056c-0.027,0.055 -0.064,0.119 -0.128,0.183 -0.005,0.005 -0.01,0.014 -0.014,0.019 -0.143,0.193 -0.354,0.294 -0.57,0.294l0 0zm0.781 -2.251c-0.028,0 -0.051,0 -0.078,-0.005 -0.377,-0.041 -0.648,-0.386 -0.606,-0.762 0.009,-0.097 0.023,-0.152 0.032,-0.198l0 -0.046c0,-0.381 0.308,-0.689 0.689,-0.689 0.381,0 0.689,0.308 0.689,0.689 0,0.147 -0.005,0.225 -0.032,0.34l0 0.005c0,0 -0.005,0.014 -0.01,0.05 -0.041,0.359 -0.34,0.616 -0.684,0.616z" p-id="6277"/>
   <path class="fil3" d="M33.671 22.246c-0.382,0 -0.689,-0.308 -0.689,-0.689l0 -11.396c0,-2.743 -2.228,-4.971 -4.97,-4.971l-16.312 0c-2.742,0 -4.97,2.228 -4.97,4.971l0 1.883c0,0.381 -0.308,0.689 -0.689,0.689 -0.381,0 -0.689,-0.308 -0.689,-0.689l0 -1.883c0,-3.501 2.848,-6.349 6.348,-6.349l16.312 0c3.5,0 6.348,2.848 6.348,6.349l0 11.391c0,0.382 -0.313,0.694 -0.689,0.694l0 0zm-27.63 -6.142c-0.381,0 -0.689,-0.307 -0.689,-0.689l0 -0.932c0,-0.381 0.308,-0.689 0.689,-0.689 0.381,0 0.689,0.308 0.689,0.689l0 0.932c0,0.382 -0.308,0.689 -0.689,0.689zm25.783 15.076l-2.724 0c-0.381,0 -0.689,-0.308 -0.689,-0.689 0,-0.381 0.308,-0.689 0.689,-0.689l2.724 0c0.381,0 0.689,0.308 0.689,0.689 0,0.381 -0.308,0.689 -0.689,0.689zm-5.59 0l-14.607 0c-0.382,0 -0.689,-0.308 -0.689,-0.689 0,-0.381 0.307,-0.689 0.689,-0.689l14.607 0c0.381,0 0.689,0.308 0.689,0.689 0,0.381 -0.308,0.689 -0.689,0.689z" p-id="6278"/>
   <path class="fil3" d="M19.913 31.166l-1.267 0c-1.14,0 -2.068,-0.928 -2.068,-2.067l0 -0.638c0,-1.139 0.928,-2.067 2.068,-2.067l1.267 0c1.139,0 2.067,0.928 2.067,2.067l0 0.638c0,1.14 -0.928,2.067 -2.067,2.067zm-1.267 -3.394c-0.382,0 -0.689,0.308 -0.689,0.689l0 0.638c0,0.382 0.307,0.689 0.689,0.689l1.267 0c0.381,0 0.689,-0.307 0.689,-0.689l0 -0.638c0,-0.381 -0.308,-0.689 -0.689,-0.689l-1.267 0zm24.418 7.423l-0.937 0c-0.381,0 -0.689,-0.308 -0.689,-0.689 0,-0.381 0.308,-0.689 0.689,-0.689l0.937 0c0.382,0 0.689,0.308 0.689,0.689 0,0.381 -0.307,0.689 -0.689,0.689l0 0zm-3.215 0l-19.899 0c-0.381,0 -0.689,-0.308 -0.689,-0.689 0,-0.381 0.308,-0.689 0.689,-0.689l19.899 0c0.381,0 0.689,0.308 0.689,0.689 0,0.381 -0.308,0.689 -0.689,0.689l0 0z" p-id="6279"/>
   <path class="fil3" d="M21.402 35.195l-12.054 0c-0.381,0 -0.689,-0.308 -0.689,-0.689 0,-0.381 0.308,-0.689 0.689,-0.689l12.054 0c0.381,0 0.688,0.308 0.688,0.689 0,0.381 -0.307,0.689 -0.688,0.689l0 0zm-16.601 0l-5.407 0c-0.381,0 -0.689,-0.308 -0.689,-0.689 0,-0.381 0.308,-0.689 0.689,-0.689l5.407 0c0.381,0 0.689,0.308 0.689,0.689 0,0.381 -0.308,0.689 -0.689,0.689l0 0z" p-id="6280"/>
   <path class="fil4" d="M0.198 8.998c-0.037,0 -0.069,-0.032 -0.069,-0.068l0 -1.778c0,-0.037 0.032,-0.069 0.069,-0.069 0.037,0 0.069,0.032 0.069,0.069l0 1.778c0,0.036 -0.032,0.068 -0.069,0.068z" p-id="6281"/>
   <path class="fil4" d="M-0.358 8.75c-0.018,0 -0.032,-0.004 -0.046,-0.018 -0.027,-0.028 -0.032,-0.069 -0.004,-0.097l1.153 -1.258c0.027,-0.028 0.069,-0.032 0.096,-0.005 0.028,0.028 0.032,0.069 0.005,0.097l-1.153 1.258c-0.014,0.014 -0.032,0.023 -0.051,0.023l0 0z" p-id="6282"/>
   <path class="fil4" d="M0.8 8.737c-0.018,0 -0.037,-0.01 -0.051,-0.023l-1.153 -1.259c-0.027,-0.028 -0.022,-0.073 0.005,-0.096 0.028,-0.028 0.074,-0.023 0.097,0.004l1.152 1.259c0.028,0.027 0.023,0.073 -0.004,0.096 -0.014,0.014 -0.028,0.019 -0.046,0.019l0 0z" p-id="6283"/>
   <path class="fil4" d="M1.011 8.107l-1.63 0c-0.037,0 -0.069,-0.032 -0.069,-0.069 0,-0.036 0.032,-0.068 0.069,-0.068l1.63 -0.001c0.037,0 0.069,0.033 0.069,0.069 0,0.037 -0.027,0.069 -0.069,0.069l0 0z" p-id="6284"/>
   <path class="fil5" d="M3.239 16.431l-0.34 0c-0.064,0 -0.115,-0.051 -0.115,-0.115 0,-0.065 0.051,-0.115 0.115,-0.115l0.34 0c0.064,0 0.115,0.05 0.115,0.115 0,0.064 -0.051,0.115 -0.115,0.115l0 0zm-1.093 0l-0.34 0c-0.064,0 -0.115,-0.051 -0.115,-0.115 0,-0.065 0.051,-0.115 0.115,-0.115l0.34 0c0.064,0 0.115,0.05 0.115,0.115 0,0.064 -0.051,0.115 -0.115,0.115l0 0zm0.105 -0.281c-0.032,0 -0.059,-0.013 -0.082,-0.036l-0.244 -0.262c-0.041,-0.046 -0.041,-0.12 0.009,-0.161 0.046,-0.041 0.12,-0.041 0.161,0.009l0.244 0.262c0.041,0.046 0.041,0.12 -0.009,0.161 -0.023,0.014 -0.051,0.027 -0.079,0.027l0 0zm0.832 0.841c-0.032,0 -0.06,-0.014 -0.083,-0.037l-0.243 -0.262c-0.042,-0.046 -0.042,-0.119 0.009,-0.16 0.046,-0.042 0.119,-0.042 0.161,0.009l0.243 0.262c0.041,0.046 0.041,0.119 -0.009,0.16 -0.023,0.019 -0.051,0.028 -0.078,0.028l0 0zm-0.244 -0.868c-0.027,0 -0.055,-0.009 -0.078,-0.032 -0.046,-0.042 -0.05,-0.115 -0.009,-0.161l0.244 -0.262c0.041,-0.046 0.114,-0.05 0.16,-0.009 0.046,0.041 0.051,0.115 0.01,0.161l-0.244 0.262c-0.018,0.027 -0.05,0.041 -0.083,0.041l0 0zm-0.303 -0.009c-0.064,0 -0.115,-0.051 -0.115,-0.115l0 -0.372c0,-0.065 0.051,-0.115 0.115,-0.115 0.065,0 0.115,0.05 0.115,0.115l0 0.372c0,0.064 -0.05,0.115 -0.115,0.115zm0 1.061c-0.064,0 -0.115,-0.051 -0.115,-0.115l0 -0.372c0,-0.064 0.051,-0.115 0.115,-0.115 0.065,0 0.115,0.05 0.115,0.115l0 0.372c0,0.064 -0.05,0.115 -0.115,0.115zm-0.514 -0.189c-0.028,0 -0.055,-0.009 -0.078,-0.032 -0.046,-0.041 -0.051,-0.115 -0.009,-0.161l0.243 -0.261c0.041,-0.046 0.115,-0.051 0.161,-0.01 0.046,0.042 0.05,0.115 0.009,0.161l-0.243 0.262c-0.023,0.028 -0.056,0.041 -0.083,0.041l0 0z" p-id="6285"/>
   <path class="fil1" d="M3.772 7.175l-0.189 0c-0.142,0 -0.261,-0.115 -0.261,-0.262l0 -0.046c0,-0.142 0.114,-0.262 0.261,-0.262l0.193 0c0.143,0 0.262,0.115 0.262,0.262l0 0.046c-0.004,0.147 -0.124,0.262 -0.266,0.262l0 0z" p-id="6286"/>
   <path class="fil4" d="M1.866 21.966c-0.115,0 -0.207,-0.092 -0.207,-0.207l0 -0.037c0,-0.114 0.092,-0.206 0.207,-0.206 0.114,0 0.206,0.092 0.206,0.206l0 0.037c-0.004,0.115 -0.096,0.207 -0.206,0.207z" p-id="6287"/>
   <path class="fil5" d="M0.327 13.146c-0.336,0 -0.607,-0.275 -0.607,-0.606l0 -0.11c0,-0.336 0.276,-0.607 0.607,-0.607 0.335,0 0.606,0.276 0.606,0.607l0 0.11c0,0.331 -0.271,0.606 -0.606,0.606z" p-id="6288"/>
   <path class="fil5" d="M42.04 15.25l-0.285 0c-0.248,0 -0.45,-0.202 -0.45,-0.45l0 -0.06c0,-0.248 0.202,-0.45 0.45,-0.45l0.285 0c0.248,0 0.45,0.202 0.45,0.45l0 0.06c0,0.248 -0.202,0.45 -0.45,0.45l0 0zm-0.285 -0.73c-0.119,0 -0.22,0.101 -0.22,0.22l0 0.06c0,0.119 0.101,0.22 0.22,0.22l0.285 0c0.119,0 0.22,-0.101 0.22,-0.22l0 -0.06c0,-0.119 -0.101,-0.22 -0.22,-0.22l-0.285 0z" p-id="6289"/>
   <path class="fil6" d="M39.762 12.039c-0.037,0 -0.069,-0.032 -0.069,-0.069l0 -1.075c0,-0.036 0.032,-0.068 0.069,-0.068 0.036,0 0.068,0.032 0.068,0.068l0 1.075c0,0.037 -0.032,0.069 -0.068,0.069l0 0z" p-id="6290"/>
   <path class="fil6" d="M39.426 11.892c-0.018,0 -0.032,-0.004 -0.046,-0.018 -0.027,-0.028 -0.032,-0.069 -0.004,-0.097l0.698 -0.762c0.028,-0.028 0.069,-0.032 0.096,-0.005 0.028,0.028 0.033,0.069 0.005,0.097l-0.698 0.762c-0.014,0.014 -0.032,0.023 -0.051,0.023l0 0z" p-id="6291"/>
   <path class="fil6" d="M40.125 11.883c-0.019,0 -0.037,-0.009 -0.051,-0.023l-0.698 -0.762c-0.028,-0.028 -0.023,-0.074 0.004,-0.097 0.028,-0.027 0.074,-0.023 0.097,0.005l0.698 0.762c0.028,0.028 0.023,0.074 -0.005,0.097 -0.013,0.014 -0.027,0.018 -0.045,0.018l0 0z" p-id="6292"/>
   <path class="fil6" d="M40.253 11.502l-0.987 0c-0.037,0 -0.069,-0.032 -0.069,-0.069 0,-0.037 0.032,-0.069 0.069,-0.069l0.987 0c0.037,0 0.069,0.032 0.069,0.069 0,0.037 -0.032,0.069 -0.069,0.069l0 0z" p-id="6293"/>
   <path class="fil4" d="M42.159 19.219l-0.34 0c-0.064,0 -0.114,-0.051 -0.114,-0.115 0,-0.064 0.05,-0.115 0.114,-0.115l0.34 0c0.065,0 0.115,0.051 0.115,0.115 0,0.064 -0.055,0.115 -0.115,0.115zm-1.093 0l-0.34 0c-0.064,0 -0.115,-0.051 -0.115,-0.115 0,-0.064 0.051,-0.115 0.115,-0.115l0.34 0c0.064,0 0.115,0.051 0.115,0.115 0,0.064 -0.055,0.115 -0.115,0.115zm0.101 -0.285c-0.032,0 -0.06,-0.014 -0.082,-0.037l-0.244 -0.262c-0.041,-0.045 -0.041,-0.119 0.009,-0.16 0.046,-0.042 0.12,-0.042 0.161,0.009l0.243 0.262c0.042,0.046 0.042,0.119 -0.009,0.16 -0.018,0.019 -0.05,0.028 -0.078,0.028l0 0zm0.832 0.845c-0.033,0 -0.06,-0.013 -0.083,-0.036l-0.243 -0.262c-0.042,-0.046 -0.042,-0.12 0.009,-0.161 0.046,-0.041 0.119,-0.041 0.16,0.009l0.244 0.262c0.041,0.046 0.041,0.119 -0.009,0.161 -0.023,0.018 -0.051,0.027 -0.078,0.027l0 0zm-0.244 -0.868c-0.027,0 -0.055,-0.009 -0.078,-0.032 -0.046,-0.041 -0.05,-0.115 -0.009,-0.161l0.243 -0.262c0.042,-0.046 0.115,-0.05 0.161,-0.009 0.046,0.041 0.051,0.115 0.009,0.161l-0.243 0.262c-0.018,0.027 -0.051,0.041 -0.083,0.041l0 0zm-0.303 -0.014c-0.064,0 -0.115,-0.05 -0.115,-0.115l0 -0.372c0,-0.064 0.051,-0.114 0.115,-0.114 0.064,0 0.115,0.05 0.115,0.114l0 0.372c0,0.065 -0.051,0.115 -0.115,0.115zm0 1.066c-0.064,0 -0.115,-0.05 -0.115,-0.115l0 -0.372c0,-0.064 0.051,-0.115 0.115,-0.115 0.064,0 0.115,0.051 0.115,0.115l0 0.372c0,0.06 -0.051,0.115 -0.115,0.115zm-0.514 -0.188c-0.028,0 -0.056,-0.009 -0.079,-0.033 -0.045,-0.041 -0.05,-0.114 -0.009,-0.16l0.244 -0.262c0.041,-0.046 0.115,-0.051 0.161,-0.009 0.046,0.041 0.05,0.115 0.009,0.16l-0.244 0.262c-0.023,0.028 -0.05,0.042 -0.082,0.042l0 0z" p-id="6294"/>
   <path class="fil1" d="M39.238 22.976l-0.198 0c-0.055,0 -0.096,-0.046 -0.096,-0.096l0 -0.019c0,-0.055 0.046,-0.096 0.096,-0.096l0.198 0c0.055,0 0.096,0.046 0.096,0.096l0 0.019c0,0.05 -0.041,0.096 -0.096,0.096z" p-id="6295"/>
   <path class="fil4" d="M39.293 17.68l-0.427 0c-0.184,0 -0.331,-0.147 -0.331,-0.331l0 -0.036c0,-0.184 0.147,-0.331 0.331,-0.331l0.427 0c0.184,0 0.331,0.147 0.331,0.331l0 0.036c0,0.184 -0.147,0.331 -0.331,0.331l0 0zm-0.427 -0.469c-0.055,0 -0.101,0.046 -0.101,0.102l0 0.036c0,0.055 0.046,0.101 0.101,0.101l0.427 0c0.055,0 0.101,-0.046 0.101,-0.101l0 -0.036c0,-0.055 -0.046,-0.101 -0.101,-0.101l-0.427 -0.001z" p-id="6296"/>
   <path class="fil1" d="M38.765 7.924c0,0.159 0.117,0.289 0.262,0.289 0.144,0 0.262,-0.13 0.262,-0.289 0,-0.16 -0.118,-0.29 -0.262,-0.29 -0.145,0 -0.262,0.13 -0.262,0.29z" p-id="6297"/>
  </g>
 </g>
</svg>
