<?xml version="1.0" encoding="UTF-8"?>
<svg width="40px" height="40px" viewBox="0 0 40 40" version="1.1" xmlns="http://www.w3.org/2000/svg" xmlns:xlink="http://www.w3.org/1999/xlink">
    <!-- Generator: Sketch 61 (89581) - https://sketch.com -->
    <title>员工食宿</title>
    <desc>Created with Sketch.</desc>
    <g id="页面-1" stroke="none" stroke-width="1" fill="none" fill-rule="evenodd">
        <g id="新员工（We码）图标" transform="translate(-140.000000, -95.000000)">
            <g id="员工食宿" transform="translate(140.000000, 95.000000)">
                <rect id="Mask" fill="#2E98EE" x="0" y="0" width="40" height="40" rx="6.25"></rect>
                <path d="M19.3333333,10 C19.7015232,10 20,10.2984768 20,10.6666667 L20,10.6666667 L20,32.2222222 L8.88888889,32.2222222 L8.88888889,10.6666667 C8.88888889,10.2984768 9.18736572,10 9.55555556,10 L9.55555556,10 Z M31.1111111,22.6984127 L31.1111111,32.2222222 L29.5238095,32.2222222 L29.5238095,27.4603175 L24.7619048,27.4603175 L24.7619048,32.2222222 L21.5873016,32.2222222 L21.5873016,22.6984127 L31.1111111,22.6984127 Z M18.4126984,21.1111111 L15.2380952,21.1111111 L15.2380952,24.2857143 L18.4126984,24.2857143 L18.4126984,21.1111111 Z M13.6507937,21.1111111 L10.4761905,21.1111111 L10.4761905,24.2857143 L13.6507937,24.2857143 L13.6507937,21.1111111 Z M30.4444444,19.5238095 C30.8126343,19.5238095 31.1111111,19.8222864 31.1111111,20.1904762 L31.1111111,21.1111111 L21.5873016,21.1111111 L21.5873016,20.1904762 C21.5873016,19.8222864 21.8857784,19.5238095 22.2539683,19.5238095 L30.4444444,19.5238095 Z M18.4126984,16.3492063 L15.2380952,16.3492063 L15.2380952,19.5238095 L18.4126984,19.5238095 L18.4126984,16.3492063 Z M13.6507937,16.3492063 L10.4761905,16.3492063 L10.4761905,19.5238095 L13.6507937,19.5238095 L13.6507937,16.3492063 Z M18.4126984,11.5873016 L15.2380952,11.5873016 L15.2380952,14.7619048 L18.4126984,14.7619048 L18.4126984,11.5873016 Z M13.6507937,11.5873016 L10.4761905,11.5873016 L10.4761905,14.7619048 L13.6507937,14.7619048 L13.6507937,11.5873016 Z M10,8.00084244 C10.0363421,8.00084244 10.0693454,8.01976036 10.0853975,8.04967432 L10.2838024,8.4509707 C10.2965157,8.47473634 10.3211718,8.49117129 10.3496805,8.49507311 L10.8063326,8.56755239 C10.842161,8.57228187 10.8719539,8.59545632 10.8831262,8.62726207 C10.8944269,8.65894959 10.884924,8.69382951 10.8589837,8.7171222 L10.5315194,8.97547004 C10.5108442,8.99391502 10.5014698,9.02063658 10.5063496,9.04676696 L10.5836569,9.46177883 C10.5896925,9.49464872 10.5836569,9.51817788 10.5543777,9.53792346 C10.5378119,9.54903774 10.5180356,9.55471312 10.4983878,9.55471312 C10.4832345,9.55471312 10.4680813,9.55140248 10.4540838,9.54466297 L10.0405799,9.33952177 C10.0151532,9.32722513 9.98458992,9.32722513 9.95916328,9.33952177 L9.56299574,9.54466297 C9.5308914,9.56027026 9.49198094,9.5575508 9.46270178,9.5380417 C9.43342262,9.51841436 9.41005066,9.49488519 9.4162147,9.46189707 L9.51098671,9.03825389 C9.51586657,9.01200528 9.5064921,8.98540195 9.4858169,8.96683874 L9.1410163,8.7171222 C9.11494758,8.69382951 9.10570153,8.65894959 9.11674542,8.62726207 C9.12804615,8.59545632 9.15783898,8.57240011 9.19366742,8.56755239 L9.64222925,8.49507311 C9.6707379,8.49128952 9.69539403,8.47473634 9.70810735,8.4509707 L9.91460246,8.04967432 C9.93065463,8.0198786 9.96378631,8.00084244 10,8.00084244 Z M12.2222222,8.00084244 C12.2585643,8.00084244 12.2915676,8.01976036 12.3076198,8.04967432 L12.5060246,8.4509707 C12.5187379,8.47473634 12.543394,8.49117129 12.5719027,8.49507311 L13.0285548,8.56755239 C13.0643832,8.57228187 13.0941761,8.59545632 13.1053484,8.62726207 C13.1166491,8.65894959 13.1071462,8.69382951 13.0812059,8.7171222 L12.7537417,8.97547004 C12.7330665,8.99391502 12.723692,9.02063658 12.7285719,9.04676696 L12.8058791,9.46177883 C12.8119147,9.49464872 12.8058791,9.51817788 12.7765999,9.53792346 C12.7600341,9.54903774 12.7402578,9.55471312 12.72061,9.55471312 C12.7054567,9.55471312 12.6903035,9.55140248 12.676306,9.54466297 L12.2628021,9.33952177 C12.2373755,9.32722513 12.2068121,9.32722513 12.1813855,9.33952177 L11.785218,9.54466297 C11.7531136,9.56027026 11.7142032,9.5575508 11.684924,9.5380417 C11.6556448,9.51841436 11.6322729,9.49488519 11.6384369,9.46189707 L11.7332089,9.03825389 C11.7380888,9.01200528 11.7287143,8.98540195 11.7080391,8.96683874 L11.3632385,8.7171222 C11.3371698,8.69382951 11.3279238,8.65894959 11.3389676,8.62726207 C11.3502684,8.59545632 11.3800612,8.57240011 11.4158896,8.56755239 L11.8644515,8.49507311 C11.8929601,8.49128952 11.9176163,8.47473634 11.9303296,8.4509707 L12.1368247,8.04967432 C12.1528768,8.0198786 12.1860085,8.00084244 12.2222222,8.00084244 Z M14.4444444,8.00084244 C14.4807866,8.00084244 14.5137898,8.01976036 14.529842,8.04967432 L14.7282468,8.4509707 C14.7409601,8.47473634 14.7656163,8.49117129 14.7941249,8.49507311 L15.250777,8.56755239 C15.2866055,8.57228187 15.3163983,8.59545632 15.3275706,8.62726207 C15.3388713,8.65894959 15.3293684,8.69382951 15.3034281,8.7171222 L14.9759639,8.97547004 C14.9552887,8.99391502 14.9459142,9.02063658 14.9507941,9.04676696 L15.0281013,9.46177883 C15.0341369,9.49464872 15.0281013,9.51817788 14.9988222,9.53792346 C14.9822563,9.54903774 14.9624801,9.55471312 14.9428322,9.55471312 C14.927679,9.55471312 14.9125257,9.55140248 14.8985282,9.54466297 L14.4850243,9.33952177 C14.4595977,9.32722513 14.4290344,9.32722513 14.4036077,9.33952177 L14.0074402,9.54466297 C13.9753358,9.56027026 13.9364254,9.5575508 13.9071462,9.5380417 C13.8778671,9.51841436 13.8544951,9.49488519 13.8606591,9.46189707 L13.9554312,9.03825389 C13.960311,9.01200528 13.9509365,8.98540195 13.9302613,8.96683874 L13.5854607,8.7171222 C13.559392,8.69382951 13.550146,8.65894959 13.5611899,8.62726207 C13.5724906,8.59545632 13.6022834,8.57240011 13.6381119,8.56755239 L14.0866737,8.49507311 C14.1151823,8.49128952 14.1398385,8.47473634 14.1525518,8.4509707 L14.3590469,8.04967432 C14.3750991,8.0198786 14.4082307,8.00084244 14.4444444,8.00084244 Z M16.6666667,8.00084244 C16.7030088,8.00084244 16.736012,8.01976036 16.7520642,8.04967432 L16.950469,8.4509707 C16.9631823,8.47473634 16.9878385,8.49117129 17.0163471,8.49507311 L17.4729992,8.56755239 C17.5088277,8.57228187 17.5386205,8.59545632 17.5497928,8.62726207 C17.5610936,8.65894959 17.5515907,8.69382951 17.5256504,8.7171222 L17.1981861,8.97547004 C17.1775109,8.99391502 17.1681364,9.02063658 17.1730163,9.04676696 L17.2503236,9.46177883 C17.2563592,9.49464872 17.2503236,9.51817788 17.2210444,9.53792346 C17.2044786,9.54903774 17.1847023,9.55471312 17.1650544,9.55471312 C17.1499012,9.55471312 17.1347479,9.55140248 17.1207504,9.54466297 L16.7072466,9.33952177 C16.6818199,9.32722513 16.6512566,9.32722513 16.6258299,9.33952177 L16.2296624,9.54466297 C16.1975581,9.56027026 16.1586476,9.5575508 16.1293684,9.5380417 C16.1000893,9.51841436 16.0767173,9.49488519 16.0828814,9.46189707 L16.1776534,9.03825389 C16.1825332,9.01200528 16.1731588,8.98540195 16.1524836,8.96683874 L15.807683,8.7171222 C15.7816142,8.69382951 15.7723682,8.65894959 15.7834121,8.62726207 C15.7947128,8.59545632 15.8245056,8.57240011 15.8603341,8.56755239 L16.3088959,8.49507311 C16.3374046,8.49128952 16.3620607,8.47473634 16.374774,8.4509707 L16.5812691,8.04967432 C16.5973213,8.0198786 16.630453,8.00084244 16.6666667,8.00084244 Z M18.8888889,8.00084244 C18.925231,8.00084244 18.9582343,8.01976036 18.9742864,8.04967432 L19.1726912,8.4509707 C19.1854046,8.47473634 19.2100607,8.49117129 19.2385694,8.49507311 L19.6952215,8.56755239 C19.7310499,8.57228187 19.7608427,8.59545632 19.772015,8.62726207 C19.7833158,8.65894959 19.7738129,8.69382951 19.7478726,8.7171222 L19.4204083,8.97547004 C19.3997331,8.99391502 19.3903587,9.02063658 19.3952385,9.04676696 L19.4725458,9.46177883 C19.4785814,9.49464872 19.4725458,9.51817788 19.4432666,9.53792346 C19.4267008,9.54903774 19.4069245,9.55471312 19.3872766,9.55471312 C19.3721234,9.55471312 19.3569702,9.55140248 19.3429727,9.54466297 L18.9294688,9.33952177 C18.9040421,9.32722513 18.8734788,9.32722513 18.8480522,9.33952177 L18.4518846,9.54466297 C18.4197803,9.56027026 18.3808698,9.5575508 18.3515907,9.5380417 C18.3223115,9.51841436 18.2989396,9.49488519 18.3051036,9.46189707 L18.3998756,9.03825389 C18.4047555,9.01200528 18.395381,8.98540195 18.3747058,8.96683874 L18.0299052,8.7171222 C18.0038365,8.69382951 17.9945904,8.65894959 18.0056343,8.62726207 C18.016935,8.59545632 18.0467279,8.57240011 18.0825563,8.56755239 L18.5311181,8.49507311 C18.5596268,8.49128952 18.5842829,8.47473634 18.5969962,8.4509707 L18.8034913,8.04967432 C18.8195435,8.0198786 18.8526752,8.00084244 18.8888889,8.00084244 Z" id="形状结合" fill="#FFFFFF" fill-rule="nonzero"></path>
            </g>
        </g>
    </g>
</svg>