<?xml version="1.0" encoding="UTF-8"?>
<!DOCTYPE svg PUBLIC "-//W3C//DTD SVG 1.1//EN" "http://www.w3.org/Graphics/SVG/1.1/DTD/svg11.dtd">
<!-- Creator: CorelDRAW Standard 2021 (64-Bit 评估版) -->
<svg xmlns="http://www.w3.org/2000/svg" xml:space="preserve" width="40px" height="40px" version="1.1" style="shape-rendering:geometricPrecision; text-rendering:geometricPrecision; image-rendering:optimizeQuality; fill-rule:evenodd; clip-rule:evenodd"
viewBox="0 0 40 40"
 xmlns:xlink="http://www.w3.org/1999/xlink"
 xmlns:xodm="http://www.corel.com/coreldraw/odm/2003">
 <defs>
  <style type="text/css">
   <![CDATA[
    .fil1 {fill:#330867;fill-rule:nonzero}
    .fil2 {fill:#F7D7FF;fill-rule:nonzero}
    .fil0 {fill:#FC6B79;fill-rule:nonzero}
    .fil3 {fill:#FFE08A;fill-rule:nonzero}
   ]]>
  </style>
 </defs>
 <g id="图层_x0020_1">
  <metadata id="CorelCorpID_0Corel-Layer"/>
  <g id="普通话.svg">
   <g>
    <path class="fil0" d="M29.711 38.532l-24.271 0c-1.856,0 -3.363,-1.507 -3.363,-3.363l0 -30.468c0,-1.856 1.507,-3.362 3.363,-3.362l24.271 0c1.856,0 3.363,1.506 3.363,3.362l0 27.864 -3.363 5.967zm0 0l0 0 0 0z" p-id="6671"/>
   </g>
   <path class="fil1" d="M29.711 38.945l-24.271 0c-2.081,0 -3.776,-1.695 -3.776,-3.776l0 -30.468c0,-2.081 1.695,-3.776 3.776,-3.776l24.271 0c2.081,0 3.776,1.695 3.776,3.776l0 27.864c0,0.23 -0.183,0.413 -0.413,0.413 -0.23,0 -0.414,-0.183 -0.414,-0.413l0 -27.864c0,-1.626 -1.322,-2.949 -2.949,-2.949l-24.271 0c-1.626,0 -2.949,1.323 -2.949,2.949l0 30.468c0,1.626 1.323,2.949 2.949,2.949l24.271 0c0.23,0 0.414,0.184 0.414,0.414 0,0.23 -0.184,0.413 -0.414,0.413z" p-id="6672"/>
   <g>
    <path class="fil2" d="M33.074 39.29l-27.634 0c-1.856,0 -3.363,-1.507 -3.363,-3.363 0,-1.855 1.507,-3.362 3.363,-3.362l27.634 0 0 6.725zm0 0l0 0 0 0z" p-id="6673"/>
   </g>
   <path class="fil1" d="M33.074 39.703l-27.634 0c-2.081,0 -3.776,-1.695 -3.776,-3.776 0,-2.08 1.695,-3.775 3.776,-3.775l27.634 -0.001c0.23,0 0.413,0.184 0.413,0.414 0,0.23 -0.183,0.413 -0.413,0.413l-27.634 0c-1.626,0 -2.949,1.323 -2.949,2.949 0,1.626 1.323,2.949 2.949,2.949l27.634 0c0.23,0 0.413,0.184 0.413,0.414 0,0.229 -0.183,0.413 -0.413,0.413z" p-id="6674"/>
   <path class="fil1" d="M34.071 39.703l-26.33 0c-0.23,0 -0.414,-0.184 -0.414,-0.413 0,-0.23 0.184,-0.414 0.414,-0.414l26.33 0c0.693,0 1.263,-0.652 1.263,-1.456l0 -35.383c0,-0.23 0.184,-0.414 0.413,-0.414 0.23,0 0.414,0.184 0.414,0.414l0 35.383c0,1.259 -0.937,2.283 -2.09,2.283l0 0z" p-id="6675"/>
   <path class="fil1" d="M28.572 36.387l-21.626 0c-0.252,0 -0.459,-0.207 -0.459,-0.46 0,-0.252 0.207,-0.459 0.459,-0.459l21.626 0c0.253,0 0.46,0.207 0.46,0.459 0,0.253 -0.207,0.46 -0.46,0.46l0 0z" p-id="6676"/>
   <path class="fil3" d="M9.165 28.242c-0.34,0 -0.524,-0.211 -0.579,-0.408 -0.115,-0.395 0.193,-0.914 0.79,-1.879 0.244,-0.395 0.643,-1.034 0.721,-1.305 -0.992,-0.969 -1.773,-2.103 -2.329,-3.371 -0.592,-1.355 -0.891,-2.793 -0.891,-4.286 0,-2.857 1.112,-5.544 3.133,-7.57 2.021,-2.021 4.708,-3.133 7.57,-3.133 2.862,0 5.544,1.112 7.57,3.133 2.026,2.021 3.133,4.708 3.133,7.57 0,2.862 -1.112,5.544 -3.133,7.57 -2.021,2.021 -4.708,3.133 -7.57,3.133 -1.677,0 -3.344,-0.395 -4.828,-1.149 -0.243,0.074 -0.9,0.446 -1.346,0.699 -1.097,0.62 -1.791,0.996 -2.241,0.996z" p-id="6677"/>
   <g>
    <path class="fil1" d="M17.575 6.708c5.683,0 10.29,4.608 10.29,10.29 0,5.682 -4.607,10.289 -10.29,10.289 -1.704,0 -3.311,-0.413 -4.726,-1.148 -0.019,-0.009 -0.037,-0.014 -0.064,-0.014 -0.529,0 -2.922,1.704 -3.62,1.704 -0.097,0 -0.161,-0.032 -0.184,-0.11 -0.147,-0.51 1.874,-2.912 1.493,-3.28 -1.966,-1.874 -3.188,-4.515 -3.188,-7.446 0,-5.677 4.607,-10.285 10.29,-10.285l-0.001 0zm0 -0.826c-1.502,0 -2.958,0.293 -4.327,0.872 -1.322,0.561 -2.512,1.36 -3.532,2.384 -1.02,1.02 -1.824,2.21 -2.384,3.533 -0.579,1.369 -0.873,2.825 -0.873,4.327 0,1.548 0.313,3.045 0.928,4.451 0.538,1.231 1.282,2.338 2.219,3.298 -0.143,0.285 -0.409,0.712 -0.584,0.992 -0.679,1.093 -0.996,1.644 -0.836,2.209 0.124,0.432 0.506,0.708 0.979,0.708 0.565,0 1.295,-0.4 2.439,-1.047 0.349,-0.198 0.845,-0.483 1.125,-0.607 1.502,0.726 3.17,1.112 4.847,1.112 1.502,0 2.958,-0.294 4.327,-0.873 1.323,-0.56 2.512,-1.36 3.532,-2.384 1.02,-1.02 1.824,-2.209 2.384,-3.532 0.579,-1.369 0.873,-2.825 0.873,-4.327 0,-1.502 -0.294,-2.959 -0.873,-4.327 -0.561,-1.323 -1.36,-2.513 -2.384,-3.533 -1.02,-1.019 -2.209,-1.823 -3.532,-2.384 -1.369,-0.578 -2.825,-0.872 -4.327,-0.872l-0.001 0z" p-id="6678"/>
   </g>
   <path class="fil1" d="M14.498 11.311c0.151,0.188 0.262,0.322 0.34,0.395 0.225,0.262 0.468,0.322 0.735,0.17 0.262,-0.188 0.303,-0.432 0.115,-0.735 -0.189,-0.34 -0.432,-0.657 -0.735,-0.96 -0.304,-0.262 -0.565,-0.28 -0.79,-0.055 -0.225,0.225 -0.225,0.491 0,0.79 0.068,0.074 0.183,0.207 0.335,0.395zm7.345 6.385l-8.42 0c-0.68,0 -1.015,0.34 -1.015,1.015l0 3.505c0,0.716 0.34,1.075 1.015,1.075l8.42 0c0.753,0.036 1.111,-0.322 1.075,-1.075l0 -3.505c0.032,-0.717 -0.322,-1.052 -1.075,-1.015zm0 4.18c0,0.225 -0.133,0.34 -0.395,0.34l-7.625 0c-0.262,-0.037 -0.414,-0.152 -0.45,-0.34l0 -0.905 8.474 0 0 0.905 -0.004 0zm0 -1.98l-8.475 0 0 -0.735c0,-0.262 0.151,-0.395 0.45,-0.395l7.625 0c0.262,0 0.395,0.133 0.395,0.395l0 0.735 0.005 0z" p-id="6679"/>
   <path class="fil1" d="M24.043 15.716l-2.26 0c0.262,-0.303 0.602,-0.79 1.015,-1.47 0.152,-0.303 0.074,-0.546 -0.225,-0.735 -0.303,-0.115 -0.546,-0.036 -0.735,0.225 -0.45,0.905 -0.905,1.562 -1.355,1.976l-0.905 0 0 -2.6 4.01 0c0.304,0 0.469,-0.189 0.51,-0.565 -0.036,-0.377 -0.206,-0.565 -0.51,-0.565l-3.165 0c0.152,-0.189 0.395,-0.51 0.735,-0.96 0.189,-0.304 0.134,-0.565 -0.17,-0.79 -0.376,-0.189 -0.661,-0.152 -0.845,0.114 -0.225,0.451 -0.583,0.997 -1.075,1.64l-7.565 0c-0.303,0 -0.473,0.189 -0.51,0.565 0.037,0.377 0.207,0.565 0.51,0.565l4.07 0 0 2.6 -4.465 0c-0.303,0 -0.45,0.17 -0.45,0.51 0,0.377 0.151,0.565 0.45,0.565l12.94 0c0.303,0 0.45,-0.188 0.45,-0.565 0,-0.34 -0.152,-0.51 -0.455,-0.51zm-5.59 0l-1.75 0 0 -2.6 1.75 0 0 2.6z" p-id="6680"/>
   <path class="fil1" d="M13.253 15.321c0.225,0.303 0.487,0.358 0.79,0.17 0.225,-0.225 0.244,-0.51 0.055,-0.845 0,-0.037 -0.018,-0.074 -0.055,-0.115 -0.34,-0.45 -0.602,-0.772 -0.79,-0.96 -0.225,-0.188 -0.473,-0.17 -0.735,0.055 -0.188,0.188 -0.188,0.414 0,0.68 0.037,0.078 0.133,0.207 0.28,0.395 0.193,0.225 0.345,0.432 0.455,0.62z" p-id="6681"/>
  </g>
 </g>
</svg>
