<?xml version="1.0" encoding="UTF-8"?>
<!DOCTYPE svg PUBLIC "-//W3C//DTD SVG 1.1//EN" "http://www.w3.org/Graphics/SVG/1.1/DTD/svg11.dtd">
<!-- Creator: CorelDRAW Standard 2021 (64-Bit 评估版) -->
<svg xmlns="http://www.w3.org/2000/svg" xml:space="preserve" width="40px" height="41px" version="1.1" style="shape-rendering:geometricPrecision; text-rendering:geometricPrecision; image-rendering:optimizeQuality; fill-rule:evenodd; clip-rule:evenodd"
viewBox="0 0 40 40.952"
 xmlns:xlink="http://www.w3.org/1999/xlink"
 xmlns:xodm="http://www.corel.com/coreldraw/odm/2003">
 <defs>
  <style type="text/css">
   <![CDATA[
    .fil1 {fill:#F44336;fill-rule:nonzero}
    .fil0 {fill:#FFCC80;fill-rule:nonzero}
   ]]>
  </style>
 </defs>
 <g id="图层_x0020_1">
  <metadata id="CorelCorpID_0Corel-Layer"/>
  <g id="参加校外竞赛.svg">
   <path class="fil0" d="M40.407 8.213c0,-0.502 -0.384,-0.911 -0.861,-0.911l-5.045 0 0 -0.098c0.005,-0.315 0.015,-0.625 0.015,-0.93 0,-0.965 -0.04,-1.979 -0.118,-3.096 -0.035,-0.473 -0.414,-0.842 -0.862,-0.842l-27.142 0c-0.448,0 -0.827,0.37 -0.861,0.842 -0.079,0.979 -0.123,2.116 -0.123,3.263 0,0.084 0.005,0.34 0.01,0.595l0.004 0.271 -4.956 0c-0.472,0 -0.861,0.409 -0.861,0.916 -0.315,6.634 2.402,13.928 9.189,15.256 0.049,0.015 0.103,0.02 0.162,0.02 0.094,0 0.182,-0.02 0.271,-0.049l0.064 -0.025 0.039 0.074c1.063,1.964 2.299,3.603 3.667,4.877 1.717,1.6 3.588,2.569 5.561,2.884l0.546 0.099 0 6.6 -6.742 0c-0.473,0 -0.861,0.408 -0.861,0.91 0,0.482 0.364,0.881 0.817,0.906l15.261 0c0.473,0 0.862,-0.409 0.862,-0.906 0,-0.502 -0.389,-0.91 -0.862,-0.91l-6.742 0 0 -5.877c-0.005,-0.029 0,-0.054 0,-0.103l0 -0.625 0.546 -0.094c1.974,-0.315 3.844,-1.284 5.561,-2.879 1.374,-1.279 2.614,-2.933 3.687,-4.911l0.044 -0.079 0.079 0.034c0.093,0.049 0.206,0.074 0.325,0.074 0.059,0 0.113,-0.01 0.162,-0.025 6.762,-1.323 9.479,-8.617 9.164,-15.261zm-32.212 13.278c-3.376,-0.95 -6.954,-5.202 -6.841,-12.269l0.005 0 0 -0.094 4.164 0 0.005 0.094c0.32,4.478 1.255,8.563 2.776,12.141l0.078 0.187 -0.187 -0.059zm30.465 -12.269c0.113,7.151 -3.509,11.388 -6.925,12.294l-0.192 0.049 0.079 -0.187c1.009,-2.377 1.772,-4.991 2.249,-7.766 0,0 0.074,-0.414 0.089,-0.527 0.167,-1.024 0.295,-2.087 0.388,-3.15l0.03 -0.374 0.03 -0.433 4.247 0 0.005 0.094z" p-id="14276"/>
   <polygon class="fil1" points="20.007,9.251 21.917,13.115 26.184,13.735 23.093,16.747 23.821,20.994 20.007,18.991 16.193,20.994 16.921,16.747 13.83,13.735 18.097,13.115 " p-id="14277"/>
  </g>
 </g>
</svg>
