<?xml version="1.0" encoding="UTF-8"?>
<!DOCTYPE svg PUBLIC "-//W3C//DTD SVG 1.1//EN" "http://www.w3.org/Graphics/SVG/1.1/DTD/svg11.dtd">
<!-- Creator: CorelDRAW Standard 2021 (64-Bit 评估版) -->
<svg xmlns="http://www.w3.org/2000/svg" xml:space="preserve" width="40px" height="40px" version="1.1" style="shape-rendering:geometricPrecision; text-rendering:geometricPrecision; image-rendering:optimizeQuality; fill-rule:evenodd; clip-rule:evenodd"
viewBox="0 0 40 40"
 xmlns:xlink="http://www.w3.org/1999/xlink"
 xmlns:xodm="http://www.corel.com/coreldraw/odm/2003">
 <defs>
  <style type="text/css">
   <![CDATA[
    .fil1 {fill:#4E30DC;fill-rule:nonzero}
    .fil0 {fill:#FF4E7D;fill-rule:nonzero}
   ]]>
  </style>
 </defs>
 <g id="图层_x0020_1">
  <metadata id="CorelCorpID_0Corel-Layer"/>
  <g id="新闻02.svg">
   <path class="fil0" d="M13.653 14.282l-0.024 -0.005 -0.025 0c-0.557,0.053 -0.865,0.389 -0.865,0.942l0 5.826 -5.018 -5.96c-0.361,-0.582 -0.75,-0.851 -1.159,-0.803 -0.558,0.053 -0.846,0.442 -0.803,1.072l0 8.047c0,0.524 0.322,0.827 0.885,0.827 0.519,0 0.831,-0.284 0.884,-0.803l0 -5.903 5.019 6.018c0.293,0.457 0.644,0.692 1.043,0.692 0.034,0 0.067,0 0.106,-0.004 0.255,-0.005 0.812,-0.106 0.812,-0.943l0 -8.08c-0.043,-0.543 -0.351,-0.87 -0.855,-0.923zm6.898 1.831c0.519,0 0.831,-0.307 0.884,-0.865l0 -0.024 -0.005 -0.024c-0.052,-0.466 -0.355,-0.75 -0.86,-0.798l-3.836 0c-0.332,0 -0.587,0.091 -0.75,0.269 -0.154,0.168 -0.216,0.399 -0.197,0.688l0 7.917c-0.024,0.288 0.043,0.519 0.197,0.687 0.163,0.178 0.413,0.27 0.745,0.27l3.812 0c0.519,0 0.832,-0.284 0.885,-0.803l0.004 -0.024 -0.004 -0.024c-0.053,-0.505 -0.356,-0.808 -0.861,-0.861l-2.999 0 0 -1.711 2.691 0c0.51,0 0.832,-0.293 0.885,-0.803l0 -0.048c-0.048,-0.505 -0.356,-0.812 -0.861,-0.86l-2.715 0 0 -2.981 2.985 0 0 -0.005zm13.613 -1.028c-0.052,-0.462 -0.336,-0.746 -0.797,-0.798l-0.029 0c-0.553,0 -0.89,0.302 -0.943,0.85l-1.254 6.389 -2.212 -6.547c-0.192,-0.572 -0.581,-0.692 -0.874,-0.692 -0.5,0 -0.832,0.25 -0.938,0.702l-2.173 6.427 -1.235 -6.288c-0.101,-0.543 -0.433,-0.841 -0.942,-0.841l-0.024 0c-0.75,0.072 -0.866,0.548 -0.866,0.826 0,0.207 0.02,0.395 0.058,0.558 0.005,0.096 0.029,0.178 0.077,0.25l1.572 7.35c0.096,0.615 0.51,0.957 1.168,0.961 0.039,0.005 0.077,0.005 0.115,0.005 0.597,0 1,-0.322 1.178,-0.937l1.971 -5.927 1.971 5.927c0.187,0.654 0.634,0.976 1.293,0.932 0.654,-0.004 1.067,-0.341 1.168,-0.956l1.639 -7.403 0.005 -0.02c0.044,-0.293 0.063,-0.533 0.063,-0.735l0.009 -0.034 0 0.001z" p-id="14047"/>
   <path class="fil1" d="M40.111 15.585c-0.409,-2.236 -1.183,-4.375 -2.303,-6.36 -1.096,-1.938 -2.49,-3.678 -4.148,-5.168 -1.678,-1.514 -3.577,-2.73 -5.644,-3.615 -2.105,-0.904 -4.331,-1.437 -6.624,-1.596 -2.081,-0.144 -4.153,0.029 -6.168,0.51 -1.86,0.442 -3.643,1.149 -5.311,2.096 -1.63,0.923 -3.125,2.067 -4.447,3.398 -1.331,1.341 -2.466,2.851 -3.379,4.495 -0.926,1.664 -1.615,3.456 -2.042,5.312 -0.466,2.028 -0.62,4.114 -0.457,6.206 0.154,1.937 0.577,3.836 1.264,5.643 0.673,1.769 1.592,3.437 2.726,4.961 1.12,1.5 2.437,2.841 3.918,3.985 1.495,1.154 3.139,2.096 4.884,2.798 1.803,0.721 3.697,1.182 5.634,1.37 0.649,0.062 1.312,0.091 1.966,0.091 0.514,0 1.505,-0.057 1.548,-0.057l0.003 0c2.289,-0.173 4.514,-0.726 6.615,-1.644 2.062,-0.904 3.956,-2.135 5.629,-3.668 1.649,-1.509 3.033,-3.269 4.115,-5.221 1.115,-2.014 1.87,-4.182 2.255,-6.446 0.408,-2.36 0.394,-4.745 -0.034,-7.09zm-41.375 4.273c-1.211,2.971 -3.206,5.576 -5.764,7.538 -2.6,1.995 -5.686,3.244 -8.931,3.615 -0.841,0.096 -1.702,0.134 -2.558,0.11 -3.73,-0.096 -7.422,-1.389 -10.397,-3.634 34.942,3.913 32.645,0.63 31.549,-3.009 -1.197,-3.976 -0.991,-8.273 0.586,-12.1 1.37,-3.331 3.793,-6.259 6.822,-8.254 2.97,-1.956 6.455,-2.99 9.979,-2.99 0.678,0 1.356,0.039 2.029,0.116 3.802,0.432 7.446,2.11 10.263,4.725 2.802,2.606 4.74,6.091 5.461,9.821 0.658,3.432 0.298,7.091 -1.015,10.302l-38.024 -6.24z" p-id="14048"/>
  </g>
 </g>
</svg>
