<?xml version="1.0" encoding="UTF-8"?>
<!DOCTYPE svg PUBLIC "-//W3C//DTD SVG 1.1//EN" "http://www.w3.org/Graphics/SVG/1.1/DTD/svg11.dtd">
<!-- Creator: CorelDRAW Standard 2021 (64-Bit 评估版) -->
<svg xmlns="http://www.w3.org/2000/svg" xml:space="preserve" width="40px" height="40px" version="1.1" style="shape-rendering:geometricPrecision; text-rendering:geometricPrecision; image-rendering:optimizeQuality; fill-rule:evenodd; clip-rule:evenodd"
viewBox="0 0 40 40"
 xmlns:xlink="http://www.w3.org/1999/xlink"
 xmlns:xodm="http://www.corel.com/coreldraw/odm/2003">
 <defs>
  <style type="text/css">
   <![CDATA[
    .fil1 {fill:#635DAF;fill-rule:nonzero}
    .fil11 {fill:#6D6DAA;fill-rule:nonzero}
    .fil3 {fill:#6F6EA9;fill-rule:nonzero}
    .fil12 {fill:#88D0FC;fill-rule:nonzero}
    .fil13 {fill:#999999;fill-rule:nonzero}
    .fil6 {fill:#C9C1F5;fill-rule:nonzero}
    .fil10 {fill:#D6B5B0;fill-rule:nonzero}
    .fil9 {fill:#EDECED;fill-rule:nonzero}
    .fil4 {fill:#EFF7FF;fill-rule:nonzero}
    .fil2 {fill:#F5F5FF;fill-rule:nonzero}
    .fil5 {fill:#FF9797;fill-rule:nonzero}
    .fil0 {fill:#FFD4A1;fill-rule:nonzero}
    .fil7 {fill:#FFE5E1;fill-rule:nonzero}
    .fil8 {fill:white;fill-rule:nonzero}
   ]]>
  </style>
 </defs>
 <g id="图层_x0020_1">
  <metadata id="CorelCorpID_0Corel-Layer"/>
  <g id="营养课堂.svg">
   <path class="fil0" d="M6.729 30.155l-5.923 0c-0.968,0 -1.753,-0.724 -1.753,-1.617l0 -22.631c0,-0.892 0.785,-1.616 1.753,-1.616l38.174 0c0.968,0 1.752,0.724 1.752,1.616l0.001 22.632c0,0.892 -0.785,1.616 -1.753,1.616l-32.251 0 0 0z" p-id="7564"/>
   <path class="fil1" d="M38.981 30.671l-38.175 0c-1.251,0 -2.268,-0.956 -2.268,-2.132l0 -22.632c0,-1.175 1.017,-2.132 2.268,-2.132l38.174 0c1.251,0 2.268,0.957 2.268,2.132l0 22.632c0.001,1.176 -1.017,2.132 -2.267,2.132l0 0zm-38.175 -25.864c-0.682,0 -1.236,0.494 -1.236,1.1l0 22.632c0,0.606 0.554,1.1 1.236,1.1l38.174 0c0.682,0 1.236,-0.494 1.236,-1.1l0 -22.632c0,-0.606 -0.554,-1.1 -1.236,-1.1l-38.174 0z" p-id="7565"/>
   <path class="fil2" d="M6.628 27.382l-4.039 0c-0.362,0 -0.655,-0.263 -0.655,-0.586l0 -19.146c0,-0.324 0.293,-0.586 0.655,-0.586l34.609 0c0.362,0 0.655,0.263 0.655,0.586l0 19.146c0,0.324 -0.293,0.586 -0.655,0.586l-30.57 0 0 0z" p-id="7566"/>
   <path class="fil3" d="M37.197 27.898l-34.608 0c-0.646,0 -1.172,-0.494 -1.172,-1.102l0.001 -19.146c0,-0.608 0.525,-1.102 1.171,-1.102l34.609 0c0.646,0 1.171,0.494 1.171,1.102l0 19.146c0,0.608 -0.525,1.102 -1.172,1.102l0 0zm-34.608 -20.318c-0.091,0 -0.139,0.052 -0.139,0.07l0 19.146c0,0.018 0.048,0.07 0.139,0.07l34.609 0c0.091,0 0.139,-0.052 0.139,-0.07l0 -19.146c0,-0.018 -0.048,-0.07 -0.139,-0.07l-34.609 0z" p-id="7567"/>
   <g>
    <path class="fil4" d="M6.698 31.974l0 -5.745c0,-1.004 0.856,-1.818 1.913,-1.818l8.721 0c1.057,0 1.913,0.814 1.913,1.818l0 6.231 -12.547 -0.001 0 -0.485zm0 0l0 0 0 0z" p-id="7568"/>
   </g>
   <path class="fil1" d="M19.761 32.975l-13.063 0c-0.285,0 -0.516,-0.231 -0.516,-0.516 0,-0.088 0.022,-0.17 0.06,-0.243 -0.038,-0.072 -0.06,-0.155 -0.06,-0.243l0 -5.744c0,-1.287 1.089,-2.334 2.428,-2.334l8.722 0c1.339,0 2.429,1.047 2.429,2.334l0 6.746 0 0zm-12.547 -1.032l11.515 0 0 -5.714c0,-0.718 -0.626,-1.302 -1.397,-1.302l-8.721 0c-0.77,0 -1.397,0.584 -1.397,1.302l0 5.714 0 0z" p-id="7569"/>
   <g>
    <path class="fil5" d="M28.507 17.756c-2.115,-0.108 -3.062,-1.62 -3.062,-1.62 -0.911,-1.324 -0.949,-3.197 -0.505,-3.789 1.381,-1.838 3.724,-0.226 3.724,-0.226l0.063 -0.004c0,0 2.588,-1.468 3.822,0.442 0.872,1.349 0.037,3.032 -0.486,3.809 0,0.001 -1.02,1.67 -3.556,1.388l0 0zm0 0l0 0 0 0z" p-id="7570"/>
   </g>
   <path class="fil1" d="M29.079 18.304c-0.196,0 -0.4,-0.01 -0.614,-0.034 -2.269,-0.122 -3.342,-1.682 -3.449,-1.849 -0.461,-0.672 -0.761,-1.525 -0.845,-2.405 -0.082,-0.848 0.049,-1.569 0.357,-1.98 0.687,-0.912 1.719,-1.266 2.908,-0.995 0.546,0.125 1.01,0.354 1.278,0.505 0.285,-0.134 0.794,-0.34 1.38,-0.434 1.266,-0.203 2.265,0.201 2.889,1.167 1.113,1.722 -0.085,3.772 -0.487,4.371 -0.109,0.169 -1.122,1.654 -3.417,1.654zm-2.389 -6.319c-0.47,0 -0.956,0.164 -1.337,0.672 -0.252,0.335 -0.32,1.97 0.518,3.186l0.012 0.019c0.032,0.05 0.847,1.286 2.65,1.378l0.031 0.003c2.155,0.24 3.025,-1.091 3.06,-1.147l0.011 -0.016c0.308,-0.458 1.254,-2.044 0.481,-3.241 -0.959,-1.484 -3.113,-0.286 -3.134,-0.273l-0.106 0.059 -0.359 0.021 -0.145 -0.1c-0.05,-0.034 -0.841,-0.561 -1.681,-0.561l-0.001 0z" p-id="7571"/>
   <path class="fil1" d="M29.79 14.276l-2.042 0.012c-0.398,0.003 -0.719,-0.23 -0.718,-0.52 0.002,-0.289 0.326,-0.525 0.724,-0.527l2.042 -0.012c0.398,-0.003 0.719,0.23 0.718,0.519 -0.002,0.29 -0.325,0.526 -0.724,0.528z" p-id="7572"/>
   <path class="fil1" d="M29.215 10.142l0.082 3.398c0.007,0.289 -0.244,0.53 -0.56,0.538 -0.316,0.008 -0.578,-0.22 -0.585,-0.509l-0.082 -3.398c-0.008,-0.289 0.243,-0.53 0.56,-0.538 0.315,-0.008 0.578,0.22 0.585,0.509z" p-id="7573"/>
   <path class="fil6" d="M11.631 10.367c-0.349,0.221 -0.778,0.272 -1.181,0.161 -1.588,-0.436 -5.336,-1.022 -4.816,3.354 0.486,4.089 4.534,2.015 6.613,0.655 0.739,-0.484 1.733,-0.394 2.373,0.204l0.737 0.688c1.52,1.419 4.172,0.788 4.656,-1.184 0.285,-1.163 -0.036,-2.424 -1.865,-3.426 -3.425,-1.876 -5.604,-1.03 -6.517,-0.452l0 0z" p-id="7574"/>
   <path class="fil1" d="M7.864 16.8c-0.423,0 -0.824,-0.074 -1.187,-0.243 -0.874,-0.408 -1.397,-1.287 -1.555,-2.614 -0.189,-1.595 0.135,-2.766 0.966,-3.48 1.277,-1.1 3.367,-0.743 4.499,-0.432 0.271,0.074 0.551,0.038 0.768,-0.1 0.51,-0.323 1.37,-0.719 2.569,-0.774 1.388,-0.063 2.893,0.344 4.472,1.209 2.259,1.237 2.399,2.859 2.118,4.002 -0.257,1.051 -1.065,1.873 -2.159,2.199 -1.185,0.353 -2.468,0.062 -3.35,-0.761l-0.736 -0.688c-0.47,-0.438 -1.201,-0.501 -1.738,-0.149 -1.373,0.897 -3.162,1.831 -4.667,1.831l0 0zm0.584 -6.051c-0.623,0 -1.25,0.12 -1.687,0.495 -0.554,0.477 -0.761,1.344 -0.614,2.577 0.112,0.947 0.438,1.553 0.967,1.8 0.939,0.439 2.708,-0.114 4.851,-1.517 0.931,-0.608 2.195,-0.5 3.008,0.259l0.737 0.688c0.614,0.574 1.514,0.775 2.349,0.526 0.751,-0.224 1.28,-0.754 1.453,-1.456 0.286,-1.168 -0.241,-2.1 -1.611,-2.85 -3.142,-1.721 -5.104,-1.032 -5.994,-0.469 -0.462,0.293 -1.043,0.374 -1.593,0.223 -0.406,-0.11 -1.133,-0.276 -1.866,-0.276l0 0z" p-id="7575"/>
   <path class="fil7" d="M10.753 22.432c-1.947,-0.777 -3.315,-2.608 -3.315,-4.741 0,-0.486 0.071,-0.956 0.203,-1.4l5.64 -2.533 4.711 2.358c0.168,0.496 0.259,1.026 0.259,1.575 0,2.115 -1.344,3.932 -3.265,4.721l0 1.999 -4.234 0 0 -1.858 0.001 -0.121 0 0z" p-id="7576"/>
   <path class="fil1" d="M15.503 24.927l-5.266 0 0 -2.156c-2.025,-0.947 -3.315,-2.906 -3.315,-5.08 0,-0.525 0.076,-1.046 0.225,-1.547l0.067 -0.227 6.08 -2.729 5.119 2.562 0.068 0.201c0.189,0.559 0.286,1.147 0.286,1.738 0,0.001 0,0.001 0,0.002 0,2.151 -1.27,4.1 -3.264,5.056l0 2.18 0 0zm-4.234 -1.032l3.201 0 0 -1.829 0.321 -0.132c1.788,-0.734 2.944,-2.4 2.944,-4.243 0,-0.412 -0.057,-0.819 -0.17,-1.212l-4.295 -2.15 -5.194 2.332c-0.081,0.336 -0.122,0.682 -0.122,1.028 0,0.001 0,0.002 0,0.002 0,1.864 1.174,3.537 2.99,4.262l0.325 0.13 0 1.812 0 0z" p-id="7577"/>
   <path class="fil8" d="M8.541 24.745c-0.184,-0.003 -0.299,0.2 -0.202,0.357l1.296 2.091c0.126,0.19 0.222,0.282 0.384,0.188l2.541 -2.123c0.252,-0.147 0.569,-0.143 0.817,0.011l2.382 2.115c0.279,0.173 0.395,0.077 0.681,-0.316l0.95 -1.849c0.079,-0.154 -0.031,-0.338 -0.204,-0.34l-8.645 -0.134z" p-id="7578"/>
   <path class="fil1" d="M15.987 27.984c-0.148,0 -0.314,-0.047 -0.5,-0.162l-0.038 -0.023 -2.373 -2.107c-0.037,-0.016 -0.076,-0.025 -0.116,-0.025 -0.038,0 -0.076,0.008 -0.111,0.022l-2.532 2.116 -0.038 0.022c-0.227,0.132 -0.669,0.264 -1.074,-0.349l-0.009 -0.013 -1.296 -2.091c-0.145,-0.233 -0.15,-0.526 -0.015,-0.765 0.136,-0.239 0.39,-0.385 0.664,-0.38l8.645 0.133c0.261,0.003 0.497,0.14 0.631,0.364 0.134,0.224 0.144,0.496 0.024,0.728l-0.968 1.884 -0.024 0.032c-0.169,0.233 -0.445,0.614 -0.869,0.614l-0.001 0zm-4.654 -4.927l1.704 1.514c0.015,-0.02 0.032,-0.042 0.05,-0.067l0.724 -1.409 -2.478 -0.038 0 0zm-5.195 -0.08l0.919 1.482 1.725 -1.442 -2.644 -0.04z" p-id="7579"/>
   <path class="fil9" d="M21.809 34.833l-18.095 0c-0.207,0 -0.375,-0.168 -0.375,-0.375l0 -1.623c0,-0.207 0.168,-0.375 0.375,-0.375l18.095 0c0.208,0 0.376,0.168 0.376,0.375l0 1.623c0,0.207 -0.168,0.375 -0.376,0.375l0 0z" p-id="7580"/>
   <path class="fil3" d="M21.809 35.349l-18.095 0c-0.491,0 -0.891,-0.4 -0.891,-0.892l0 -1.622c0,-0.492 0.4,-0.892 0.891,-0.892l18.095 0c0.492,0 0.892,0.4 0.892,0.892l0 1.622c0,0.492 -0.4,0.892 -0.892,0.892zm-17.954 -1.032l17.814 0 0 -1.342 -17.814 0 0 1.342z" p-id="7581"/>
   <path class="fil10" d="M19.422 37.933l-13.439 0c-0.161,0 -0.3,-0.113 -0.333,-0.27l-0.495 -2.372c-0.045,-0.211 0.116,-0.409 0.332,-0.409l14.431 0c0.215,0 0.376,0.198 0.332,0.409l-0.495 2.372c-0.033,0.157 -0.172,0.27 -0.333,0.27l0 0z" p-id="7582"/>
   <path class="fil11" d="M19.422 38.449l-13.439 0c-0.403,0 -0.755,-0.287 -0.838,-0.681l-0.496 -2.371c-0.052,-0.254 0.011,-0.514 0.174,-0.715 0.163,-0.201 0.405,-0.316 0.664,-0.316l14.43 0c0.259,0 0.501,0.115 0.665,0.316 0.163,0.201 0.226,0.462 0.173,0.715l-0.495 2.371c-0.083,0.395 -0.435,0.681 -0.838,0.681l0 0zm-13.296 -1.032l13.153 0 0.422 -2.018 -13.997 0 0.422 2.018z" p-id="7583"/>
   <path class="fil12" d="M15.268 32.459c-1.09,-0.519 -0.928,-6.101 -0.928,-6.101l-1.368 -1.109 -1.282 0.844c0,0 0.154,5.852 -0.936,6.366l4.514 0 0 0z" p-id="7584"/>
   <path class="fil1" d="M17.55 32.975l-9.103 0 2.079 -0.979c0.041,-0.035 0.438,-0.437 0.596,-3.048 0.087,-1.448 0.052,-2.828 0.052,-2.841l-0.008 -0.287 1.838 -1.21 1.859 1.508 -0.007 0.256c-0.001,0.013 -0.037,1.337 0.049,2.724 0.155,2.507 0.554,2.871 0.59,2.899l2.055 0.978 0 0zm-7.028 -0.976zm4.975 -0.002zm-3.794 -0.054l2.613 0c-0.19,-0.543 -0.35,-1.381 -0.436,-2.695 -0.073,-1.113 -0.068,-2.174 -0.061,-2.648l-0.879 -0.712 -0.729 0.48c0.006,0.505 0.008,1.602 -0.065,2.749 -0.09,1.39 -0.249,2.266 -0.443,2.826l0 0zm0.145 -10.916c0,0.536 0.458,0.971 1.022,0.971 0.564,0 1.021,-0.435 1.021,-0.971l-2.043 0z" p-id="7585"/>
   <g>
    <path class="fil13" d="M11.93 27.811l2.128 0 -2.128 0zm0 0l0 0 0 0z" p-id="7586"/>
   </g>
   <path class="fil1" d="M14.058 28.328l-2.128 0c-0.285,0 -0.517,-0.232 -0.517,-0.517 0,-0.285 0.232,-0.516 0.517,-0.516l2.128 0c0.285,0 0.517,0.231 0.517,0.516 0,0.285 -0.232,0.517 -0.517,0.517z" p-id="7587"/>
   <path class="fil1" d="M10.918 17.086c-0.933,0 -1.69,0.719 -1.69,1.607 0,0.887 0.756,1.607 1.69,1.607 0.934,0 1.691,-0.72 1.691,-1.607 0,-0.888 -0.757,-1.607 -1.691,-1.607zm0 2.227c-0.265,0 -0.479,-0.277 -0.479,-0.62 0,-0.342 0.214,-0.619 0.479,-0.619 0.265,0 0.48,0.277 0.48,0.619 0,0.342 -0.215,0.62 -0.48,0.62z" p-id="7588"/>
   <path class="fil1" d="M14.773 17.086c-0.933,0 -1.691,0.719 -1.691,1.607 0,0.887 0.757,1.607 1.691,1.607 0.934,0 1.691,-0.72 1.691,-1.607 0,-0.888 -0.757,-1.607 -1.691,-1.607zm0 2.227c-0.265,0 -0.48,-0.277 -0.48,-0.62 0,-0.342 0.215,-0.619 0.48,-0.619 0.265,0 0.48,0.277 0.48,0.619 0,0.342 -0.215,0.62 -0.48,0.62z" p-id="7589"/>
   <path class="fil1" d="M26.437 24.006l-3.736 0c-0.285,0 -0.516,-0.231 -0.516,-0.516l0 -0.023c0,-0.285 0.231,-0.516 0.516,-0.516l3.736 0c0.285,0 0.516,0.231 0.516,0.516l0 0.023c0,0.285 -0.231,0.516 -0.516,0.516z" p-id="7590"/>
   <path class="fil1" d="M29.627 21.038l-6.926 0c-0.285,0 -0.516,-0.231 -0.516,-0.516l0 -0.023c0,-0.285 0.231,-0.516 0.516,-0.516l6.926 0c0.285,0 0.516,0.231 0.516,0.516l0 0.023c-0.001,0.286 -0.231,0.516 -0.516,0.516z" p-id="7591"/>
   <path class="fil1" d="M18.253 18.592l-2.224 0.458c-0.286,0.058 -0.565,-0.125 -0.623,-0.411 -0.059,-0.286 0.125,-0.564 0.41,-0.623l2.225 -0.458c0.285,-0.058 0.564,0.125 0.623,0.411 0.058,0.286 -0.125,0.564 -0.411,0.623z" p-id="7592"/>
   <path class="fil1" d="M7.409 18.623l2.235 0.402c0.287,0.051 0.561,-0.14 0.612,-0.426 0.052,-0.287 -0.139,-0.561 -0.425,-0.613l-2.236 -0.402c-0.287,-0.051 -0.561,0.14 -0.612,0.426 -0.052,0.287 0.139,0.561 0.426,0.613z" p-id="7593"/>
   <path class="fil1" d="M34.767 21.038l-3.024 0c-0.285,0 -0.517,-0.231 -0.517,-0.516l0 -0.023c0,-0.285 0.232,-0.516 0.517,-0.516l3.024 0c0.285,0 0.516,0.231 0.516,0.516l0 0.023c0,0.286 -0.231,0.516 -0.516,0.516z" p-id="7594"/>
   <path class="fil1" d="M34.767 24.006l-5.997 0c-0.285,0 -0.516,-0.231 -0.516,-0.516l0 -0.023c0,-0.285 0.231,-0.516 0.516,-0.516l5.997 0c0.285,0 0.516,0.231 0.516,0.516l0 0.023c0,0.285 -0.231,0.516 -0.516,0.516z" p-id="7595"/>
   <path class="fil1" d="M13.602 19.095l-1.499 0c-0.285,0 -0.516,-0.231 -0.516,-0.516l0 -0.023c0,-0.285 0.231,-0.516 0.516,-0.516l1.499 0c0.285,0 0.516,0.231 0.516,0.516l0 0.023c0,0.286 -0.231,0.516 -0.516,0.516z" p-id="7596"/>
  </g>
 </g>
</svg>
