<?xml version="1.0" encoding="UTF-8"?>
<svg width="40px" height="40px" viewBox="0 0 40 40" version="1.1" xmlns="http://www.w3.org/2000/svg" xmlns:xlink="http://www.w3.org/1999/xlink">
    <!-- Generator: Sketch 61 (89581) - https://sketch.com -->
    <title>附近交通</title>
    <desc>Created with Sketch.</desc>
    <g id="页面-1" stroke="none" stroke-width="1" fill="none" fill-rule="evenodd">
        <g id="新员工（We码）图标" transform="translate(-42.000000, -146.000000)" fill-rule="nonzero">
            <g id="附近交通" transform="translate(42.000000, 146.000000)">
                <rect id="Rectangle-Copy-16" fill="#F36F64" x="0" y="0" width="40" height="40" rx="6.25"></rect>
                <path d="M32.5,19.5818001 C32.5,18.8507335 31.5863043,18.2577715 30.4591789,18.2577715 C30.0928991,18.2577715 29.750034,18.3209963 29.4530292,18.4305005 L27.9080018,14.0202148 C27.5527485,13.4346125 27.5080406,12.8067642 26.9444648,12.8067642 L24.5139231,12.8067642 L24.1668413,11.0245258 C24.0235509,10.5200105 23.3412779,10.3125 22.7777807,10.3125 L17.2222717,10.3125 C16.6587745,10.3125 15.9719705,10.5200105 15.8334468,11.0245258 L15.4861293,12.8067642 L13.0555352,12.8067642 C12.492038,12.8067642 12.3361497,13.5071874 12.0917101,14.0202148 L10.5473112,18.4305005 C10.2500445,18.3209701 9.90662944,18.2577715 9.54061161,18.2577715 C8.41351241,18.2577715 7.5,18.8507597 7.5,19.5818001 C7.5,20.3127881 8.41351241,20.9057763 9.54061161,20.9057763 C9.54983081,20.9057763 9.55873571,20.904781 9.56795491,20.904781 C9.57321928,20.9374149 9.57534074,20.9680059 9.5832242,21.0016612 C9.48843934,22.6574761 10.4032613,28.0463847 10.5612186,28.8511001 C10.7666076,29.755891 11.1031607,29.9107316 11.6666841,29.9107316 L13.7499083,29.9107316 C14.3134056,29.9107316 14.643149,29.435681 14.643149,28.8511001 L14.643149,27.701922 C14.9083057,27.7292653 15.184803,27.7546181 15.4860245,27.7724803 C18.7735063,27.9705359 21.6948655,27.9947101 24.5138707,27.7724803 C24.8104303,27.7493014 25.088211,27.7208842 25.3570605,27.6903195 L25.3570605,28.8511001 C25.3570605,29.435681 25.6864897,29.9107316 26.2500131,29.9107316 L28.3334992,29.9107316 C28.8970226,29.9107316 29.2969839,29.4662196 29.4387028,28.8511001 C29.7692058,27.8904441 31.1057012,22.2267929 30.7577551,20.8899832 C31.7428735,20.7962721 32.5,20.247468 32.5,19.5817477 L32.5,19.5818001 Z M13.055509,25.2781899 C11.9047332,25.2781899 10.972311,24.3207292 10.972311,23.1399386 C10.972311,21.9591481 11.9047332,21.0016612 13.055509,21.0016612 C14.2059967,21.0016612 15.1390213,21.9591481 15.1390213,23.1399386 C15.1390213,24.3207292 14.2060229,25.2781899 13.055509,25.2781899 Z M23.4721538,19.2204966 C22.0254733,19.4175046 18.3182561,19.3447724 17.2222717,19.2204966 C16.1259992,19.0972684 13.6222539,18.787561 13.6222539,18.787561 C13.0587043,18.787561 12.6018302,18.3125367 12.6018302,17.7279296 L13.1124742,15.6096358 C13.3246467,14.8649499 13.5337548,14.5879287 14.0973568,14.5879287 L25.9027741,14.5879287 C26.4665856,14.5879287 26.67517,14.8649499 26.8879449,15.6096358 L27.3980388,17.7279296 C27.3980388,18.3125367 26.9411648,18.787561 26.3776152,18.787561 C26.3775628,18.7875872 24.9192011,19.0225196 23.4721538,19.2204966 Z M27.2918347,25.2781899 C26.1411113,25.2781899 25.2083486,24.3207292 25.2083486,23.1399386 C25.2083486,21.9591481 26.1410851,21.0016612 27.2918347,21.0016612 C28.4420867,21.0016612 29.3750327,21.9591481 29.3750327,23.1399386 C29.3750327,24.3207292 28.4420605,25.2781899 27.2918347,25.2781899 Z" id="Shape" fill="#FFFFFF"></path>
            </g>
        </g>
    </g>
</svg>