<?xml version="1.0" encoding="UTF-8"?>
<!DOCTYPE svg PUBLIC "-//W3C//DTD SVG 1.1//EN" "http://www.w3.org/Graphics/SVG/1.1/DTD/svg11.dtd">
<!-- Creator: CorelDRAW Standard 2021 (64-Bit 评估版) -->
<svg xmlns="http://www.w3.org/2000/svg" xml:space="preserve" width="40px" height="40px" version="1.1" style="shape-rendering:geometricPrecision; text-rendering:geometricPrecision; image-rendering:optimizeQuality; fill-rule:evenodd; clip-rule:evenodd"
viewBox="0 0 40 40"
 xmlns:xlink="http://www.w3.org/1999/xlink"
 xmlns:xodm="http://www.corel.com/coreldraw/odm/2003">
 <defs>
  <style type="text/css">
   <![CDATA[
    .fil0 {fill:black;fill-rule:nonzero}
   ]]>
  </style>
 </defs>
 <g id="图层_x0020_1">
  <metadata id="CorelCorpID_0Corel-Layer"/>
  <g id="词典.svg">
   <path class="fil0" d="M13.029 17.254l-1.926 0 0 -3.622 1.913 0 0 -1.927 1.709 0 0 1.901 1.926 0 0 3.636 -1.926 0 0 0.012 -1.696 0zm-6.546 17.001c0.001,0.09 0.002,0.157 0.003,0.201 0.001,0.026 -0.004,0.052 -0.006,0.078 0.06,1.482 1.282,2.669 2.778,2.669l24.704 0 0 -2.721c0,-0.544 0.441,-0.985 0.984,-0.985 0.544,0 0.985,0.441 0.985,0.985l0 3.706c0,0.543 -0.441,0.984 -0.985,0.984l-25.837 0c-0.051,0 -0.1,-0.007 -0.15,-0.015 -2.481,-0.155 -4.454,-2.217 -4.454,-4.737 0,-0.058 0.007,-0.113 0.009,-0.171 -0.03,-2.923 0,-25.159 0.004,-27.579 -0.004,-0.034 -0.011,-0.067 -0.011,-0.102 0,-2.62 2.132,-4.752 4.752,-4.752l1.573 0 23.873 0 0.241 0c0.543,0 0.984,0.441 0.984,0.985l0 27.825c0,0.543 -0.441,0.985 -0.984,0.985 -0.006,0 -0.011,-0.002 -0.017,-0.002 -0.073,0.017 -0.148,0.029 -0.226,0.029l-25.445 0c-1.479,-0.001 -2.689,1.16 -2.775,2.617zm17.692 -22.55l7.68 0 0 1.697 -1.926 0 0 1.927 -1.914 0 0 1.926 -1.926 0 0 1.914 -1.914 0 0 4.057 9.824 0 0 -2.132 -7.693 0 0 -1.697 1.926 0 0 -1.926 1.914 0 0 -1.926 1.926 0 0 -1.913 1.927 0 0 -4.07 -9.824 0 0 2.143zm-4.342 5.766l4.576 0 0 -2.143 -4.576 0 0 2.143zm-10.861 5.754l2.131 0 0 -3.828 1.926 0 0 -0.012 3.622 0 0 3.84 2.144 0 0 -9.823 -1.927 0 0 -1.939 -1.926 0 0 -1.901 -2.131 0 0 1.926 -1.926 0 0 1.927 -1.914 0 0 9.81 0.001 0z" p-id="7873"/>
  </g>
 </g>
</svg>
