<?xml version="1.0" encoding="UTF-8"?>
<svg width="40px" height="40px" viewBox="0 0 40 40" version="1.1" xmlns="http://www.w3.org/2000/svg" xmlns:xlink="http://www.w3.org/1999/xlink">
    <!-- Generator: Sketch 61 (89581) - https://sketch.com -->
    <title>物业服务</title>
    <desc>Created with Sketch.</desc>
    <defs>
        <linearGradient x1="100%" y1="112.634277%" x2="12.2146606%" y2="-21.3897705%" id="linearGradient-1">
            <stop stop-color="#2694FF" offset="0%"></stop>
            <stop stop-color="#5AAEFF" offset="100%"></stop>
        </linearGradient>
        <linearGradient x1="50%" y1="0%" x2="50%" y2="100%" id="linearGradient-2">
            <stop stop-color="#3DC2DB" offset="0%"></stop>
            <stop stop-color="#3DC2DB" stop-opacity="0" offset="100%"></stop>
        </linearGradient>
    </defs>
    <g id="页面-1" stroke="none" stroke-width="1" fill="none" fill-rule="evenodd">
        <g id="新员工（We码）图标" transform="translate(-92.000000, -146.000000)">
            <g id="物业服务" transform="translate(92.000000, 146.000000)">
                <rect id="Rectangle-Copy" fill="url(#linearGradient-1)" x="0" y="0" width="40" height="40" rx="6.25"></rect>
                <path d="M21.688726,20.7663952 L21.8956525,20.9117325 C20.2491388,22.1607403 19.1857394,24.1384033 19.1857394,26.3644366 C19.1857394,27.9298552 19.7116284,29.3724458 20.5963759,30.525178 C20.1630105,30.5309964 19.7973387,30.5333787 19.5144334,30.5364598 C19.4659264,30.553287 19.4147165,30.5612946 19.3608036,30.5605388 C17.8228945,30.537323 12.8110247,30.5836425 8.4375,29.5905663 C8.4375,24.1255835 13.0221828,22.9018109 13.9434016,22.6055102 C14.5575475,22.4079763 15.5763236,21.8021578 16.9997298,20.7880546 L19.2356969,21.0111692 L21.688726,20.7663952 Z" id="Combined-Shape" fill="#FFFFFF"></path>
                <path d="M15.9286972,19.8503521 C16.9454641,22.474055 18.3098807,24.4044251 20.0219469,25.6414623 C21.7340131,26.8784995 22.4323899,25.2543432 22.1170775,20.7689934 L15.9286972,19.8503521 Z" id="Path-7" fill="url(#linearGradient-2)" opacity="0.5"></path>
                <path d="M19.3418905,21.6904075 C17.2873893,21.5255708 15.6955231,20.0561107 14.5662918,17.2820273 C14.2866719,17.0613637 14.1136684,16.9131232 14.0472813,16.8373058 C13.2788379,15.3359765 13.3362351,14.3933952 14.219473,14.009562 C14.163098,12.8971725 14.4171913,11.6778156 14.5662918,11.3157303 C14.7153923,10.953645 15.6955951,8.125 19.2932199,8.125 C19.3243205,8.1298194 19.3543515,8.14034512 19.3833127,8.15657714 C19.4087419,8.14375421 19.4349801,8.1352471 19.4620274,8.13105582 C23.0596522,8.13105582 24.039855,10.9597008 24.1889555,11.3217861 C24.338056,11.6838714 24.5921493,12.9032283 24.5357743,14.0156178 C25.4190122,14.399451 25.4764094,15.3420323 24.707966,16.8433616 C24.6415788,16.919179 24.4685754,17.0674195 24.1889555,17.2880831 C23.0468438,20.0938086 21.4314831,21.5649791 19.3428733,21.7015947 L19.3418905,21.6904075 L19.3418905,21.6904075 Z" id="Combined-Shape" fill="#FFFFFF"></path>
                <path d="M32.3080435,28.643216 C32.4309947,28.7141037 32.4881874,28.8335318 32.4795558,29.0013679 C32.4709241,29.1692702 32.3963364,29.3150243 32.2557267,29.4387627 L30.9642784,30.7386133 C30.7007176,31.0037956 30.4372226,31.0037956 30.1737276,30.7386133 L26.8639957,27.3941793 C26.2312914,27.6593616 25.5591717,27.7168542 24.8477286,27.5667235 C24.1362856,27.4165928 23.5168517,27.0761463 22.9894664,26.545384 C22.4271988,25.9794761 22.0757667,25.3074424 21.9352229,24.5292031 C21.7946527,23.7509373 21.9001693,23.0258804 22.2517595,22.3540058 L24.7290999,24.7945843 L26.4158895,23.0969935 L23.9908659,20.656415 C24.6584261,20.3380504 25.3788697,20.2407042 26.1521968,20.3644427 C26.9254844,20.4881811 27.5932818,20.8329644 28.1554835,21.3988457 C28.6825393,21.9292367 29.0208856,22.5526372 29.1704564,23.2690072 C29.3199613,23.9854038 29.2628344,24.6617876 28.9988782,25.2981852 L32.3080435,28.643216 Z" id="Shape" fill="#FFFFFF" fill-rule="nonzero" transform="translate(27.177702, 25.625000) scale(-1, 1) translate(-27.177702, -25.625000) "></path>
            </g>
        </g>
    </g>
</svg>