<?xml version="1.0" encoding="UTF-8"?>
<!DOCTYPE svg PUBLIC "-//W3C//DTD SVG 1.1//EN" "http://www.w3.org/Graphics/SVG/1.1/DTD/svg11.dtd">
<!-- Creator: CorelDRAW Standard 2021 (64-Bit 评估版) -->
<svg xmlns="http://www.w3.org/2000/svg" xml:space="preserve" width="40px" height="40px" version="1.1" style="shape-rendering:geometricPrecision; text-rendering:geometricPrecision; image-rendering:optimizeQuality; fill-rule:evenodd; clip-rule:evenodd"
viewBox="0 0 40 40"
 xmlns:xlink="http://www.w3.org/1999/xlink"
 xmlns:xodm="http://www.corel.com/coreldraw/odm/2003">
 <defs>
  <style type="text/css">
   <![CDATA[
    .fil0 {fill:#3E3A39;fill-rule:nonzero}
    .fil1 {fill:#FA7268;fill-rule:nonzero}
   ]]>
  </style>
 </defs>
 <g id="图层_x0020_1">
  <metadata id="CorelCorpID_0Corel-Layer"/>
  <g id="新闻公告.svg">
   <path class="fil0" d="M40.461 16.137l-9.107 0c-0.886,0 -1.6,0.714 -1.6,1.6 0,0.886 0.714,1.6 1.6,1.6l9.107 0c0.886,0 1.6,-0.714 1.6,-1.6 0,-0.886 -0.714,-1.6 -1.6,-1.6zm-9.131 -5.513c0.27,0 0.541,-0.073 0.787,-0.221l8.516 -4.923c0.763,-0.443 1.034,-1.427 0.591,-2.19 -0.443,-0.763 -1.428,-1.034 -2.191,-0.591l-8.516 4.923c-0.763,0.443 -1.033,1.427 -0.59,2.19 0.32,0.517 0.861,0.812 1.403,0.812zm9.303 19.346l-8.516 -4.923c-0.763,-0.443 -1.747,-0.172 -2.19,0.591 -0.443,0.763 -0.173,1.747 0.59,2.19l8.516 4.923c0.246,0.148 0.517,0.221 0.788,0.221 0.541,0 1.083,-0.295 1.378,-0.812 0.468,-0.763 0.222,-1.747 -0.566,-2.19l0 0zm-16.17 -28.6c-0.886,-0.566 -1.969,-0.665 -2.929,-0.221l-0.074 0.024 -12.257 6.966 -6.35 0c-1.698,0 -3.077,1.378 -3.077,3.076l0 13.34c0,1.649 1.354,3.027 3.003,3.077l6.399 0.147 12.257 6.769 0.148 0.073c0.394,0.173 0.812,0.247 1.231,0.247 0.59,0 1.181,-0.173 1.698,-0.517 0.861,-0.566 1.378,-1.526 1.378,-2.56l0 -27.837c-0.024,-1.058 -0.541,-2.018 -1.427,-2.584l0 0zm-1.797 30.224l-12.626 -6.99 -7.064 -0.172 0 -13.094 7.064 0 12.626 -7.162 0 27.418z" p-id="9497"/>
   <path class="fil1" d="M8.637 14.538l0 6.891c0,0.886 0.714,1.6 1.6,1.6 0.886,0 1.6,-0.714 1.6,-1.6l0 -6.891c0,-0.886 -0.714,-1.6 -1.6,-1.6 -0.886,0 -1.6,0.714 -1.6,1.6z" p-id="9498"/>
  </g>
 </g>
</svg>
