<?xml version="1.0" encoding="UTF-8"?>
<!DOCTYPE svg PUBLIC "-//W3C//DTD SVG 1.1//EN" "http://www.w3.org/Graphics/SVG/1.1/DTD/svg11.dtd">
<!-- Creator: CorelDRAW Standard 2021 (64-Bit 评估版) -->
<svg xmlns="http://www.w3.org/2000/svg" xml:space="preserve" width="40px" height="40px" version="1.1" style="shape-rendering:geometricPrecision; text-rendering:geometricPrecision; image-rendering:optimizeQuality; fill-rule:evenodd; clip-rule:evenodd"
viewBox="0 0 40 40"
 xmlns:xlink="http://www.w3.org/1999/xlink"
 xmlns:xodm="http://www.corel.com/coreldraw/odm/2003">
 <defs>
  <style type="text/css">
   <![CDATA[
    .fil0 {fill:black;fill-rule:nonzero}
   ]]>
  </style>
 </defs>
 <g id="图层_x0020_1">
  <metadata id="CorelCorpID_0Corel-Layer"/>
  <g id="课表.svg">
   <path class="fil0" d="M26.958 -0.084c0.812,0 1.47,0.658 1.47,1.47l0 1.424 5.604 0c1.623,0 2.94,1.316 2.94,2.94l0 27.974c0,1.623 -1.317,2.939 -2.94,2.939l-30.868 0.001c-1.624,0 -2.94,-1.317 -2.94,-2.94l0 -27.974c0,-1.624 1.316,-2.94 2.94,-2.94l5.879 0 0 -1.424c0,-0.812 0.658,-1.47 1.47,-1.47 0.812,0 1.47,0.658 1.47,1.47l0 1.424 13.505 0 0 -1.424c0,-0.812 0.658,-1.47 1.47,-1.47zm-23.794 14.166l0 19.642 30.868 0 0 -19.568 -30.409 0c-0.16,0 -0.315,-0.026 -0.459,-0.074zm8.452 11.419c0.406,0 0.735,0.329 0.735,0.735l0 2.205c0,0.406 -0.329,0.735 -0.735,0.735l-2.205 0c-0.406,0 -0.735,-0.329 -0.735,-0.735l0 -2.205c0,-0.406 0.329,-0.735 0.735,-0.735l2.205 0zm8.084 0c0.406,0 0.735,0.329 0.735,0.735l0 2.205c0,0.406 -0.329,0.735 -0.735,0.735l-2.205 0c-0.406,0 -0.735,-0.329 -0.735,-0.735l0 -2.205c0,-0.406 0.329,-0.735 0.735,-0.735l2.205 0zm8.085 0c0.406,0 0.735,0.329 0.735,0.735l0 2.205c0,0.406 -0.33,0.735 -0.735,0.735l-2.205 0c-0.406,0 -0.735,-0.329 -0.735,-0.735l0 -2.205c0,-0.406 0.329,-0.735 0.735,-0.735l2.205 0zm-16.169 -6.982c0.406,0 0.735,0.329 0.735,0.735l0 2.205c0,0.406 -0.329,0.735 -0.735,0.735l-2.205 0c-0.406,0 -0.735,-0.329 -0.735,-0.735l0 -2.205c0,-0.406 0.329,-0.735 0.735,-0.735l2.205 0zm8.084 0c0.406,0 0.735,0.329 0.735,0.735l0 2.205c0,0.406 -0.329,0.735 -0.735,0.735l-2.205 0c-0.406,0 -0.735,-0.329 -0.735,-0.735l0 -2.205c0,-0.406 0.329,-0.735 0.735,-0.735l2.205 0zm8.085 0c0.406,0 0.735,0.329 0.735,0.735l0 2.205c0,0.406 -0.33,0.735 -0.735,0.735l-2.205 0c-0.406,0 -0.735,-0.329 -0.735,-0.735l0 -2.205c0,-0.406 0.329,-0.735 0.735,-0.735l2.205 0zm-18.742 -12.769l-5.879 0 0 5.539c0.147,-0.048 0.302,-0.073 0.458,-0.073 0,0 0.001,0 0.001,0l30.409 0 0 -5.466 -5.604 0 0 1.424c0,0.811 -0.658,1.469 -1.47,1.469 -0.812,0 -1.47,-0.658 -1.47,-1.469l0 -1.424 -13.505 0 0 1.424c0,0.811 -0.658,1.469 -1.47,1.469 -0.812,0 -1.47,-0.658 -1.47,-1.469l0 -1.424 0 0z" p-id="2817"/>
  </g>
 </g>
</svg>
