<?xml version="1.0" encoding="UTF-8"?>
<svg width="40px" height="40px" viewBox="0 0 40 40" version="1.1" xmlns="http://www.w3.org/2000/svg" xmlns:xlink="http://www.w3.org/1999/xlink">
    <!-- Generator: Sketch 61 (89581) - https://sketch.com -->
    <title>薪酬查询</title>
    <desc>Created with Sketch.</desc>
    <g id="页面-1" stroke="none" stroke-width="1" fill="none" fill-rule="evenodd">
        <g id="新员工（We码）图标" transform="translate(-87.000000, -38.000000)">
            <g id="薪酬查询" transform="translate(87.000000, 38.000000)">
                <rect id="Mask" fill="#736FDC" x="0" y="0" width="40" height="40" rx="6.25"></rect>
                <path d="M20,6.875 C27.2487373,6.875 33.125,12.7512627 33.125,20 C33.125,27.2487373 27.2487373,33.125 20,33.125 C12.7512627,33.125 6.875,27.2487373 6.875,20 C6.875,12.7512627 12.7512627,6.875 20,6.875 Z M16.32125,15.509375 C15.933125,15.509375 15.71375,15.66125 15.71375,15.948125 L15.71375,16.791875 L13.0475,16.791875 C12.7775,16.791875 12.625625,16.994375 12.625625,17.28125 C12.625625,17.568125 12.7775,17.7875 13.0475,17.7875 L13.739375,17.7875 C13.9925,18.344375 14.195,18.935 14.346875,19.525625 L12.760625,19.525625 C12.490625,19.525625 12.33875,19.728125 12.33875,20.031875 C12.33875,20.31875 12.490625,20.538125 12.760625,20.538125 L15.68,20.538125 L15.68,21.8375 L12.7775,21.8375 C12.490625,21.8375 12.33875,22.056875 12.33875,22.34375 C12.33875,22.6475 12.490625,22.866875 12.7775,22.866875 L15.30875,22.866875 C14.465,24.115625 13.503125,25.060625 12.44,25.769375 C12.254375,25.904375 12.153125,26.09 12.153125,26.275625 C12.153125,26.39375 12.186875,26.52875 12.288125,26.646875 C12.389375,26.815625 12.558125,26.9 12.74375,26.9 C12.87875,26.9 13.030625,26.849375 13.165625,26.748125 C14.211875,25.955 15.10625,24.9425 15.84875,23.676875 C15.7475,24.09875 15.68,24.588125 15.68,25.01 L15.68,27.60875 C15.68,27.9125 15.899375,28.064375 16.25375,28.064375 C16.625,28.064375 16.86125,27.9125 16.86125,27.60875 L16.86125,24.97625 C16.86125,24.520625 16.79375,23.9975 16.6925,23.575625 C17.165,24.30125 17.789375,25.026875 18.41375,25.55 C18.54875,25.668125 18.68375,25.71875 18.801875,25.71875 C18.970625,25.71875 19.105625,25.634375 19.240625,25.465625 C19.325,25.3475 19.375625,25.229375 19.375625,25.094375 C19.375625,24.9425 19.29125,24.77375 19.08875,24.63875 C18.531875,24.23375 17.87375,23.643125 17.2325,22.866875 L19.679375,22.866875 C19.949375,22.866875 20.10125,22.6475 20.10125,22.34375 C20.10125,22.056875 19.949375,21.8375 19.679375,21.8375 L16.86125,21.8375 L16.86125,20.538125 L19.69625,20.538125 C19.96625,20.538125 20.118125,20.31875 20.118125,20.015 C20.118125,19.728125 19.96625,19.525625 19.69625,19.525625 L18.14375,19.525625 C18.430625,18.96875 18.666875,18.378125 18.869375,17.7875 L19.443125,17.7875 C19.713125,17.7875 19.865,17.568125 19.865,17.264375 C19.865,16.994375 19.713125,16.791875 19.443125,16.791875 L16.92875,16.791875 L16.92875,15.948125 C16.92875,15.66125 16.6925,15.509375 16.32125,15.509375 Z M26.5475,15.779375 C26.44625,15.779375 26.345,15.79625 26.226875,15.846875 C25.011875,16.319375 23.459375,16.64 21.940625,16.80875 C21.11375,16.893125 20.793125,17.34875 20.793125,18.29375 C20.793125,21.753125 20.658125,23.28875 20.30375,24.47 C20.016875,25.431875 19.5275,26.25875 19.004375,26.849375 C18.88625,27.00125 18.81875,27.17 18.81875,27.305 C18.81875,27.490625 18.903125,27.659375 19.055,27.7775 C19.19,27.87875 19.341875,27.929375 19.476875,27.929375 C19.679375,27.929375 19.865,27.845 20.016875,27.659375 C20.64125,26.950625 21.164375,25.92125 21.485,24.875 C21.755,23.946875 21.906875,22.88375 21.99125,21.044375 L24.505625,21.044375 L24.505625,27.575 C24.505625,27.895625 24.741875,28.064375 25.13,28.064375 C25.535,28.064375 25.77125,27.895625 25.77125,27.575 L25.77125,21.044375 L27.340625,21.044375 C27.6275,21.044375 27.79625,20.825 27.79625,20.4875 C27.79625,20.166875 27.6275,19.930625 27.340625,19.930625 L22.008125,19.930625 C22.025,19.50875 22.025,19.03625 22.025,18.53 C22.025,18.040625 22.16,17.88875 22.548125,17.855 C23.898125,17.72 25.416875,17.433125 26.75,16.960625 C27.02,16.87625 27.138125,16.690625 27.138125,16.47125 C27.138125,16.353125 27.104375,16.235 27.036875,16.116875 C26.935625,15.880625 26.75,15.779375 26.5475,15.779375 Z M17.688125,17.7875 C17.519375,18.395 17.283125,18.96875 16.99625,19.525625 L15.494375,19.525625 C15.325625,18.935 15.123125,18.36125 14.886875,17.7875 L17.688125,17.7875 Z M22.581875,12.185 C22.210625,12.185 21.974375,12.336875 21.974375,12.674375 L21.974375,13.4675 L18.059375,13.4675 L18.059375,12.674375 C18.059375,12.336875 17.87375,12.185 17.451875,12.185 C17.080625,12.185 16.844375,12.336875 16.844375,12.674375 L16.844375,13.4675 L12.74375,13.4675 C12.456875,13.4675 12.288125,13.686875 12.288125,14.04125 C12.288125,14.395625 12.456875,14.598125 12.74375,14.598125 L16.844375,14.598125 L16.844375,15.273125 C16.844375,15.6275 17.080625,15.779375 17.451875,15.779375 C17.87375,15.779375 18.059375,15.6275 18.059375,15.273125 L18.059375,14.598125 L21.974375,14.598125 L21.974375,15.52625 C21.974375,15.86375 22.210625,16.015625 22.581875,16.015625 C22.986875,16.015625 23.189375,15.86375 23.189375,15.52625 L23.189375,14.598125 L27.2225,14.598125 C27.509375,14.598125 27.678125,14.37875 27.678125,14.04125 C27.678125,13.686875 27.509375,13.4675 27.2225,13.4675 L23.189375,13.4675 L23.189375,12.674375 C23.189375,12.336875 22.986875,12.185 22.581875,12.185 Z" id="形状结合" fill="#FFFFFF" fill-rule="nonzero"></path>
            </g>
        </g>
    </g>
</svg>