<?xml version="1.0" encoding="UTF-8"?>
<svg width="40px" height="40px" viewBox="0 0 40 40" version="1.1" xmlns="http://www.w3.org/2000/svg" xmlns:xlink="http://www.w3.org/1999/xlink">
    <!-- Generator: Sketch 61 (89581) - https://sketch.com -->
    <title>服务热线</title>
    <desc>Created with Sketch.</desc>
    <g id="页面-1" stroke="none" stroke-width="1" fill="none" fill-rule="evenodd">
        <g id="新员工（We码）图标" transform="translate(-183.000000, -38.000000)">
            <g id="服务热线" transform="translate(183.000000, 38.000000)">
                <rect id="Rectangle-10-Copy-5" fill="#33CC66" x="0" y="0" width="40" height="40" rx="6.25"></rect>
                <path d="M12.9663864,7.11111111 C13.607599,7.11111111 14.166454,7.52472727 14.3923491,8.16448485 L16.5454115,14.3031111 C16.7877781,14.995596 16.5301165,15.7771313 15.9206704,16.2024646 C15.5300602,16.4754747 15.1018008,16.6875556 14.646481,16.8316768 C14.4711771,16.8867475 14.3241099,17.0179798 14.2429289,17.1913939 C14.1570417,17.3706667 14.148806,17.5780606 14.2193982,17.7596768 C15.3041651,20.5495354 16.945434,22.9855354 19.0984965,25.0032323 C19.3808653,25.2680404 19.8855996,25.2235152 20.1138478,24.9106667 C20.3985697,24.5216566 20.7374123,24.1771717 21.1209633,23.890101 C21.6892306,23.4647677 22.5269248,23.4858586 23.0551899,23.9463434 L27.8778144,28.1446061 C28.3990202,28.5980606 28.5860896,29.3292121 28.3319576,29.922101 C27.5589729,31.724202 25.8318168,32.8888889 23.9293567,32.8888889 C23.250495,32.8888889 22.5916344,32.7424242 21.9692464,32.4518384 C14.3558764,28.7808485 9.18029086,21.1400808 8.45789724,12.5080404 C8.36377429,11.1125253 8.76497335,9.84121212 9.61678603,8.82181818 C10.445068,7.83054545 11.5886618,7.22828283 12.8440266,7.11931313 L12.9663864,7.11111111 Z M27.6445056,8.69876352 C27.6677835,8.70773947 27.6915965,8.71657539 27.7153536,8.72560232 C27.7667491,8.74469588 27.8175779,8.76503362 27.8681193,8.78624871 C27.9892745,8.83739862 28.1084103,8.89305354 28.2256124,8.95374925 C28.2451669,8.96371272 28.2647421,8.97402689 28.284261,8.98448172 L28.3186496,9.00321428 C28.4879806,9.09552268 28.6530957,9.19871234 28.8128863,9.31258211 L28.9227385,9.39320588 C28.9740014,9.43191073 29.0247439,9.47182304 29.0748611,9.51287336 C29.2031052,9.61812971 29.3236695,9.727277 29.4398585,9.84346604 C29.6141421,10.0177496 29.7725817,10.2018774 29.9151773,10.3940594 C29.994123,10.500747 30.064299,10.603684 30.1301466,10.7085851 C30.1705996,10.7731399 30.2097205,10.8388753 30.247173,10.9052971 C31.3169274,12.8015967 31.0336552,15.2626035 29.4046429,16.8916158 C29.1317103,17.1645484 28.7807017,17.3995742 28.3772854,17.6005233 L28.2903458,17.6415429 C27.8791878,17.8623681 27.4431952,18.020382 26.9964958,18.1155847 C24.5091065,18.8098161 21.3332306,18.7074009 20.9545772,18.3287474 C20.5758732,17.9500434 20.4734811,14.7733704 21.1677319,12.2856281 C21.2631862,11.8394572 21.4211267,11.4038198 21.6417817,10.9929788 L21.6828012,10.9060392 C21.8837504,10.5026229 22.1187762,10.1516143 22.3917088,9.87868164 C23.8175147,8.45287573 25.8806921,8.05800958 27.6445056,8.69876352 Z M24.4574653,11.7777778 C23.9435738,11.7777778 23.5850705,11.9583315 23.3819444,12.3194444 C23.2902773,12.4833342 23.2336109,12.6855548 23.2119444,12.9261106 L23.2022569,13.1137153 L23.6788194,13.1137153 C23.6857639,12.8828113 23.7222219,12.7022576 23.7881944,12.5720486 C23.9114589,12.3289918 24.1336789,12.2074653 24.4548611,12.2074653 C24.6718761,12.2074653 24.8454855,12.2712667 24.9756944,12.3988715 C25.1059034,12.5264763 25.1710069,12.6987836 25.1710069,12.9157986 C25.1710069,13.1015634 25.0998271,13.2664923 24.9574653,13.4105903 C24.8852427,13.4842018 24.7702436,13.5700345 24.6124657,13.6680901 L24.4861111,13.7439236 L23.9861111,14.0329861 C23.65104,14.2274315 23.4257818,14.4435752 23.3103299,14.6814236 C23.2179683,14.8717023 23.1569964,15.0886452 23.1274132,15.3322564 L23.1111111,15.5199653 L25.6710069,15.5199653 L25.6710069,15.0772569 L23.6345486,15.0772569 C23.6796877,14.8932282 23.7890616,14.7256952 23.9626736,14.5746528 C24.0355906,14.5108504 24.1290145,14.4446073 24.2429468,14.3759224 L24.3637153,14.3064236 L24.7204861,14.1085069 C25.0347238,13.9331588 25.2526036,13.7838548 25.3741319,13.6605903 C25.5842024,13.4487837 25.6892361,13.1935779 25.6892361,12.8949653 C25.6892361,12.6119778 25.5907128,12.3550359 25.3936632,12.1241319 C25.1966136,11.893228 24.8845507,11.7777778 24.4574653,11.7777778 Z M28.1501736,11.7803819 L27.7543403,11.7803819 L26.0460069,14.1501736 L26.0460069,14.6085069 L27.6814236,14.6085069 L27.6814236,15.5199653 L28.1501736,15.5199653 L28.1501736,14.6085069 L28.6996528,14.6085069 L28.6996528,14.1996528 L28.1501736,14.1996528 L28.1501736,11.7803819 Z M27.6736111,12.5095486 L27.6736111,14.1996528 L26.4782986,14.1996528 L27.6736111,12.5095486 Z" id="形状结合" fill="#FFFFFF"></path>
            </g>
        </g>
    </g>
</svg>