<?xml version="1.0" encoding="UTF-8"?>
<!DOCTYPE svg PUBLIC "-//W3C//DTD SVG 1.1//EN" "http://www.w3.org/Graphics/SVG/1.1/DTD/svg11.dtd">
<!-- Creator: CorelDRAW Standard 2021 (64-Bit 评估版) -->
<svg xmlns="http://www.w3.org/2000/svg" xml:space="preserve" width="39px" height="40px" version="1.1" style="shape-rendering:geometricPrecision; text-rendering:geometricPrecision; image-rendering:optimizeQuality; fill-rule:evenodd; clip-rule:evenodd"
viewBox="0 0 39 40.472"
 xmlns:xlink="http://www.w3.org/1999/xlink"
 xmlns:xodm="http://www.corel.com/coreldraw/odm/2003">
 <defs>
  <style type="text/css">
   <![CDATA[
    .fil0 {fill:#15BC84;fill-rule:nonzero}
    .fil1 {fill:white;fill-rule:nonzero}
   ]]>
  </style>
 </defs>
 <g id="图层_x0020_1">
  <metadata id="CorelCorpID_0Corel-Layer"/>
  <g id="一卡通.svg">
   <path class="fil0" d="M0.102 1.406m8.344 0l22.251 0c5.563,0 8.344,2.781 8.344,8.344l0 22.251c0,5.563 -2.781,8.344 -8.344,8.344l-22.251 0c-5.562,0 -8.344,-2.781 -8.344,-8.344l0 -22.251c0,-5.563 2.782,-8.344 8.344,-8.344z" p-id="6100"/>
   <path class="fil1" d="M29.946 19.724l0 5.8c0,1.517 -1.353,2.751 -3.016,2.751l-14.716 0c-1.663,0 -3.016,-1.234 -3.016,-2.751l0 0 0 -5.8 20.748 0zm-3.913 4.311l-4.316 0c-0.431,0 -0.782,0.335 -0.782,0.748 0,0.414 0.351,0.75 0.782,0.75l4.316 0c0.432,0 0.782,-0.336 0.782,-0.75 0,-0.413 -0.35,-0.748 -0.782,-0.748zm0.897 -10.559c1.662,0 3.015,1.174 3.015,2.615l0 1.38 -20.748 0 0 -1.379c0,-1.442 1.354,-2.616 3.017,-2.616l14.716 0z" p-id="6101"/>
  </g>
 </g>
</svg>
