<?xml version="1.0" encoding="UTF-8"?>
<!DOCTYPE svg PUBLIC "-//W3C//DTD SVG 1.1//EN" "http://www.w3.org/Graphics/SVG/1.1/DTD/svg11.dtd">
<!-- Creator: CorelDRAW Standard 2021 (64-Bit 评估版) -->
<svg xmlns="http://www.w3.org/2000/svg" xml:space="preserve" width="40px" height="40px" version="1.1" style="shape-rendering:geometricPrecision; text-rendering:geometricPrecision; image-rendering:optimizeQuality; fill-rule:evenodd; clip-rule:evenodd"
viewBox="0 0 40 40"
 xmlns:xlink="http://www.w3.org/1999/xlink"
 xmlns:xodm="http://www.corel.com/coreldraw/odm/2003">
 <defs>
  <style type="text/css">
   <![CDATA[
    .fil0 {fill:#A1BCFF;fill-rule:nonzero}
   ]]>
  </style>
 </defs>
 <g id="图层_x0020_1">
  <metadata id="CorelCorpID_0Corel-Layer"/>
  <g id="申请勤工俭学.svg">
   <path class="fil0" d="M32.96 0.515c3.006,0 5.448,2.429 5.448,5.421l0 24.628c0,2.991 -2.442,5.422 -5.448,5.422l-13.339 0 0 3.739c0,0.934 -0.752,1.495 -1.503,1.495 -0.376,0 -0.564,-0.188 -0.939,-0.374l-5.449 -5.048 -5.448 0c-3.006,0 -5.448,-2.43 -5.448,-5.42l0 -24.442c0,-2.99 2.442,-5.421 5.448,-5.421l26.678 0zm-9.433 7.828l-7.842 0c-0.864,0 -1.565,0.701 -1.565,1.565 0,0.157 0.024,0.312 0.07,0.462l1.476 4.786 -3.42 9.282c-0.064,0.174 -0.097,0.357 -0.097,0.541 0,0.556 0.294,1.069 0.773,1.35l5.907 3.467c0.24,0.141 0.513,0.215 0.792,0.215 0.278,0 0.552,-0.074 0.792,-0.215l5.907 -3.467c0.479,-0.281 0.773,-0.794 0.773,-1.35 0,-0.184 -0.033,-0.367 -0.097,-0.541l-3.42 -9.284 1.449 -4.793c0.044,-0.147 0.067,-0.3 0.067,-0.453 0,-0.864 -0.701,-1.565 -1.565,-1.565zm-3.203 9.686l0 3.778 1.648 0 0 -5.796 1.672 0 3.326 8.994 -7.349 3.426 -5.851 -3.426 3.324 -8.994 1.732 0 1.498 2.018z" p-id="2367"/>
  </g>
 </g>
</svg>
