<?xml version="1.0" encoding="UTF-8"?>
<svg width="40px" height="40px" viewBox="0 0 40 40" version="1.1" xmlns="http://www.w3.org/2000/svg" xmlns:xlink="http://www.w3.org/1999/xlink">
    <!-- Generator: Sketch 61 (89581) - https://sketch.com -->
    <title>落户</title>
    <desc>Created with Sketch.</desc>
    <defs>
        <linearGradient x1="50%" y1="1.39541185%" x2="50%" y2="100%" id="linearGradient-1">
            <stop stop-color="#F57900" offset="0%"></stop>
            <stop stop-color="#FC8E06" offset="100%"></stop>
        </linearGradient>
    </defs>
    <g id="页面-1" stroke="none" stroke-width="1" fill="none" fill-rule="evenodd">
        <g id="新员工（We码）图标" transform="translate(-196.000000, -197.000000)">
            <g id="落户" transform="translate(196.000000, 197.000000)">
                <rect id="Rectangle" fill="url(#linearGradient-1)" x="0" y="0" width="40" height="40" rx="6.25"></rect>
                <path d="M21.25,9.0625 L32.1875,19.375 C32.4804341,19.5184213 32.5760178,19.9217189 32.5,20.3125 C32.2977703,20.6320519 31.9525271,20.8661051 31.5625,20.9375 L30.625,20.9375 L30.625,29.0625 C30.4700558,29.5538758 30.2251762,30.1405455 29.6875,30.625 C29.352367,31.0060774 28.7601855,31.2494896 28.125,31.25 L11.875,31.25 C11.2358643,31.2494896 10.6436828,31.0060774 10.3125,30.625 C9.77087366,30.1405455 9.525994,29.5538758 9.375,29.0625 L9.375,20.9375 L8.4375,20.9375 C8.04573,20.8625148 7.70213336,20.6288107 7.5,20.3125 C7.42443914,19.9208828 7.5186609,19.5188537 7.8125,19.375 L18.75,9.0625 C19.5196016,8.60848793 20.4761241,8.60848793 21.25,9.0625 Z M16.875,23.125 C16.5136244,22.7130861 15.9317832,22.7499677 15.625,23.125 L15.3125,23.4375 C14.9383843,23.8318598 14.6909523,24.497264 14.6875,25.3125 L14.6875,26.25 C14.7247074,27.0064044 15.3178489,27.5302748 15.9375,27.5 L24.0625,27.5 C24.6822824,27.5306319 25.2756437,27.0065675 25.3125,26.25 L25.3125,25.3125 C25.3081731,24.4422588 25.0202805,23.7277041 24.375,23.125 L24.375,23.125 L24.375,23.125 C23.948384,22.7297464 23.306744,22.7571658 22.8125,23.125 L22.8125,23.125 C22.7790106,23.2544961 22.7283606,23.302648 22.8125,23.4375 C21.8972425,23.8930865 20.9611966,24.1854054 20,24.0625 C18.8630489,24.1908687 17.7628721,23.7755689 16.875,23.125 L16.875,23.125 Z M20,16.5625 C18.2738832,16.5625 16.875,17.812955 16.875,19.375 L16.875,20.3125 C16.875,21.8758188 18.2754952,23.1256368 20,23.125 C21.7290184,23.1243627 23.1243552,21.8748633 23.125,20.3125 L23.125,19.375 C23.125,17.812955 21.7261168,16.5625 20,16.5625 L20,16.5625 Z" id="形状" fill="#FFFFFF" fill-rule="nonzero"></path>
            </g>
        </g>
    </g>
</svg>