<?xml version="1.0" encoding="UTF-8"?>
<svg width="40px" height="40px" viewBox="0 0 40 40" version="1.1" xmlns="http://www.w3.org/2000/svg" xmlns:xlink="http://www.w3.org/1999/xlink">
    <!-- Generator: Sketch 61 (89581) - https://sketch.com -->
    <title>社保</title>
    <desc>Created with Sketch.</desc>
    <g id="页面-1" stroke="none" stroke-width="1" fill="none" fill-rule="evenodd">
        <g id="新员工（We码）图标" transform="translate(-42.000000, -197.000000)">
            <g id="社保" transform="translate(42.000000, 197.000000)">
                <rect id="Rectangle" fill="#33CC66" fill-rule="nonzero" x="0" y="0" width="40" height="40" rx="6.25"></rect>
                <path d="M27.65,8.75 C29.2791667,8.75 30.625,10.0706776 30.625,11.6693925 L30.625,11.6693925 L30.625,20.9141355 C30.4833333,26.6139019 25.8083333,31.0625 20,31.0625 C14.1916667,31.0625 9.51666665,26.5443925 9.375,20.8446262 L9.375,20.8446262 L9.375,11.5303738 C9.375,9.93165886 10.7208333,8.75 12.35,8.75 L12.35,8.75 Z M25.6774195,15.364653 C25.4568416,15.0991475 25.0627931,15.0627264 24.7972875,15.2833043 L24.7972875,15.2833043 L18.8056467,20.2610668 C17.6673679,19.5471226 16.529089,18.8331785 15.3908101,18.1192343 C15.1750018,17.9838764 14.8986378,17.9930427 14.6922728,18.1424029 C14.4126494,18.3447851 14.3500331,18.7355279 14.5524154,19.0151513 L14.5524154,19.0151513 L18.3203307,24.2211276 C18.35426,24.2680064 18.3945355,24.3099459 18.4400031,24.3457441 C18.7112092,24.5592742 19.1041655,24.5125187 19.3176956,24.2413126 L19.3176956,24.2413126 L25.6877411,16.1506752 C25.8701245,15.9190288 25.8658227,15.5914304 25.6774195,15.364653 Z" id="形状结合" fill="#FFFFFF"></path>
            </g>
        </g>
    </g>
</svg>