<?xml version="1.0" encoding="UTF-8"?>
<!DOCTYPE svg PUBLIC "-//W3C//DTD SVG 1.1//EN" "http://www.w3.org/Graphics/SVG/1.1/DTD/svg11.dtd">
<!-- Creator: CorelDRAW Standard 2021 (64-Bit 评估版) -->
<svg xmlns="http://www.w3.org/2000/svg" xml:space="preserve" width="40px" height="40px" version="1.1" style="shape-rendering:geometricPrecision; text-rendering:geometricPrecision; image-rendering:optimizeQuality; fill-rule:evenodd; clip-rule:evenodd"
viewBox="0 0 40 40"
 xmlns:xlink="http://www.w3.org/1999/xlink"
 xmlns:xodm="http://www.corel.com/coreldraw/odm/2003">
 <defs>
  <style type="text/css">
   <![CDATA[
    .fil14 {fill:#222222;fill-rule:nonzero}
    .fil13 {fill:#22B4FF;fill-rule:nonzero}
    .fil17 {fill:#358AFE;fill-rule:nonzero}
    .fil5 {fill:#79F2EF;fill-rule:nonzero}
    .fil16 {fill:#87FFFE;fill-rule:nonzero}
    .fil11 {fill:#97D5FF;fill-rule:nonzero}
    .fil8 {fill:#A657FF;fill-rule:nonzero}
    .fil1 {fill:#ACD598;fill-rule:nonzero}
    .fil10 {fill:#B4DB61;fill-rule:nonzero}
    .fil12 {fill:#D2FFAE;fill-rule:nonzero}
    .fil7 {fill:#D3D462;fill-rule:nonzero}
    .fil4 {fill:#F9C0C8;fill-rule:nonzero}
    .fil6 {fill:#F9C898;fill-rule:nonzero}
    .fil19 {fill:#FF1834;fill-rule:nonzero}
    .fil9 {fill:#FF455C;fill-rule:nonzero}
    .fil0 {fill:#FF824E;fill-rule:nonzero}
    .fil3 {fill:#FF8A8A;fill-rule:nonzero}
    .fil18 {fill:#FFDF00;fill-rule:nonzero}
    .fil2 {fill:#FFF100;fill-rule:nonzero}
    .fil15 {fill:white;fill-rule:nonzero}
   ]]>
  </style>
 </defs>
 <g id="图层_x0020_1">
  <metadata id="CorelCorpID_0Corel-Layer"/>
  <g id="请假.svg">
   <path class="fil0" d="M41.381 0.044c-0.019,0 -0.033,0 -0.053,-0.01l-1.922 -0.548c-0.101,-0.029 -0.164,-0.135 -0.135,-0.236 0.029,-0.101 0.135,-0.163 0.236,-0.134l1.922 0.548c0.101,0.029 0.164,0.134 0.135,0.235 -0.024,0.087 -0.101,0.145 -0.183,0.145z" p-id="10448"/>
   <path class="fil0" d="M40.146 0.731c-0.019,0 -0.034,0 -0.053,-0.01 -0.101,-0.029 -0.163,-0.134 -0.135,-0.235l0.548 -1.923c0.029,-0.101 0.135,-0.164 0.236,-0.135 0.101,0.029 0.163,0.135 0.135,0.236l-0.548 1.923c-0.024,0.086 -0.101,0.144 -0.183,0.144z" p-id="10449"/>
   <path class="fil1" d="M15.769 39.298c-0.034,0 -0.067,-0.009 -0.096,-0.024l-1.01 -0.581c-0.091,-0.053 -0.125,-0.173 -0.072,-0.265 0.053,-0.091 0.173,-0.125 0.265,-0.072l1.009 0.582c0.091,0.053 0.125,0.173 0.072,0.264 -0.033,0.063 -0.101,0.096 -0.168,0.096l0 0z" p-id="10450"/>
   <path class="fil1" d="M14.976 39.51c-0.034,0 -0.067,-0.01 -0.096,-0.024 -0.092,-0.053 -0.125,-0.168 -0.072,-0.265l0.581 -1.009c0.053,-0.091 0.169,-0.125 0.265,-0.072 0.091,0.053 0.125,0.168 0.072,0.264l-0.582 1.01c-0.038,0.062 -0.101,0.096 -0.168,0.096l0 0z" p-id="10451"/>
   <path class="fil2" d="M1.819 41.904c-0.092,0 -0.173,-0.067 -0.188,-0.164 -0.019,-0.105 0.053,-0.201 0.159,-0.221l1.442 -0.235c0.106,-0.02 0.202,0.053 0.221,0.158 0.019,0.106 -0.053,0.202 -0.158,0.221l-1.443 0.236c-0.014,0.005 -0.024,0.005 -0.033,0.005z" p-id="10452"/>
   <path class="fil2" d="M2.66 42.505c-0.091,0 -0.173,-0.068 -0.187,-0.164l-0.236 -1.442c-0.019,-0.106 0.053,-0.202 0.159,-0.221 0.105,-0.019 0.202,0.053 0.221,0.159l0.235 1.442c0.02,0.105 -0.052,0.202 -0.158,0.221 -0.015,0.005 -0.024,0.005 -0.034,0.005z" p-id="10453"/>
   <path class="fil3" d="M39.713 13.35c-0.293,0 -0.528,-0.236 -0.528,-0.529 0,-0.293 0.235,-0.529 0.528,-0.529 0.294,0 0.529,0.236 0.529,0.529 0,0.293 -0.235,0.529 -0.529,0.529zm0 -0.837c-0.168,0 -0.307,0.135 -0.307,0.308 0,0.173 0.134,0.307 0.307,0.307 0.173,0 0.308,-0.134 0.308,-0.307 0,-0.173 -0.14,-0.308 -0.308,-0.308z" p-id="10454"/>
   <path class="fil4" d="M19.86 41.615c-0.317,0 -0.577,-0.259 -0.577,-0.576 0,-0.318 0.26,-0.577 0.577,-0.577 0.317,0 0.577,0.259 0.577,0.577 0,0.317 -0.26,0.576 -0.577,0.576zm0 -0.923c-0.192,0 -0.346,0.154 -0.346,0.347 0,0.192 0.154,0.346 0.346,0.346 0.192,0 0.346,-0.154 0.346,-0.346 0,-0.193 -0.154,-0.347 -0.346,-0.347z" p-id="10455"/>
   <path class="fil5" d="M-2.541 37.025c-0.385,0 -0.697,-0.313 -0.697,-0.697 0,-0.385 0.312,-0.697 0.697,-0.697 0.384,0 0.697,0.312 0.697,0.697 0,0.384 -0.313,0.697 -0.697,0.697zm0 -1.116c-0.231,0 -0.418,0.188 -0.418,0.419 0,0.23 0.187,0.418 0.418,0.418 0.231,0 0.418,-0.188 0.418,-0.418 0,-0.231 -0.187,-0.419 -0.418,-0.419z" p-id="10456"/>
   <path class="fil6" d="M8.083 39.693c-0.424,0 -0.77,-0.347 -0.77,-0.77 0,-0.423 0.347,-0.769 0.77,-0.769 0.422,0 0.769,0.346 0.769,0.769 0,0.423 -0.347,0.77 -0.769,0.77zm0 -1.284c-0.284,0 -0.515,0.231 -0.515,0.514 0,0.284 0.231,0.515 0.515,0.515 0.283,0 0.514,-0.231 0.514,-0.515 0,-0.283 -0.231,-0.514 -0.514,-0.514z" p-id="10457"/>
   <path class="fil7" d="M15.558 -0.807m-0.385 0c0,0.212 0.172,0.384 0.385,0.384 0.212,0 0.384,-0.172 0.384,-0.384 0,-0.213 -0.172,-0.385 -0.384,-0.385 -0.213,0 -0.385,0.172 -0.385,0.385l0 0z" p-id="10458"/>
   <path class="fil8" d="M12.048 42.409m-0.408 0c0,0.225 0.183,0.408 0.408,0.408 0.226,0 0.409,-0.183 0.409,-0.409 0,-0.225 -0.183,-0.408 -0.409,-0.408 -0.225,0 -0.408,0.183 -0.408,0.408l0 0.001z" p-id="10459"/>
   <path class="fil9" d="M34.642 14.335m-0.337 0c0,0.186 0.151,0.337 0.337,0.337 0.186,0 0.336,-0.151 0.336,-0.337 0,-0.186 -0.15,-0.336 -0.336,-0.336 -0.186,0 -0.337,0.15 -0.337,0.336z" p-id="10460"/>
   <path class="fil8" d="M34.618 1.62m-0.337 0c0,0.186 0.151,0.337 0.337,0.337 0.186,0 0.336,-0.151 0.336,-0.337 0,-0.186 -0.15,-0.336 -0.336,-0.336 -0.186,0 -0.337,0.15 -0.337,0.336l0 0z" p-id="10461"/>
   <path class="fil10" d="M41.876 7.245m-0.288 0c0,0.159 0.129,0.288 0.288,0.288 0.16,0 0.289,-0.129 0.289,-0.288 0,-0.16 -0.129,-0.289 -0.289,-0.289 -0.159,0 -0.288,0.129 -0.288,0.289z" p-id="10462"/>
   <path class="fil11" d="M36.156 8.783c-0.423,0 -0.769,-0.346 -0.769,-0.769 0,-0.423 0.346,-0.769 0.769,-0.769 0.423,0 0.769,0.346 0.769,0.769 0,0.423 -0.346,0.769 -0.769,0.769zm0 -1.284c-0.284,0 -0.514,0.231 -0.514,0.515 0,0.283 0.23,0.514 0.514,0.514 0.284,0 0.514,-0.231 0.514,-0.514 0,-0.284 -0.23,-0.515 -0.514,-0.515z" p-id="10463"/>
   <path class="fil12" d="M41.973 17.82m-0.385 0c0,0.213 0.172,0.385 0.385,0.385 0.212,0 0.384,-0.172 0.384,-0.385 0,-0.212 -0.172,-0.384 -0.384,-0.384 -0.213,0 -0.385,0.172 -0.385,0.384z" p-id="10464"/>
   <path class="fil13" d="M3.227 2.726l27.689 0c0.529,0 0.962,0.433 0.962,0.961l0 31.006c0,0.529 -0.433,0.962 -0.962,0.962l-27.689 0c-0.528,0 -0.961,-0.433 -0.961,-0.962l0 -31.006c0,-0.528 0.433,-0.961 0.961,-0.961z" p-id="10465"/>
   <path class="fil14" d="M30.964 36.568l-3.927 0c-0.264,0 -0.481,-0.216 -0.481,-0.481 0,-0.264 0.216,-0.481 0.481,-0.481l3.927 0.001 0 -32.881 -29.611 0 0 8.364c0,0.265 -0.217,0.481 -0.481,0.481 -0.265,0 -0.481,-0.216 -0.481,-0.481l0 -8.364c0,-0.529 0.433,-0.962 0.961,-0.962l29.612 0c0.529,0 0.962,0.433 0.962,0.962l0 32.881c0,0.528 -0.433,0.961 -0.962,0.961zm-11.984 0l-17.627 0c-0.529,0 -0.962,-0.433 -0.962,-0.961l0 -18.604c0,-0.264 0.216,-0.481 0.481,-0.481 0.264,0 0.481,0.217 0.481,0.481l0 18.604 17.627 0c0.265,0 0.481,0.216 0.481,0.48 0,0.265 -0.216,0.481 -0.481,0.481l0 0z" p-id="10466"/>
   <path class="fil14" d="M0.824 14.119m-0.769 0c0,0.424 0.344,0.769 0.769,0.769 0.425,0 0.769,-0.345 0.769,-0.769 0,-0.425 -0.344,-0.769 -0.769,-0.769 -0.425,0 -0.769,0.344 -0.769,0.769l0 0z" p-id="10467"/>
   <path class="fil15" d="M6.688 -0.831l1.635 0c0.529,0 0.961,0.432 0.961,0.961l0 3.269c0,0.529 -0.432,0.961 -0.961,0.961l-1.635 0c-0.528,0 -0.961,-0.428 -0.961,-0.961l0 -3.269c0,-0.529 0.428,-0.961 0.961,-0.961l0 0zm16.825 0l1.635 0c0.528,0 0.961,0.427 0.961,0.961l0 3.269c0,0.529 -0.428,0.961 -0.961,0.961l-1.635 0c-0.528,0 -0.961,-0.428 -0.961,-0.961l0 -3.269c0,-0.529 0.428,-0.961 0.961,-0.961l0 0z" p-id="10468"/>
   <path class="fil16" d="M8.083 -0.831l1.153 0c0.529,0 0.962,0.432 0.962,0.961l0 3.269c0,0.529 -0.433,0.961 -0.962,0.961l-1.153 0c-0.529,0 -0.962,-0.428 -0.962,-0.961l0 -3.269c0,-0.529 0.428,-0.961 0.961,-0.961l0.001 0zm16.824 0l1.154 0c0.529,0 0.962,0.427 0.962,0.961l0 3.269c0,0.529 -0.428,0.961 -0.962,0.961l-1.154 0c-0.528,0 -0.961,-0.428 -0.961,-0.961l0 -3.269c0,-0.529 0.428,-0.961 0.961,-0.961l0 0z" p-id="10469"/>
   <path class="fil14" d="M23.513 4.841c-0.384,0 -0.745,-0.149 -1.019,-0.423 -0.274,-0.274 -0.423,-0.635 -0.423,-1.019l0 -3.269c0,-0.793 0.644,-1.442 1.442,-1.442l2.115 0c0.385,0 0.746,0.149 1.02,0.423 0.274,0.274 0.423,0.634 0.423,1.019l0 3.269c0,0.793 -0.645,1.442 -1.443,1.442l-2.115 0zm0 -5.192c-0.264,0 -0.48,0.217 -0.48,0.481l0 3.269c0,0.13 0.048,0.25 0.139,0.341 0.091,0.092 0.212,0.14 0.341,0.14l2.115 0c0.265,0 0.481,-0.217 0.481,-0.481l0 -3.269c0,-0.13 -0.048,-0.25 -0.139,-0.341 -0.092,-0.092 -0.212,-0.14 -0.342,-0.14l-2.115 0zm-16.825 5.192c-0.384,0 -0.745,-0.149 -1.019,-0.423 -0.274,-0.274 -0.423,-0.635 -0.423,-1.019l0 -3.269c0,-0.385 0.149,-0.745 0.423,-1.019 0.274,-0.274 0.635,-0.423 1.019,-0.423l2.116 0c0.793,0 1.442,0.649 1.442,1.442l0 3.269c0,0.793 -0.649,1.442 -1.442,1.442l-2.116 0zm0 -5.192c-0.129,0 -0.25,0.048 -0.341,0.14 -0.091,0.091 -0.139,0.211 -0.139,0.341l0 3.269c0,0.13 0.048,0.25 0.139,0.341 0.091,0.092 0.212,0.14 0.341,0.14l2.116 0c0.264,0 0.48,-0.217 0.48,-0.481l0 -3.269c0,-0.264 -0.216,-0.481 -0.48,-0.481l-2.116 0z" p-id="10470"/>
   <g>
    <path class="fil17" d="M0.487 7.869l30.622 0 -30.622 0zm0 0l0 0 0 0z" p-id="10471"/>
   </g>
   <polygon class="fil14" points="0.487,7.389 31.109,7.389 31.109,8.35 0.487,8.35 " p-id="10472"/>
   <path class="fil15" d="M5.458 12.455l21.401 0c0.106,0 0.192,0.087 0.192,0.193l0 18.613c0,0.106 -0.086,0.192 -0.192,0.192l-21.401 0c-0.106,0 -0.193,-0.086 -0.193,-0.192l0 -18.613c0,-0.106 0.087,-0.193 0.193,-0.193z" p-id="10473"/>
   <path class="fil14" d="M26.859 31.934l-21.401 0c-0.37,0 -0.673,-0.303 -0.673,-0.673l0 -18.613c0,-0.37 0.303,-0.673 0.673,-0.673l21.401 0c0.37,0 0.673,0.303 0.673,0.673l0 18.613c0,0.37 -0.303,0.673 -0.673,0.673zm-21.113 -0.962l20.825 0 0 -18.036 -20.825 0 0 18.036z" p-id="10474"/>
   <g>
    <path class="fil15" d="M5.265 17.157l21.844 0 -21.844 0zm0 0l0 0 0 0z" p-id="10475"/>
   </g>
   <path class="fil14" d="M27.109 17.637l-21.844 0c-0.264,0 -0.48,-0.216 -0.48,-0.48 0,-0.265 0.216,-0.481 0.48,-0.481l21.844 0c0.264,0 0.481,0.216 0.481,0.481 0,0.264 -0.212,0.481 -0.481,0.481l0 -0.001z" p-id="10476"/>
   <g>
    <path class="fil15" d="M5.265 22.147l21.844 0 -21.844 0zm0 0l0 0 0 0z" p-id="10477"/>
   </g>
   <path class="fil14" d="M27.109 22.627l-21.844 0c-0.264,0 -0.48,-0.216 -0.48,-0.48 0,-0.265 0.216,-0.481 0.48,-0.481l21.844 0c0.264,0 0.481,0.216 0.481,0.481 0,0.264 -0.212,0.48 -0.481,0.48l0 0z" p-id="10478"/>
   <g>
    <path class="fil15" d="M5.265 27.141l21.844 0 -21.844 0zm0 0l0 0 0 0z" p-id="10479"/>
   </g>
   <path class="fil14" d="M27.109 27.622l-21.844 0c-0.264,0 -0.48,-0.216 -0.48,-0.481 0,-0.264 0.216,-0.481 0.48,-0.481l21.844 0c0.264,0 0.481,0.217 0.481,0.481 0,0.265 -0.212,0.481 -0.481,0.481l0 0z" p-id="10480"/>
   <g>
    <path class="fil15" d="M10.755 12.773l0 18.459 0 -18.459zm0 0l0 0 0 0z" p-id="10481"/>
   </g>
   <path class="fil14" d="M10.755 31.713c-0.264,0 -0.48,-0.217 -0.48,-0.481l0 -18.459c0,-0.265 0.216,-0.481 0.48,-0.481 0.265,0 0.481,0.216 0.481,0.481l0 18.459c0,0.264 -0.216,0.481 -0.481,0.481l0 0z" p-id="10482"/>
   <g>
    <path class="fil15" d="M16.351 12.773l0 18.459 0 -18.459zm0 0l0 0 0 0z" p-id="10483"/>
   </g>
   <path class="fil14" d="M16.351 31.713c-0.265,0 -0.481,-0.217 -0.481,-0.481l0 -18.459c0,-0.265 0.216,-0.481 0.481,-0.481 0.264,0 0.48,0.216 0.48,0.481l0 18.459c0,0.264 -0.216,0.481 -0.48,0.481l0 0z" p-id="10484"/>
   <g>
    <path class="fil15" d="M21.816 12.773l0 18.459 0 -18.459zm0 0l0 0 0 0z" p-id="10485"/>
   </g>
   <path class="fil14" d="M21.816 31.713c-0.264,0 -0.48,-0.217 -0.48,-0.481l0 -18.459c0,-0.265 0.216,-0.481 0.48,-0.481 0.265,0 0.481,0.216 0.481,0.481l0 18.459c0,0.264 -0.211,0.481 -0.481,0.481l0 0z" p-id="10486"/>
   <g>
    <path class="fil15" d="M39.136 26.569c0,4.038 0.015,11.133 0.015,11.133 0,0.318 -2.856,3.538 -2.856,3.538l-2.855 -2.97 -2.855 2.97 -2.856 -3.023 -2.855 3.023c0,0 -2.856,-3.225 -2.856,-3.538l0 -19.661c0,-0.317 0.255,-0.572 0.572,-0.572l15.998 0c0.318,0 0.572,0.255 0.572,0.572l0 2.736 -0.024 5.792zm0 0l0 0 0 0z" p-id="10487"/>
   </g>
   <g>
    <path class="fil18" d="M39.617 26.569c0,4.038 0.015,11.133 0.015,11.133 0,0.318 -2.327,2.962 -2.327,2.962l-2.182 -2.394 -3.096 2.97 -2.856 -3.023 -3.336 3.023c0,0 -2.855,-3.225 -2.855,-3.538l0 -19.661c0,-0.317 0.255,-0.572 0.572,-0.572l15.517 0c0.317,0 0.572,0.255 0.572,0.572l0 2.736 -0.024 5.792zm0 0l0 0 0 0z" p-id="10488"/>
   </g>
   <path class="fil14" d="M24.773 41.726l-0.019 0c-0.13,-0.005 -0.25,-0.063 -0.332,-0.154 -0.01,-0.009 -0.75,-0.822 -1.486,-1.658 -1.596,-1.827 -1.596,-1.995 -1.596,-2.207l0 -20.146c0,-0.582 0.472,-1.053 1.053,-1.053l16.671 0c0.582,0 1.053,0.471 1.053,1.053l0 3.216c0,0.264 -0.216,0.48 -0.481,0.48 -0.264,0 -0.48,-0.216 -0.48,-0.48l0 -3.216c0,-0.049 -0.039,-0.092 -0.092,-0.092l-16.676 0c-0.048,0 -0.091,0.039 -0.091,0.092l0 20.05c0.216,0.365 1.365,1.697 2.5,2.952l2.932 -2.697c0.192,-0.178 0.495,-0.168 0.673,0.024l2.529 2.677 2.793 -2.639c0.091,-0.086 0.221,-0.134 0.346,-0.129 0.13,0.004 0.25,0.062 0.336,0.153l2.351 2.572c1.091,-1.245 2.178,-2.552 2.384,-2.908 0,-0.827 -0.014,-7.297 -0.014,-11.047 0,-0.264 0.216,-0.48 0.481,-0.48 0.264,0 0.48,0.216 0.48,0.48 0,3.99 0.015,11.066 0.015,11.134 0,0.211 0,0.375 -1.543,2.201 -0.712,0.841 -1.428,1.654 -1.437,1.659 -0.092,0.101 -0.222,0.158 -0.356,0.163 -0.135,0 -0.265,-0.058 -0.361,-0.158l-2.384 -2.611 -2.788 2.635c-0.092,0.086 -0.217,0.134 -0.346,0.129 -0.13,-0.004 -0.25,-0.057 -0.337,-0.149l-2.528 -2.682 -2.942 2.706c-0.072,0.087 -0.188,0.13 -0.308,0.13l0 0zm-2.5 -4.158z" p-id="10489"/>
   <path class="fil14" d="M39.665 23.877m-0.769 0c0,0.425 0.344,0.769 0.769,0.769 0.425,0 0.769,-0.344 0.769,-0.769 0,-0.425 -0.344,-0.769 -0.769,-0.769 -0.425,0 -0.769,0.344 -0.769,0.769l0 0z" p-id="10490"/>
   <path class="fil14" d="M27.753 25.415c0.452,0 0.822,0.371 0.817,0.822 0,0.452 -0.37,0.823 -0.822,0.818 -0.452,0 -0.817,-0.37 -0.817,-0.822 -0.005,-0.452 0.365,-0.818 0.822,-0.818zm5.658 0c0.452,0 0.822,0.371 0.817,0.822 0,0.452 -0.37,0.823 -0.822,0.818 -0.452,0 -0.817,-0.37 -0.817,-0.822 -0.005,-0.452 0.365,-0.818 0.822,-0.818zm-0.735 3.692c-0.366,1.159 -1.601,1.808 -2.76,1.442 -0.692,-0.216 -1.235,-0.764 -1.447,-1.456 0.318,0 3.135,0.014 4.207,0.014z" p-id="10491"/>
   <path class="fil14" d="M30.575 30.795c-0.236,0 -0.471,-0.039 -0.707,-0.111 -0.74,-0.231 -1.312,-0.812 -1.543,-1.553 -0.014,-0.043 -0.005,-0.091 0.024,-0.129 0.029,-0.039 0.072,-0.058 0.116,-0.058 0.115,0 0.538,0 1.086,0.005 1.024,0.005 2.428,0.009 3.12,0.009 0.048,0 0.091,0.024 0.115,0.058 0.024,0.034 0.034,0.087 0.019,0.13 -0.187,0.596 -0.596,1.086 -1.153,1.379 -0.332,0.183 -0.702,0.27 -1.077,0.27zm-1.904 -1.558c0.231,0.558 0.702,0.99 1.284,1.173 0.524,0.163 1.081,0.115 1.567,-0.139 0.428,-0.226 0.755,-0.582 0.942,-1.019 -0.74,0 -1.98,-0.005 -2.913,-0.01 -0.365,0 -0.678,-0.005 -0.88,-0.005l0 0z" p-id="10492"/>
   <path class="fil19" d="M30.575 29.626c0.63,0 1.182,0.183 1.481,0.457 -0.842,0.76 -2.12,0.76 -2.962,0 0.298,-0.274 0.851,-0.457 1.481,-0.457l0 0z" p-id="10493"/>
  </g>
 </g>
</svg>
