<?xml version="1.0" encoding="UTF-8"?>
<!DOCTYPE svg PUBLIC "-//W3C//DTD SVG 1.1//EN" "http://www.w3.org/Graphics/SVG/1.1/DTD/svg11.dtd">
<!-- Creator: CorelDRAW Standard 2021 (64-Bit 评估版) -->
<svg xmlns="http://www.w3.org/2000/svg" xml:space="preserve" width="40px" height="40px" version="1.1" style="shape-rendering:geometricPrecision; text-rendering:geometricPrecision; image-rendering:optimizeQuality; fill-rule:evenodd; clip-rule:evenodd"
viewBox="0 0 40 40"
 xmlns:xlink="http://www.w3.org/1999/xlink"
 xmlns:xodm="http://www.corel.com/coreldraw/odm/2003">
 <defs>
  <style type="text/css">
   <![CDATA[
    .fil0 {fill:#D0011B;fill-rule:nonzero}
   ]]>
  </style>
 </defs>
 <g id="图层_x0020_1">
  <metadata id="CorelCorpID_0Corel-Layer"/>
  <g id="学习园地.svg">
   <path class="fil0" d="M19.365 8.494l-0.02 0.058 -0.019 0 -0.038 -0.058 -12.787 4.865c-0.019,0 -0.038,0.019 -0.038,0.019l-0.481 0.193 0.057 0.115c-0.134,0.173 -0.23,0.404 -0.23,0.654 0,0.25 0.077,0.461 0.23,0.653l-0.057 0.116 0.481 0.192 0.019 0 0.788 0.289 -0.673 5.076c-0.481,0.288 -0.769,0.827 -0.769,1.384 0,0.904 0.731,1.654 1.654,1.654 0.903,0 1.653,-0.731 1.653,-1.654 0,-0.423 -0.154,-0.807 -0.442,-1.115l0.615 -4.557 1.116 0.423 -1.058 8.48 0.077 0.019c0.115,0.365 0.404,0.654 0.769,0.731l0.019 0.115 4.673 -1.173 4.134 3.538 0.077 -0.096c0.115,0.019 0.211,0.038 0.327,0.019l0.077 0.135 4.788 -3.596 4.73 1.192 0.019 -0.115c0.365,-0.096 0.673,-0.385 0.769,-0.75l0.096 -0.019 -1.596 -8.499 3.827 -1.462 0.019 0 0.481 -0.192 -0.058 -0.115c0.135,-0.173 0.231,-0.404 0.231,-0.654 0,-0.25 -0.077,-0.462 -0.231,-0.654l0.058 -0.115 -0.481 -0.193c0,0 -0.019,-0.019 -0.039,-0.019l-12.421 -4.73 -0.346 -0.154 0 0zm4.557 14.21l-0.019 -0.038 -4.519 3.384 -3.942 -3.384 -0.019 0.038 0 -0.019 -3.731 0.942 0.75 -6.057 6.903 2.634 7.019 -2.672 1.134 6.057 -3.576 -0.885 0 0zm-4.577 -4.73l-9.518 -3.615 9.518 -3.615 9.519 3.615 -9.519 3.615zm16.691 -6.499c-0.904,-2.154 -2.211,-4.096 -3.884,-5.769 -1.673,-1.673 -3.596,-2.961 -5.769,-3.884 -2.23,-0.942 -4.615,-1.423 -7.057,-1.423 -2.442,0 -4.826,0.481 -7.057,1.423 -2.153,0.904 -4.095,2.211 -5.768,3.884 -1.673,1.673 -2.961,3.596 -3.884,5.769 -0.943,2.23 -1.423,4.614 -1.423,7.056 0,2.442 0.481,4.827 1.423,7.057 0.903,2.154 2.211,4.096 3.884,5.769 1.673,1.673 3.596,2.961 5.768,3.884 2.231,0.942 4.615,1.423 7.057,1.423 2.442,0 4.827,-0.481 7.057,-1.423 2.154,-0.904 4.096,-2.211 5.769,-3.884 1.673,-1.673 2.961,-3.596 3.884,-5.769 0.942,-2.23 1.423,-4.615 1.423,-7.057 0,-2.461 -0.481,-4.826 -1.423,-7.056zm-16.691 23.093c-8.845,0 -16.036,-7.191 -16.036,-16.037 0,-8.845 7.191,-16.036 16.036,-16.036 8.846,0 16.037,7.191 16.037,16.036 0,8.846 -7.211,16.037 -16.037,16.037zm0 0z" p-id="12991"/>
  </g>
 </g>
</svg>
