<?xml version="1.0" encoding="UTF-8"?>
<!DOCTYPE svg PUBLIC "-//W3C//DTD SVG 1.1//EN" "http://www.w3.org/Graphics/SVG/1.1/DTD/svg11.dtd">
<!-- Creator: CorelDRAW Standard 2021 (64-Bit 评估版) -->
<svg xmlns="http://www.w3.org/2000/svg" xml:space="preserve" width="40px" height="40px" version="1.1" style="shape-rendering:geometricPrecision; text-rendering:geometricPrecision; image-rendering:optimizeQuality; fill-rule:evenodd; clip-rule:evenodd"
viewBox="0 0 40 40"
 xmlns:xlink="http://www.w3.org/1999/xlink"
 xmlns:xodm="http://www.corel.com/coreldraw/odm/2003">
 <defs>
  <style type="text/css">
   <![CDATA[
    .fil3 {fill:#512C56;fill-rule:nonzero}
    .fil1 {fill:#AEF0FF;fill-rule:nonzero}
    .fil2 {fill:#EF6A6A;fill-rule:nonzero}
    .fil0 {fill:#FFD4C7;fill-rule:nonzero}
   ]]>
  </style>
 </defs>
 <g id="图层_x0020_1">
  <metadata id="CorelCorpID_0Corel-Layer"/>
  <g id="学习.svg">
   <path class="fil0" d="M7.908 20.72c-0.485,-0.787 -0.743,-1.695 -0.743,-2.62 0,-0.915 0.252,-1.814 0.728,-2.595l-0.019 0c-0.001,0 -0.002,0 -0.002,0 -1.68,0 -3.042,1.363 -3.042,3.042 0,0.952 0.446,1.849 1.204,2.424l2 0.27c-0.046,-0.173 -0.088,-0.347 -0.125,-0.521l-0.001 0zm22.987 0c-0.037,0.174 -0.079,0.348 -0.125,0.52l1.999 -0.27c0.759,-0.575 1.204,-1.472 1.204,-2.423 0,-1.68 -1.362,-3.042 -3.041,-3.042 -0.001,0 -0.001,0 -0.002,0l-0.019 0c0.476,0.78 0.728,1.68 0.728,2.594 0,0.925 -0.258,1.834 -0.744,2.62l0 0.001zm-18.734 -7.616c0,0 0.001,0 0.002,0 2.758,0 4.995,2.237 4.995,4.995 0,1.627 -0.794,3.153 -2.125,4.087l4.369 0.59 4.369 -0.59c-1.331,-0.935 -2.124,-2.461 -2.124,-4.088 0,-2.758 2.236,-4.994 4.994,-4.994 1.681,0 3.251,0.847 4.174,2.251 -1.314,-5.231 -6.019,-8.902 -11.413,-8.902 -5.395,0 -10.1,3.671 -11.413,8.902 0.923,-1.403 2.491,-2.25 4.172,-2.251l0 0z" p-id="13129"/>
   <path class="fil0" d="M8.033 21.24l0.275 0.037c-0.146,-0.176 -0.279,-0.364 -0.399,-0.557 0.037,0.174 0.079,0.348 0.125,0.52l-0.001 0zm22.463 0.037l0.274 -0.037c0.048,-0.172 0.088,-0.346 0.125,-0.52 -0.12,0.193 -0.254,0.381 -0.399,0.557l0 0z" p-id="13130"/>
   <path class="fil1" d="M7.908 20.72c0.121,0.193 0.254,0.381 0.4,0.557l6.724 0.909c1.332,-0.934 2.125,-2.46 2.125,-4.087 0,-2.758 -2.237,-4.994 -4.995,-4.994 -1.681,0 -3.25,0.846 -4.173,2.25 -0.033,0.048 -0.065,0.1 -0.096,0.151 -0.476,0.78 -0.728,1.679 -0.728,2.594 0,0.925 0.258,1.833 0.743,2.62l0 0zm18.735 -7.616c-0.001,0 -0.002,0 -0.002,0 -2.758,0 -4.995,2.237 -4.995,4.995 0,1.627 0.793,3.153 2.125,4.087l6.725 -0.909c0.738,-0.893 1.143,-2.018 1.143,-3.177 0,-0.915 -0.252,-1.813 -0.728,-2.594 -0.031,-0.051 -0.063,-0.101 -0.096,-0.151 -0.923,-1.403 -2.492,-2.25 -4.172,-2.251z" p-id="13131"/>
   <polygon class="fil2" points="32.769,20.97 30.77,21.24 30.496,21.277 23.771,22.186 19.402,22.777 15.033,22.186 8.308,21.277 8.033,21.24 6.034,20.97 2.401,20.479 2.401,39.702 19.354,41.999 36.403,39.702 36.403,20.479 " p-id="13132"/>
   <path class="fil3" d="M36.552 19.88c0,0 -0.001,0 -0.001,0 -0.022,0 -0.043,0.002 -0.064,0.005l-2.253 0.305c0.24,-0.497 0.365,-1.044 0.365,-1.596 0,-1.867 -1.404,-3.436 -3.259,-3.644 -0.275,-0.997 -0.677,-1.958 -1.191,-2.854l0.078 0c0.32,0 0.58,-0.26 0.58,-0.58 0,-0.102 -0.027,-0.202 -0.078,-0.29 -1.701,-2.951 -4.492,-5.126 -7.77,-6.054l0.998 -1.064c0.1,-0.108 0.156,-0.249 0.156,-0.397 0,-0.18 -0.084,-0.35 -0.227,-0.46l-2.856 -2.187c-0.101,-0.077 -0.224,-0.118 -0.351,-0.118 -0.216,0 -0.414,0.119 -0.514,0.31l-1.054 2.03 -1.706 -3.365c-0.099,-0.194 -0.299,-0.317 -0.518,-0.317 -0.089,0 -0.177,0.02 -0.257,0.06l-4.326 2.142c-0.198,0.097 -0.323,0.299 -0.323,0.519 0,0.172 0.076,0.335 0.207,0.445l3.077 2.578c-3.027,1.015 -5.584,3.103 -7.187,5.865 -0.051,0.088 -0.078,0.188 -0.078,0.29 0,0.32 0.259,0.58 0.58,0.58l0.085 0c-0.517,0.897 -0.923,1.865 -1.198,2.865 -1.855,0.208 -3.258,1.777 -3.258,3.643 0,0.552 0.125,1.097 0.365,1.594l-2.254 -0.304c-0.021,-0.003 -0.042,-0.005 -0.064,-0.005 0,0 -0.001,0 -0.001,0 -0.263,0.001 -0.475,0.214 -0.475,0.477 0,0 0,0 0,0l0 19.527c0,0.238 0.176,0.44 0.412,0.471l17.162 2.327 17.26 -2.326c0.237,-0.032 0.413,-0.234 0.413,-0.473l0 -19.522c0,0 0,0 0,0 0,-0.262 -0.212,-0.476 -0.475,-0.477zm-3.204 -1.286c0,0 0,0.001 0,0.001 0,0.701 -0.306,1.368 -0.837,1.826l-0.775 0.105c0.348,-0.746 0.529,-1.56 0.529,-2.383 0,-0.583 -0.091,-1.163 -0.269,-1.718 0.826,0.407 1.351,1.248 1.352,2.169l0 0zm-3.686 -2.616c0,0 0,0.003 0,0.004 0,0.932 -0.3,1.839 -0.854,2.588l-4.868 3.011c-1.052,-0.829 -1.666,-2.094 -1.666,-3.433 0,-2.413 1.957,-4.371 4.37,-4.371 2.413,0 4.37,1.958 4.37,4.371 0,0 0,0 0,0l-1.352 -2.17zm-14.372 9.25l4.112 -3.034 -2.964 -0.401c0.729,-0.852 1.186,-1.906 1.309,-3.02l3.309 0c0.124,1.114 0.58,2.168 1.308,3.021l-7.074 3.434zm-5.159 -13.14l12.26 0.005 0.647 -2.725 0.751 2.726 4.89 0c0.237,0.357 0.456,0.734 0.65,1.117 -0.822,-0.448 -1.746,-0.683 -2.684,-0.683 -2.862,0 -5.269,2.151 -5.589,4.996l-3.309 0c-0.319,-2.845 -2.726,-4.996 -5.589,-4.996 -0.937,0 -1.861,0.235 -2.685,0.682 0.196,-0.386 0.418,-0.762 0.658,-1.122l0 0zm1.373 2.811c0,0 0.001,0 0.002,0 2.413,0 4.369,1.957 4.369,4.37 0,1.339 -0.615,2.606 -1.668,3.434l-5.564 -1.963c-0.554,-0.751 -0.853,-1.661 -0.853,-2.594 0,-2.413 1.956,-4.369 4.369,-4.369 0,0 0.002,0 0.002,0l-0.657 1.122zm-6.049 3.695c0.002,-0.92 0.526,-1.761 1.352,-2.167 -0.177,0.555 -0.268,1.136 -0.268,1.719 0,0.822 0.18,1.636 0.527,2.381l-0.773 -0.106c-0.532,-0.458 -0.838,-1.124 -0.838,-1.826 0,0 0,0 0,-0.001l0 0zm31.16 22.436l-17.261 0.386 -16.329 -2.211 0 -17.963 16.209 2.19 0.167 0.023 0.167 -0.023 16.209 -2.19 0.838 19.788z" p-id="13133"/>
   <path class="fil3" d="M18.853 26.306l0 12.218c0,0.345 0.28,0.625 0.625,0.625 0.345,0 0.625,-0.28 0.625,-0.625l0 -12.218c0,-0.346 -0.28,-0.625 -0.625,-0.625 -0.345,0 -0.625,0.279 -0.625,0.625l0 0z" p-id="13134"/>
  </g>
 </g>
</svg>
