<?xml version="1.0" encoding="UTF-8"?>
<svg width="24px" height="24px" viewBox="0 0 24 24" version="1.1" xmlns="http://www.w3.org/2000/svg" xmlns:xlink="http://www.w3.org/1999/xlink">
    <!-- Generator: Sketch 61 (89581) - https://sketch.com -->
    <title>common/close_line</title>
    <desc>Created with Sketch.</desc>
    <defs>
        <path d="M12.742775,12.0324856 L19.1353798,18.4250904 C19.3315208,18.6212314 19.3315208,18.9392388 19.1353798,19.1353798 C18.9392388,19.3315208 18.6212314,19.3315208 18.4250904,19.1353798 L12.0324856,12.742775 L5.63988076,19.1353798 C5.44373975,19.3315208 5.12573234,19.3315208 4.92959134,19.1353798 C4.73345033,18.9392388 4.73345033,18.6212314 4.92959134,18.4250904 L11.3221962,12.0324856 L4.92959134,5.63988076 C4.73345033,5.44373975 4.73345033,5.12573234 4.92959134,4.92959134 C5.12573234,4.73345033 5.44373975,4.73345033 5.63988076,4.92959134 L12.0324856,11.3221962 L18.4250904,4.92959134 C18.6212314,4.73345033 18.9392388,4.73345033 19.1353798,4.92959134 C19.3315208,5.12573234 19.3315208,5.44373975 19.1353798,5.63988076 L12.742775,12.0324856 Z" id="path-1"></path>
    </defs>
    <g id="common/close_line" stroke="none" stroke-width="1" fill="none" fill-rule="evenodd">
        <mask id="mask-2" fill="white">
            <use xlink:href="#path-1"></use>
        </mask>
        <use id="Mask" fill="#000000" xlink:href="#path-1"></use>
    </g>
</svg>