<?xml version="1.0" encoding="UTF-8"?>
<svg width="24px" height="24px" viewBox="0 0 24 24" version="1.1" xmlns="http://www.w3.org/2000/svg" xmlns:xlink="http://www.w3.org/1999/xlink">
    <!-- Generator: Sketch 61 (89581) - https://sketch.com -->
    <title>微信支付</title>
    <desc>Created with Sketch.</desc>
    <g id="生活缴费0810" stroke="none" stroke-width="1" fill="none" fill-rule="evenodd">
        <path d="M9.6199908,14.5886693 C8.41999979,15.308591 8.25000121,14.1787085 8.25000121,14.1787085 L6.7499978,10.3990999 C6.16999465,8.59929553 7.24999243,9.58919768 7.24999243,9.58919766 C7.24999243,9.58919764 8.17001223,10.3490999 8.87999016,10.8090607 C9.58000609,11.2690216 10.3799936,10.9490412 10.3799936,10.9490411 L20.1900222,6.04956948 C18.3700042,3.58982389 15.3799985,2 12,2 C6.48000813,2 2,6.23954991 2,11.4789824 C2,14.4886693 3.48000128,17.1683563 5.78999327,18.9081997 L5.3700267,21.4979257 C5.3700267,21.4979257 5.17000541,22.2578279 5.87000178,21.9078866 C6.34999428,21.6679062 7.56998742,20.8079845 8.30000655,20.2880431 C9.48001497,20.738004 10.7299918,20.9579649 12,20.9579649 C17.5199919,20.9579649 22,16.7184345 22,11.4789824 C22,9.95915852 21.6199986,8.52929553 20.9500054,7.25945206 C17.8300053,9.29921725 10.5599932,14.0287085 9.6199908,14.5886302 L9.6199908,14.5886693 Z" id="路径" fill="#41B035" fill-rule="nonzero"></path>
    </g>
</svg>