<?xml version="1.0" encoding="UTF-8"?>
<svg width="24px" height="24px" viewBox="0 0 24 24" version="1.1" xmlns="http://www.w3.org/2000/svg" xmlns:xlink="http://www.w3.org/1999/xlink">
    <!-- Generator: Sketch 61 (89581) - https://sketch.com -->
    <title>支付宝支付</title>
    <desc>Created with Sketch.</desc>
    <g id="生活缴费0810" stroke="none" stroke-width="1" fill="none" fill-rule="evenodd">
        <g id="支付宝支付" transform="translate(2.000000, 2.000000)" fill="#108EE9" fill-rule="nonzero">
            <path d="M9.56122768,15.9265848 C8.06361607,16.6412723 6.3440625,17.0859375 4.48194196,16.6468973 C2.61979911,16.2076562 1.29832589,15.0169196 1.52540179,12.8185045 C1.75290179,10.619933 4.10303571,9.86178571 6.03589286,9.86178571 C7.96941964,9.86178571 11.6371875,11.1145089 11.6371875,11.1145089 C11.6371875,11.1145089 11.9453795,10.4239509 12.2448214,9.63444196 C12.5440402,8.84504464 12.6289732,8.21066964 12.6289732,8.21066964 L4.81850446,8.21066964 L4.81850446,7.42792411 L8.61303571,7.42792411 L8.61303571,5.93044643 L3.88256696,5.96450893 L3.88256696,4.9775 L8.61303571,4.9775 L8.61303571,2.73129464 L11.0975,2.73129464 L11.0975,4.97747768 L16.1685268,4.97747768 L16.1685268,5.96448661 L11.0975223,5.99850446 L11.0975223,7.39383929 L15.2846652,7.42790179 C15.2846652,7.42790179 15.2089732,8.21064732 14.678192,9.63441964 C14.1479464,11.0581473 13.6500446,11.7842411 13.6500446,11.7842411 L20,13.8678348 L20,4 C20,1.79087054 18.2091295,0 16,0 L4,0 C1.79087054,0 0,1.79087054 0,4 L0,16 C0,18.2091295 1.79087054,20 4,20 L16,20 C17.8412277,20 19.3877902,18.7543304 19.8532143,17.0609821 L12.5270089,13.5880357 C12.5270089,13.5880357 11.0586607,15.211875 9.56122768,15.9265848 Z" id="路径"></path>
            <path d="M5.22272321,11.0685491 C2.89111607,11.2169643 2.32151786,12.2427679 2.32151786,13.1866518 C2.32151786,14.1305357 2.89723214,15.4427455 5.63732143,15.4427455 C8.37676339,15.4427455 10.7022545,12.6800223 10.7022545,12.6800223 C10.7022545,12.6800223 7.55366071,10.9201562 5.22272321,11.0685491 Z" id="路径"></path>
        </g>
    </g>
</svg>