<?xml version="1.0" encoding="UTF-8"?>
<svg width="24px" height="24px" viewBox="0 0 24 24" version="1.1" xmlns="http://www.w3.org/2000/svg" xmlns:xlink="http://www.w3.org/1999/xlink">
    <!-- Generator: Sketch 61 (89581) - https://sketch.com -->
    <title>common/scan_line</title>
    <desc>Created with Sketch.</desc>
    <defs>
        <path d="M3.5,11.5 L20.5,11.5 C20.7761424,11.5 21,11.7238576 21,12 C21,12.2761424 20.7761424,12.5 20.5,12.5 L3.5,12.5 C3.22385763,12.5 3,12.2761424 3,12 C3,11.7238576 3.22385763,11.5 3.5,11.5 Z M8.5,4 L5,4 C4.44771525,4 4,4.44771525 4,5 L4,8.5 C4,8.77614237 3.77614237,9 3.5,9 C3.22385763,9 3,8.77614237 3,8.5 L3,5 C3,3.8954305 3.8954305,3 5,3 L8.5,3 C8.77614237,3 9,3.22385763 9,3.5 C9,3.77614237 8.77614237,4 8.5,4 Z M19,4 L15.5,4 C15.2238576,4 15,3.77614237 15,3.5 C15,3.22385763 15.2238576,3 15.5,3 L19,3 C20.1045695,3 21,3.8954305 21,5 L21,8.5 C21,8.77614237 20.7761424,9 20.5,9 C20.2238576,9 20,8.77614237 20,8.5 L20,5 C20,4.44771525 19.5522847,4 19,4 Z M5,20 L8.5,20 C8.77614237,20 9,20.2238576 9,20.5 C9,20.7761424 8.77614237,21 8.5,21 L5,21 C3.8954305,21 3,20.1045695 3,19 L3,15.5 C3,15.2238576 3.22385763,15 3.5,15 C3.77614237,15 4,15.2238576 4,15.5 L4,19 C4,19.5522847 4.44771525,20 5,20 Z M15.5,20 L19,20 C19.5522847,20 20,19.5522847 20,19 L20,15.5 C20,15.2238576 20.2238576,15 20.5,15 C20.7761424,15 21,15.2238576 21,15.5 L21,19 C21,20.1045695 20.1045695,21 19,21 L15.5,21 C15.2238576,21 15,20.7761424 15,20.5 C15,20.2238576 15.2238576,20 15.5,20 Z" id="path-1"></path>
    </defs>
    <g id="common/scan_line" stroke="none" stroke-width="1" fill="none" fill-rule="evenodd">
        <mask id="mask-2" fill="white">
            <use xlink:href="#path-1"></use>
        </mask>
        <use id="Mask" fill="#ffffff" xlink:href="#path-1"></use>
    </g>
</svg>