<?xml version="1.0" encoding="UTF-8"?>
<!DOCTYPE svg PUBLIC "-//W3C//DTD SVG 1.1//EN" "http://www.w3.org/Graphics/SVG/1.1/DTD/svg11.dtd">
<!-- Creator: CorelDRAW 2021 (64-Bit 评估版) -->
<svg xmlns="http://www.w3.org/2000/svg" xml:space="preserve" width="24px" height="24px" version="1.1" style="shape-rendering:geometricPrecision; text-rendering:geometricPrecision; image-rendering:optimizeQuality; fill-rule:evenodd; clip-rule:evenodd"
viewBox="0 0 24 24"
 xmlns:xlink="http://www.w3.org/1999/xlink"
 xmlns:xodm="http://www.corel.com/coreldraw/odm/2003">
 <defs>
  <style type="text/css">
   <![CDATA[
    .fil0 {fill:#A0D9F6;fill-rule:nonzero}
   ]]>
  </style>
 </defs>
 <g id="图层_x0020_1">
  <metadata id="CorelCorpID_0Corel-Layer"/>
  <g id="查看.svg">
   <path class="fil0" d="M22.04 -0.12c-0.04,0 -0.09,0.02 -0.13,0.02 -0.05,0 -0.1,-0.02 -0.14,-0.02l-18.72 0c-0.65,0 -1.18,0.53 -1.18,1.18l0 21.36c0,0.65 0.53,1.18 1.18,1.18l7.13 0c0.65,0 1.18,-0.53 1.18,-1.18 0,-0.65 -0.53,-1.19 -1.18,-1.19l-5.94 0 0 -18.98 16.61 0 0 8.3c0,0.66 0.54,1.19 1.19,1.19 0.65,0 1.18,-0.53 1.18,-1.19l0 -9.49c0,-0.65 -0.53,-1.18 -1.18,-1.18l0 0z" p-id="1259"/>
   <path class="fil0" d="M17.89 7.39c0,-0.65 -0.54,-1.18 -1.19,-1.18l-8.31 0c-0.65,0 -1.18,0.53 -1.18,1.18 0,0.65 0.53,1.19 1.18,1.19l8.31 0c0.65,0 1.19,-0.54 1.19,-1.19zm-4.75 3.82c0,-0.66 -0.53,-1.2 -1.18,-1.2l-3.57 0c-0.65,0 -1.18,0.54 -1.18,1.2 0,0.65 0.53,1.18 1.18,1.18l3.57 0c0.65,0 1.18,-0.53 1.18,-1.18zm7.96 8.59c0.42,-0.7 0.67,-1.51 0.67,-2.39 0,-2.63 -2.12,-4.75 -4.74,-4.75 -2.62,0 -4.75,2.12 -4.75,4.75 0,2.62 2.13,4.74 4.75,4.74 0.88,0 1.69,-0.25 2.39,-0.67l1.79 1.77c0.46,0.47 1.21,0.47 1.67,0 0.46,-0.46 0.46,-1.21 0,-1.68l-1.78 -1.77zm-6.45 -2.39c0,-1.31 1.07,-2.38 2.38,-2.38 1.3,0 2.37,1.07 2.37,2.38 0,1.3 -1.07,2.37 -2.37,2.37 -1.31,0 -2.38,-1.07 -2.38,-2.37z" p-id="1260"/>
  </g>
 </g>
</svg>
