<?xml version="1.0" encoding="UTF-8"?>
<!DOCTYPE svg PUBLIC "-//W3C//DTD SVG 1.1//EN" "http://www.w3.org/Graphics/SVG/1.1/DTD/svg11.dtd">
<!-- Creator: CorelDRAW 2021 (64-Bit 评估版) -->
<svg xmlns="http://www.w3.org/2000/svg" xml:space="preserve" width="24px" height="24px" version="1.1" style="shape-rendering:geometricPrecision; text-rendering:geometricPrecision; image-rendering:optimizeQuality; fill-rule:evenodd; clip-rule:evenodd"
viewBox="0 0 24 24"
 xmlns:xlink="http://www.w3.org/1999/xlink"
 xmlns:xodm="http://www.corel.com/coreldraw/odm/2003">
 <defs>
  <style type="text/css">
   <![CDATA[
    .fil0 {fill:#646464;fill-rule:nonzero}
   ]]>
  </style>
 </defs>
 <g id="图层_x0020_1">
  <metadata id="CorelCorpID_0Corel-Layer"/>
  <g id="查看.svg">
   <path class="fil0" d="M20.31 1.46c-0.04,0 -0.08,0.02 -0.12,0.02 -0.05,0 -0.09,-0.02 -0.13,-0.02l-17.53 0c-0.61,0 -1.11,0.5 -1.11,1.11l0 20c0,0.61 0.5,1.11 1.11,1.11l6.67 0c0.61,0 1.11,-0.5 1.11,-1.11 0,-0.61 -0.5,-1.11 -1.11,-1.11l-5.56 0 0 -17.78 15.56 0 0 7.78c0,0.61 0.5,1.11 1.11,1.11 0.61,0 1.11,-0.5 1.11,-1.11l0 -8.89c0,-0.61 -0.5,-1.11 -1.11,-1.11z" p-id="1259"/>
   <path class="fil0" d="M16.42 8.5c0,-0.61 -0.5,-1.11 -1.11,-1.11l-7.78 0c-0.61,0 -1.11,0.5 -1.11,1.11 0,0.61 0.5,1.11 1.11,1.11l7.78 0c0.61,0 1.11,-0.5 1.11,-1.11zm-4.44 3.57c0,-0.61 -0.5,-1.12 -1.11,-1.12l-3.34 0c-0.61,0 -1.11,0.51 -1.11,1.12 0,0.61 0.5,1.11 1.11,1.11l3.34 0c0.61,0 1.11,-0.5 1.11,-1.11zm7.45 8.05c0.39,-0.66 0.63,-1.42 0.63,-2.24 0,-2.46 -1.99,-4.45 -4.44,-4.45 -2.45,0 -4.45,1.99 -4.45,4.45 0,2.45 2,4.44 4.45,4.44 0.82,0 1.58,-0.24 2.24,-0.63l1.67 1.66c0.43,0.44 1.14,0.44 1.57,0 0.43,-0.43 0.43,-1.13 0,-1.57l-1.67 -1.66zm-6.04 -2.24c0,-1.23 1,-2.23 2.23,-2.23 1.22,0 2.22,1 2.22,2.23 0,1.22 -1,2.22 -2.22,2.22 -1.23,0 -2.23,-1 -2.23,-2.22z" p-id="1260"/>
  </g>
 </g>
</svg>
