<?xml version="1.0" encoding="UTF-8"?>
<!DOCTYPE svg PUBLIC "-//W3C//DTD SVG 1.1//EN" "http://www.w3.org/Graphics/SVG/1.1/DTD/svg11.dtd">
<!-- Creator: CorelDRAW 2021 (64-Bit 评估版) -->
<svg xmlns="http://www.w3.org/2000/svg" xml:space="preserve" width="24px" height="24px" version="1.1" style="shape-rendering:geometricPrecision; text-rendering:geometricPrecision; image-rendering:optimizeQuality; fill-rule:evenodd; clip-rule:evenodd"
viewBox="0 0 24 24"
 xmlns:xlink="http://www.w3.org/1999/xlink"
 xmlns:xodm="http://www.corel.com/coreldraw/odm/2003">
 <defs>
  <style type="text/css">
   <![CDATA[
    .fil0 {fill:#A0D9F6;fill-rule:nonzero}
   ]]>
  </style>
 </defs>
 <g id="图层_x0020_1">
  <metadata id="CorelCorpID_0Corel-Layer"/>
 </g>
 <g id="图层_x0020_1_0">
  <metadata id="CorelCorpID_1Corel-Layer"/>
  <g id="用户信息台账-01.svg">
   <path class="fil0" d="M23.32 16.06l-7.24 0c-0.43,0 -0.78,0.35 -0.78,0.78 0,0.44 0.35,0.79 0.78,0.79l7.24 0c0.43,0 0.78,-0.35 0.78,-0.79 0,-0.43 -0.35,-0.78 -0.78,-0.78zm0 3.03l-7.24 0c-0.43,0 -0.78,0.35 -0.78,0.78 0,0.44 0.35,0.79 0.78,0.79l7.24 0c0.43,0 0.78,-0.35 0.78,-0.79 0,-0.43 -0.35,-0.78 -0.78,-0.78zm0 3.03l-7.24 0c-0.43,0 -0.78,0.34 -0.78,0.78 0,0.43 0.35,0.79 0.78,0.79l7.24 0c0.43,0 0.78,-0.36 0.78,-0.79 0,-0.44 -0.35,-0.78 -0.78,-0.78zm-6.69 -7.42c0.14,0.12 0.31,0.17 0.48,0.17l0.06 0c0.73,0 1.04,-0.91 0.48,-1.36 -0.92,-0.74 -1.98,-1.32 -3.12,-1.72 1.72,-1.12 2.87,-3.06 2.87,-5.28 0,-3.47 -2.82,-6.28 -6.28,-6.28 -3.47,0 -6.28,2.81 -6.28,6.28 0,2.22 1.14,4.16 2.87,5.28 -4.19,1.42 -7.19,5.4 -7.05,10.09 0.01,0.37 0.04,0.75 0.08,1.11 0.06,0.39 0.39,0.69 0.78,0.69 0.48,0 0.85,-0.42 0.78,-0.9 -0.05,-0.39 -0.08,-0.79 -0.08,-1.19 0,0 0,0 0,0 0,-1.2 0.24,-2.27 0.7,-3.37 0.45,-1.05 1.09,-2 1.91,-2.82 0.82,-0.82 1.77,-1.46 2.82,-1.91 1.09,-0.46 2.24,-0.69 3.42,-0.7 0.02,0 0.03,0 0.05,0 0.01,0 0.04,0 0.05,0 1.18,0.01 2.33,0.24 3.42,0.7 0.73,0.31 1.42,0.72 2.04,1.21l0 0 0 0zm-8.84 -4.85c-0.89,-0.9 -1.38,-2.08 -1.38,-3.34 0,-1.25 0.49,-2.44 1.38,-3.33 0.89,-0.89 2.07,-1.37 3.33,-1.37 1.26,0 2.44,0.48 3.33,1.37 0.89,0.89 1.38,2.08 1.38,3.33 0,1.26 -0.49,2.44 -1.38,3.34 -0.88,0.87 -2.03,1.36 -3.26,1.37 -0.05,0 -0.1,0 -0.14,0 -1.23,-0.01 -2.38,-0.5 -3.26,-1.37l0 0z" p-id="821"/>
  </g>
 </g>
</svg>
