<?xml version="1.0" encoding="UTF-8"?>
<!DOCTYPE svg PUBLIC "-//W3C//DTD SVG 1.1//EN" "http://www.w3.org/Graphics/SVG/1.1/DTD/svg11.dtd">
<!-- Creator: CorelDRAW 2021 (64-Bit 评估版) -->
<svg xmlns="http://www.w3.org/2000/svg" xml:space="preserve" width="24px" height="24px" version="1.1" style="shape-rendering:geometricPrecision; text-rendering:geometricPrecision; image-rendering:optimizeQuality; fill-rule:evenodd; clip-rule:evenodd"
viewBox="0 0 24 24"
 xmlns:xlink="http://www.w3.org/1999/xlink"
 xmlns:xodm="http://www.corel.com/coreldraw/odm/2003">
 <defs>
  <style type="text/css">
   <![CDATA[
    .fil0 {fill:#333333;fill-rule:nonzero}
   ]]>
  </style>
 </defs>
 <g id="图层_x0020_1">
  <metadata id="CorelCorpID_0Corel-Layer"/>
  <g id="用户信息台账-01.svg">
   <path class="fil0" d="M22.31 15.38l-6.86 0c-0.41,0 -0.74,0.33 -0.74,0.74 0,0.42 0.33,0.75 0.74,0.75l6.86 0c0.41,0 0.74,-0.33 0.74,-0.75 0,-0.41 -0.33,-0.74 -0.74,-0.74zm0 2.87l-6.86 0c-0.41,0 -0.74,0.33 -0.74,0.74 0,0.42 0.33,0.75 0.74,0.75l6.86 0c0.41,0 0.74,-0.33 0.74,-0.75 0,-0.41 -0.33,-0.74 -0.74,-0.74zm0 2.87l-6.86 0c-0.41,0 -0.74,0.33 -0.74,0.74 0,0.41 0.33,0.75 0.74,0.75l6.86 0c0.41,0 0.74,-0.34 0.74,-0.75 0,-0.41 -0.33,-0.74 -0.74,-0.74zm-6.34 -7.03c0.13,0.11 0.29,0.16 0.45,0.16l0.06 0c0.69,0 0.99,-0.86 0.46,-1.29 -0.88,-0.7 -1.88,-1.25 -2.96,-1.63 1.63,-1.06 2.72,-2.9 2.72,-5 0,-3.29 -2.67,-5.95 -5.95,-5.95 -3.29,0 -5.96,2.66 -5.96,5.95 0,2.1 1.08,3.94 2.72,5 -3.97,1.35 -6.81,5.12 -6.68,9.57 0.01,0.35 0.04,0.71 0.08,1.05 0.05,0.37 0.37,0.65 0.74,0.65 0.45,0 0.8,-0.4 0.74,-0.85 -0.05,-0.37 -0.08,-0.75 -0.08,-1.13 0,0 0,0 0,0 0,-1.14 0.23,-2.15 0.66,-3.19 0.43,-1 1.04,-1.9 1.81,-2.68 0.78,-0.77 1.68,-1.38 2.68,-1.81 1.03,-0.43 2.12,-0.65 3.24,-0.66 0.02,0 0.03,0 0.05,0 0.01,0 0.03,0 0.04,0 1.12,0.01 2.21,0.23 3.24,0.66 0.7,0.3 1.35,0.69 1.94,1.15l0 0zm-8.38 -4.6c-0.84,-0.85 -1.31,-1.97 -1.31,-3.16 0,-1.19 0.47,-2.31 1.31,-3.16 0.84,-0.84 1.96,-1.3 3.16,-1.3 1.19,0 2.31,0.46 3.15,1.3 0.85,0.85 1.31,1.97 1.31,3.16 0,1.19 -0.46,2.31 -1.31,3.16 -0.83,0.83 -1.92,1.29 -3.09,1.3 -0.04,0 -0.09,0 -0.13,0 -1.17,-0.01 -2.26,-0.47 -3.09,-1.3z" p-id="821"/>
  </g>
 </g>
</svg>
