<?xml version="1.0" encoding="UTF-8"?>
<!DOCTYPE svg PUBLIC "-//W3C//DTD SVG 1.1//EN" "http://www.w3.org/Graphics/SVG/1.1/DTD/svg11.dtd">
<!-- Creator: CorelDRAW 2021 (64-Bit 评估版) -->
<svg xmlns="http://www.w3.org/2000/svg" xml:space="preserve" width="24px" height="24px" version="1.1" style="shape-rendering:geometricPrecision; text-rendering:geometricPrecision; image-rendering:optimizeQuality; fill-rule:evenodd; clip-rule:evenodd"
viewBox="0 0 24 24"
 xmlns:xlink="http://www.w3.org/1999/xlink"
 xmlns:xodm="http://www.corel.com/coreldraw/odm/2003">
 <defs>
  <style type="text/css">
   <![CDATA[
    .fil0 {fill:#A0D9F6;fill-rule:nonzero}
   ]]>
  </style>
 </defs>
 <g id="图层_x0020_1">
  <metadata id="CorelCorpID_0Corel-Layer"/>
 </g>
 <g id="图层_x0020_1_0">
  <metadata id="CorelCorpID_1Corel-Layer"/>
 </g>
 <g id="图层_x0020_1_1">
  <metadata id="CorelCorpID_2Corel-Layer"/>
  <g id="缴费管理-02.svg">
   <path class="fil0" d="M15.31 9.56c0.43,0 0.78,-0.35 0.78,-0.78 0,-0.44 -0.35,-0.79 -0.78,-0.79l-2.14 0 1.21 -1.21c0.31,-0.31 0.31,-0.81 0,-1.12 -0.3,-0.29 -0.8,-0.29 -1.11,0l-1.93 1.95 -1.97 -1.96c-0.3,-0.3 -0.8,-0.3 -1.11,0 -0.3,0.31 -0.3,0.81 0,1.12l1.23 1.23 -2.14 0c-0.43,0 -0.79,0.34 -0.79,0.78 0,0.43 0.36,0.78 0.79,0.78l3.2 0 0 1.92 -3.2 0c-0.43,0 -0.79,0.35 -0.79,0.78 0,0.44 0.36,0.79 0.79,0.79l3.2 0 0 3.65c0,0.44 0.34,0.8 0.78,0.8 0.43,0 0.78,-0.36 0.78,-0.8l0 -3.65 3.2 0c0.43,0 0.78,-0.35 0.78,-0.79 0,-0.43 -0.35,-0.78 -0.78,-0.78l-3.2 0 0 -1.92 3.2 0 0 0z" p-id="821"/>
   <path class="fil0" d="M11.87 -0.26c-7.02,-0.31 -12.58,5.24 -12.25,12.27 0.27,6.09 5.2,10.96 11.31,11.17 0.04,0 0.07,0 0.1,0l9.28 0c0.01,0 0.03,0 0.04,0 0,0 0.01,0 0.02,0 0,0 0.01,0 0.02,0 0,0 0.01,0 0.02,0 0.01,0 0.01,0 0.02,-0.01 0,0 0.01,0 0.02,0l0.01 0c0.01,0 0.02,-0.01 0.03,-0.01 0,0 0.01,0 0.01,0 0.01,0 0.02,-0.01 0.03,-0.01 0,0 0,0 0.01,0l0.02 -0.01c0.01,0 0.01,0 0.02,0 0,-0.01 0.01,-0.01 0.02,-0.01 0,0 0.01,-0.01 0.01,-0.01 0.01,0 0.01,0 0.02,0 0.01,-0.01 0.01,-0.01 0.02,-0.01 0,-0.01 0.01,-0.01 0.01,-0.01 0.01,0 0.02,-0.01 0.02,-0.01 0.01,0 0.01,-0.01 0.02,-0.01 0,0 0.01,-0.01 0.02,-0.01 0,0 0.01,0 0.01,-0.01 0.01,0 0.01,-0.01 0.02,-0.01 0,0 0.01,-0.01 0.01,-0.01 0.01,0 0.02,-0.01 0.02,-0.01 0.01,-0.01 0.01,-0.01 0.01,-0.01 0.01,-0.01 0.02,-0.01 0.02,-0.02 0.01,0 0.01,-0.01 0.02,-0.01 0,0 0.01,-0.01 0.01,-0.01 0.02,-0.02 0.04,-0.04 0.06,-0.06 0,0 0,-0.01 0.01,-0.01 0,-0.01 0.01,-0.01 0.01,-0.02 0.01,0 0.01,-0.01 0.02,-0.01 0,-0.01 0,-0.01 0.01,-0.02 0,0 0.01,-0.01 0.01,-0.02 0,0 0.01,0 0.01,-0.01 0,-0.01 0.01,-0.01 0.01,-0.02 0,0 0.01,-0.01 0.01,-0.01 0,0 0.01,-0.01 0.01,-0.01 0,-0.01 0.01,-0.01 0.01,-0.01 0,-0.01 0,-0.02 0.01,-0.03 0,0 0,0 0,-0.01l0 -0.02c0.01,0 0.01,-0.01 0.01,-0.02 0,0 0.01,-0.01 0.01,-0.01 0,-0.01 0,-0.02 0.01,-0.02 0,-0.01 0,-0.01 0,-0.02 0,-0.01 0.01,-0.01 0.01,-0.02 0,0 0,-0.01 0,-0.01 0,-0.01 0.01,-0.02 0.01,-0.03 0,0 0,-0.01 0,-0.01 0,-0.01 0,-0.02 0.01,-0.03l0 -0.01c0,-0.01 0,-0.02 0,-0.02 0,-0.01 0,-0.01 0,-0.02 0.01,-0.01 0.01,-0.01 0.01,-0.02 0,-0.01 0,-0.01 0,-0.02 0,-0.01 0,-0.01 0,-0.02 0,-0.01 0,-0.03 0,-0.04 0,-0.01 0,-0.03 0,-0.04 0,0 0,-0.01 0,-0.02 0,0 0,-0.01 0,-0.02 0,0 0,-0.01 0,-0.02 -0.01,0 -0.01,-0.01 -0.01,-0.02 0,0 0,-0.01 0,-0.02l0 -0.01c0,-0.01 -0.01,-0.02 -0.01,-0.03 0,0 0,-0.01 0,-0.01 0,-0.01 -0.01,-0.02 -0.01,-0.02 0,-0.01 0,-0.01 0,-0.02 0,-0.01 -0.01,-0.01 -0.01,-0.02 0,-0.01 0,-0.01 0,-0.02 -0.01,0 -0.01,-0.01 -0.01,-0.01 0,-0.01 -0.01,-0.02 -0.01,-0.02 0,-0.01 0,-0.01 -0.01,-0.02 0,-0.01 0,-0.01 0,-0.02l0 -0.01c-0.01,-0.01 -0.01,-0.02 -0.01,-0.02 0,-0.01 -0.01,-0.01 -0.01,-0.02 0,0 -0.01,-0.01 -0.01,-0.02 0,0 -0.01,0 -0.01,-0.01 0,0 -0.01,-0.01 -0.01,-0.02 0,0 -0.01,-0.01 -0.01,-0.01 0,-0.01 -0.01,-0.01 -0.01,-0.02 -0.01,0 -0.01,-0.01 -0.01,-0.01 -0.01,-0.01 -0.01,-0.02 -0.02,-0.02 0,-0.01 -0.01,-0.01 -0.01,-0.02 -0.01,0 -0.01,-0.01 -0.01,-0.01 -0.01,-0.01 -0.02,-0.02 -0.03,-0.02l-3.7 -3.7c-0.31,-0.31 -0.8,-0.31 -1.11,0 -0.31,0.3 -0.31,0.8 0,1.11l2.36 2.36 -7.14 0c-1.36,-0.01 -2.67,-0.28 -3.91,-0.8 -1.21,-0.51 -2.29,-1.25 -3.22,-2.18 -0.93,-0.93 -1.67,-2.01 -2.18,-3.22 -0.53,-1.25 -0.8,-2.59 -0.8,-3.96 0,-1.37 0.27,-2.7 0.8,-3.95 0.51,-1.21 1.25,-2.3 2.18,-3.23 0.93,-0.93 2.01,-1.67 3.22,-2.17 1.25,-0.54 2.58,-0.8 3.96,-0.8 1.37,0 2.7,0.26 3.94,0.8 1.21,0.5 2.31,1.24 3.24,2.17 0.93,0.93 1.66,2.02 2.17,3.23 0.53,1.25 0.8,2.58 0.8,3.95 0,0.72 -0.08,1.43 -0.23,2.12 -0.1,0.5 0.27,0.96 0.78,0.96 0.36,0 0.68,-0.26 0.76,-0.63 0.17,-0.78 0.26,-1.61 0.26,-2.45 0,-6.29 -4.96,-11.42 -11.18,-11.71l0 0 0 -0.01z" p-id="822"/>
  </g>
 </g>
</svg>
