<?xml version="1.0" encoding="UTF-8"?>
<!DOCTYPE svg PUBLIC "-//W3C//DTD SVG 1.1//EN" "http://www.w3.org/Graphics/SVG/1.1/DTD/svg11.dtd">
<!-- Creator: CorelDRAW 2021 (64-Bit 评估版) -->
<svg xmlns="http://www.w3.org/2000/svg" xml:space="preserve" width="24px" height="24px" version="1.1" style="shape-rendering:geometricPrecision; text-rendering:geometricPrecision; image-rendering:optimizeQuality; fill-rule:evenodd; clip-rule:evenodd"
viewBox="0 0 24 24"
 xmlns:xlink="http://www.w3.org/1999/xlink"
 xmlns:xodm="http://www.corel.com/coreldraw/odm/2003">
 <defs>
  <style type="text/css">
   <![CDATA[
    .fil0 {fill:#333333;fill-rule:nonzero}
   ]]>
  </style>
 </defs>
 <g id="图层_x0020_1">
  <metadata id="CorelCorpID_0Corel-Layer"/>
  <g id="缴费管理-02.svg">
   <path class="fil0" d="M15.7 10.04c0.44,0 0.79,-0.35 0.79,-0.79 0,-0.44 -0.35,-0.79 -0.79,-0.79l-2.15 0 1.22 -1.23c0.31,-0.31 0.31,-0.81 0,-1.12 -0.31,-0.3 -0.81,-0.3 -1.12,0l-1.95 1.96 -1.98 -1.97c-0.31,-0.31 -0.81,-0.31 -1.12,0 -0.31,0.31 -0.31,0.81 0,1.12l1.24 1.24 -2.16 0c-0.44,0 -0.8,0.35 -0.8,0.79 0,0.44 0.36,0.79 0.8,0.79l3.22 0 0 1.93 -3.22 0c-0.44,0 -0.8,0.36 -0.8,0.79 0,0.44 0.36,0.8 0.8,0.8l3.22 0 0 3.68c0,0.44 0.35,0.8 0.79,0.8 0.43,0 0.79,-0.36 0.79,-0.8l0 -3.68 3.22 0c0.44,0 0.79,-0.36 0.79,-0.8 0,-0.43 -0.35,-0.79 -0.79,-0.79l-3.22 0 0 -1.93 3.22 0z" p-id="821"/>
   <path class="fil0" d="M12.24 0.14c-7.08,-0.32 -12.69,5.28 -12.36,12.37 0.28,6.14 5.25,11.05 11.41,11.26 0.04,0 0.07,0 0.1,0l9.36 0c0.01,0 0.03,0 0.04,0 0,0 0.01,0 0.02,0 0,0 0.01,0 0.02,0 0,0 0.01,0 0.02,0 0.01,0 0.01,0 0.02,-0.01 0,0 0.01,0 0.02,0l0.01 0c0.01,0 0.02,-0.01 0.03,-0.01 0,0 0.01,0 0.01,0 0.01,0 0.02,-0.01 0.03,-0.01 0,0 0,0 0.01,0l0.02 -0.01c0.01,0 0.01,0 0.02,0 0,-0.01 0.01,-0.01 0.02,-0.01 0,0 0.01,-0.01 0.01,-0.01 0.01,0 0.01,0 0.02,0 0.01,-0.01 0.01,-0.01 0.02,-0.01 0,-0.01 0.01,-0.01 0.01,-0.01 0.01,0 0.02,-0.01 0.02,-0.01 0.01,0 0.01,-0.01 0.02,-0.01 0,0 0.01,-0.01 0.02,-0.01 0,0 0.01,0 0.01,-0.01 0.01,0 0.01,-0.01 0.02,-0.01 0,0 0.01,-0.01 0.01,-0.01 0.01,0 0.02,-0.01 0.02,-0.01 0.01,-0.01 0.01,-0.01 0.01,-0.01 0.01,-0.01 0.02,-0.01 0.02,-0.02 0.01,0 0.01,-0.01 0.02,-0.01 0,0 0.01,-0.01 0.01,-0.01 0.02,-0.02 0.04,-0.04 0.06,-0.06 0,0 0,-0.01 0.01,-0.01 0,-0.01 0.01,-0.01 0.01,-0.02 0.01,0 0.01,-0.01 0.02,-0.01 0,-0.01 0,-0.01 0.01,-0.02 0,0 0.01,-0.01 0.01,-0.02 0,0 0.01,0 0.01,-0.01 0,-0.01 0.01,-0.01 0.01,-0.02 0,0 0.01,-0.01 0.01,-0.01 0,-0.01 0.01,-0.02 0.01,-0.02 0,-0.01 0.01,-0.01 0.01,-0.01 0,-0.01 0,-0.02 0.01,-0.03 0,0 0,0 0.01,-0.01l0 -0.02c0.01,0 0.01,-0.01 0.01,-0.02 0,0 0.01,-0.01 0.01,-0.01 0,-0.01 0,-0.02 0.01,-0.02 0,-0.01 0,-0.01 0,-0.02 0,-0.01 0.01,-0.01 0.01,-0.02 0,0 0,-0.01 0,-0.01 0,-0.01 0.01,-0.02 0.01,-0.03 0,0 0,-0.01 0,-0.01 0,-0.01 0,-0.02 0.01,-0.03l0 -0.01c0,-0.01 0,-0.02 0,-0.02 0,-0.01 0,-0.01 0,-0.02 0.01,-0.01 0.01,-0.01 0.01,-0.02 0,-0.01 0,-0.01 0,-0.02 0,-0.01 0,-0.01 0,-0.02 0,-0.01 0,-0.03 0,-0.04 0,-0.01 0,-0.03 0,-0.04 0,0 0,-0.01 0,-0.02 0,0 0,-0.01 0,-0.02 0,0 0,-0.01 0,-0.02 -0.01,0 -0.01,-0.01 -0.01,-0.02 0,0 0,-0.01 0,-0.02l0 -0.01c0,-0.01 -0.01,-0.02 -0.01,-0.03 0,0 0,-0.01 0,-0.01 0,-0.01 -0.01,-0.02 -0.01,-0.02 0,-0.01 0,-0.01 0,-0.02 0,-0.01 -0.01,-0.01 -0.01,-0.02 0,-0.01 0,-0.01 0,-0.02 -0.01,0 -0.01,-0.01 -0.01,-0.01 0,-0.01 -0.01,-0.02 -0.01,-0.02 0,-0.01 0,-0.01 -0.01,-0.02 0,-0.01 0,-0.01 0,-0.02l-0.01 -0.01c-0.01,-0.01 -0.01,-0.02 -0.01,-0.02 0,-0.01 -0.01,-0.01 -0.01,-0.02 0,0 -0.01,-0.01 -0.01,-0.02 0,0 -0.01,0 -0.01,-0.01 0,0 -0.01,-0.01 -0.01,-0.02 0,0 -0.01,-0.01 -0.01,-0.01 0,-0.01 -0.01,-0.01 -0.01,-0.02 -0.01,0 -0.01,-0.01 -0.01,-0.01 -0.01,-0.01 -0.01,-0.02 -0.02,-0.02 0,-0.01 -0.01,-0.01 -0.01,-0.02 -0.01,0 -0.01,-0.01 -0.01,-0.01 -0.01,-0.01 -0.02,-0.02 -0.03,-0.03l-3.73 -3.73c-0.31,-0.31 -0.81,-0.31 -1.12,0 -0.31,0.31 -0.31,0.81 0,1.12l2.38 2.38 -7.2 0c-1.37,-0.01 -2.69,-0.28 -3.94,-0.8 -1.22,-0.52 -2.31,-1.26 -3.25,-2.2 -0.94,-0.94 -1.68,-2.03 -2.2,-3.25 -0.53,-1.26 -0.8,-2.61 -0.8,-3.99 0,-1.38 0.27,-2.72 0.8,-3.98 0.52,-1.22 1.26,-2.32 2.2,-3.26 0.94,-0.94 2.03,-1.68 3.25,-2.19 1.26,-0.54 2.6,-0.81 3.99,-0.81 1.38,0 2.72,0.27 3.98,0.81 1.22,0.51 2.32,1.25 3.26,2.19 0.94,0.94 1.68,2.04 2.19,3.26 0.54,1.26 0.81,2.6 0.81,3.98 0,0.73 -0.08,1.44 -0.23,2.14 -0.1,0.5 0.27,0.96 0.78,0.96 0.37,0 0.69,-0.26 0.77,-0.63 0.17,-0.79 0.26,-1.62 0.26,-2.47 0,-6.34 -5,-11.52 -11.27,-11.81l0 0z" p-id="822"/>
  </g>
 </g>
</svg>
