<?xml version="1.0" encoding="UTF-8"?>
<!DOCTYPE svg PUBLIC "-//W3C//DTD SVG 1.1//EN" "http://www.w3.org/Graphics/SVG/1.1/DTD/svg11.dtd">
<!-- Creator: CorelDRAW 2021 (64-Bit 评估版) -->
<svg xmlns="http://www.w3.org/2000/svg" xml:space="preserve" width="24px" height="24px" version="1.1" style="shape-rendering:geometricPrecision; text-rendering:geometricPrecision; image-rendering:optimizeQuality; fill-rule:evenodd; clip-rule:evenodd"
viewBox="0 0 24 24"
 xmlns:xlink="http://www.w3.org/1999/xlink"
 xmlns:xodm="http://www.corel.com/coreldraw/odm/2003">
 <defs>
  <style type="text/css">
   <![CDATA[
    .fil1 {fill:black;fill-rule:nonzero}
    .fil0 {fill:black;fill-rule:nonzero;fill-opacity:0.400000}
   ]]>
  </style>
 </defs>
 <g id="图层_x0020_1">
  <metadata id="CorelCorpID_0Corel-Layer"/>
  <g id="Iconly-Bulk-Category.svg">
   <path class="fil0" d="M15.67 1.72l3.58 0c1.49,0.01 2.69,1.22 2.69,2.7 0,0.01 0,0.01 0,0.01l0 3.62c0,0 0,0.01 0,0.01 0,1.49 -1.2,2.69 -2.69,2.7l-3.58 0c-1.49,-0.01 -2.69,-1.21 -2.69,-2.7 0,0 0,-0.01 0,-0.01l0 -3.62c0,0 0,0 0,-0.01 0,-1.48 1.2,-2.69 2.69,-2.7m0 0l0 0 0 0z" p-id="1545"/>
   <path class="fil1" d="M15.67 22.89c-1.49,0 -2.69,-1.21 -2.69,-2.7 0,0 0,0 0,-0.01l0 -3.61c0,0 0,-0.01 0,-0.01 0,-1.49 1.2,-2.7 2.69,-2.7l3.58 0c1.49,0 2.69,1.21 2.69,2.7 0,0 0,0.01 0,0.01l0 3.61c0,0.01 0,0.01 0,0.01 0,1.49 -1.2,2.7 -2.69,2.7l-3.58 0zm-12.21 0c-1.49,0 -2.69,-1.21 -2.69,-2.7 0,0 0,0 0,-0.01l0 -3.61c0,0 0,-0.01 0,-0.01 0,-1.49 1.2,-2.7 2.69,-2.7l3.58 0c1.49,0 2.69,1.21 2.69,2.7 0,0 0,0.01 0,0.01l0 3.61c0,0.01 0,0.01 0,0.01 0,1.49 -1.2,2.7 -2.69,2.7l-3.58 0zm6.27 -14.84c0,2.47 -2.01,4.48 -4.48,4.48 -2.47,0 -4.48,-2.01 -4.48,-4.48 0,0 0,0 0,0l0 -3.62c0,0 0,0 0,-0.01 0,-1.48 1.2,-2.69 2.69,-2.7l3.58 0c1.49,0.01 2.69,1.22 2.69,2.7 0,0.01 0,0.01 0,0.01l0 3.62c0,0 0,0.01 0,0.01 0,1.49 -1.2,2.69 -2.69,2.7l2.69 -2.71z" p-id="1546"/>
  </g>
 </g>
</svg>
