<?xml version="1.0" encoding="UTF-8"?>
<!DOCTYPE svg PUBLIC "-//W3C//DTD SVG 1.1//EN" "http://www.w3.org/Graphics/SVG/1.1/DTD/svg11.dtd">
<!-- Creator: CorelDRAW 2021 (64-Bit 评估版) -->
<svg xmlns="http://www.w3.org/2000/svg" xml:space="preserve" width="24px" height="24px" version="1.1" style="shape-rendering:geometricPrecision; text-rendering:geometricPrecision; image-rendering:optimizeQuality; fill-rule:evenodd; clip-rule:evenodd"
viewBox="0 0 24 24"
 xmlns:xlink="http://www.w3.org/1999/xlink"
 xmlns:xodm="http://www.corel.com/coreldraw/odm/2003">
 <defs>
  <style type="text/css">
   <![CDATA[
    .fil1 {fill:#A0D9F6;fill-rule:nonzero}
    .fil0 {fill:#A0D9F6;fill-rule:nonzero;fill-opacity:0.400000}
   ]]>
  </style>
 </defs>
 <g id="图层_x0020_1">
  <metadata id="CorelCorpID_0Corel-Layer"/>
 </g>
 <g id="图层_x0020_1_0">
  <metadata id="CorelCorpID_1Corel-Layer"/>
 </g>
 <g id="图层_x0020_1_1">
  <metadata id="CorelCorpID_2Corel-Layer"/>
 </g>
 <g id="图层_x0020_1_2">
  <metadata id="CorelCorpID_3Corel-Layer"/>
  <g id="Iconly-Bulk-Category.svg">
   <path class="fil0" d="M16.41 1.13l3.67 0c1.53,0.01 2.76,1.25 2.76,2.77 0,0.01 0,0.01 0,0.01l0 3.72c0,0 0,0.01 0,0.01 0,1.53 -1.23,2.76 -2.76,2.77l-3.67 0c-1.53,-0.01 -2.77,-1.24 -2.77,-2.77 0,0 0,-0.01 0,-0.01l0 -3.72c0,0 0,0 0,-0.01 0,-1.52 1.24,-2.76 2.77,-2.77m0 0l0 0 0 0z" p-id="1545"/>
   <path class="fil1" d="M16.41 22.86c-1.53,0 -2.77,-1.24 -2.77,-2.77 0,0 0,0 0,-0.01l0 -3.71c0,0 0,-0.01 0,-0.01 0,-1.53 1.24,-2.77 2.77,-2.77l3.67 0c1.53,0 2.76,1.24 2.76,2.77 0,0 0,0.01 0,0.01l0 3.71c0,0.01 0,0.01 0,0.01 0,1.53 -1.23,2.77 -2.76,2.77l-3.67 0zm-12.54 0c-1.53,0 -2.76,-1.24 -2.76,-2.77 0,0 0,0 0,-0.01l0 -3.71c0,0 0,-0.01 0,-0.01 0,-1.53 1.23,-2.77 2.76,-2.77l3.67 0c1.53,0 2.77,1.24 2.77,2.77 0,0 0,0.01 0,0.01l0 3.71c0,0.01 0,0.01 0,0.01 0,1.53 -1.24,2.77 -2.77,2.77l-3.67 0zm6.44 -15.23c0,2.53 -2.07,4.6 -4.6,4.6 -2.54,0 -4.6,-2.07 -4.6,-4.6 0,0 0,0 0,0l0 -3.72c0,0 0,0 0,-0.01 0,-1.52 1.23,-2.76 2.76,-2.77l3.67 0c1.53,0.01 2.77,1.25 2.77,2.77 0,0.01 0,0.01 0,0.01l0 3.72c0,0 0,0.01 0,0.01 0,1.53 -1.24,2.76 -2.77,2.77l2.77 -2.78z" p-id="1546"/>
  </g>
 </g>
</svg>
