<?xml version="1.0" encoding="UTF-8"?>
<!DOCTYPE svg PUBLIC "-//W3C//DTD SVG 1.1//EN" "http://www.w3.org/Graphics/SVG/1.1/DTD/svg11.dtd">
<!-- Creator: CorelDRAW Standard 2021 (64-Bit 评估版) -->
<svg xmlns="http://www.w3.org/2000/svg" xml:space="preserve" width="24px" height="24px" version="1.1" style="shape-rendering:geometricPrecision; text-rendering:geometricPrecision; image-rendering:optimizeQuality; fill-rule:evenodd; clip-rule:evenodd"
viewBox="0 0 24 24"
 xmlns:xlink="http://www.w3.org/1999/xlink"
 xmlns:xodm="http://www.corel.com/coreldraw/odm/2003">
 <defs>
  <style type="text/css">
   <![CDATA[
    .fil0 {fill:#00CCFF;fill-rule:nonzero}
   ]]>
  </style>
 </defs>
 <g id="图层_x0020_1">
  <metadata id="CorelCorpID_0Corel-Layer"/>
  <g id="请假.svg">
   <path class="fil0" d="M2.067 3.903l4.27 0.01 0 1.235c0,0.391 0.316,0.707 0.707,0.707 0.391,0 0.707,-0.316 0.707,-0.707l0 -1.232 5.426 0.013 0 1.219c0,0.391 0.316,0.707 0.707,0.707 0.391,0 0.707,-0.316 0.707,-0.707l0 -1.216 3.673 0.009 0 6.163 1.413 0 0 -6.163c0,-0.801 -0.65,-1.451 -1.451,-1.451l-3.635 0 0 -1.379c0,-0.391 -0.316,-0.707 -0.707,-0.707 -0.39,0 -0.707,0.316 -0.707,0.707l0 1.379 -5.426 0 0 -1.379c0,-0.391 -0.316,-0.707 -0.707,-0.707 -0.391,0 -0.707,0.316 -0.707,0.707l0 1.379 -4.27 0c-0.801,0 -1.452,0.65 -1.452,1.451l0 13.644c0,0.801 0.651,1.452 1.452,1.452l8.549 0 0 -1.413 -8.587 -0.039 0.038 -13.682z" p-id="2269"/>
   <path class="fil0" d="M5.483 8.939m-1.092 0c0,0 0,0 0,0 0,0.603 0.489,1.092 1.092,1.092 0.603,0 1.092,-0.489 1.092,-1.092 0,0 0,0 0,0 0,-0.001 0,-0.001 0,-0.001 0,-0.603 -0.489,-1.092 -1.092,-1.092 -0.603,0 -1.092,0.489 -1.092,1.092 0,0 0,0 0,0l0 0.001z" p-id="2270"/>
   <path class="fil0" d="M10.305 8.939m-1.092 0c0,0 0,0 0,0 0,0.603 0.489,1.092 1.092,1.092 0.603,0 1.092,-0.489 1.092,-1.092 0,0 0,0 0,0 0,-0.001 0,-0.001 0,-0.001 0,-0.603 -0.489,-1.092 -1.092,-1.092 -0.603,0 -1.092,0.489 -1.092,1.092 0,0 0,0 0,0l0 0.001z" p-id="2271"/>
   <path class="fil0" d="M14.986 8.939m-1.093 0c0,0 0,0 0,0 0,0.603 0.489,1.092 1.093,1.092 0.603,0 1.092,-0.489 1.092,-1.092 0,0 0,0 0,0 0,-0.001 0,-0.001 0,-0.001 0,-0.603 -0.489,-1.092 -1.092,-1.092 -0.604,0 -1.093,0.489 -1.093,1.092 0,0 0,0 0,0l0 0.001z" p-id="2272"/>
   <path class="fil0" d="M5.483 13.202m-1.092 0c0,0 0,0 0,0 0,0.603 0.489,1.092 1.092,1.092 0.603,0 1.092,-0.489 1.092,-1.092 0,0 0,0 0,0 0,0 0,-0.001 0,-0.001 0,-0.603 -0.489,-1.092 -1.092,-1.092 -0.603,0 -1.092,0.489 -1.092,1.092 0,0 0,0.001 0,0.001l0 0z" p-id="2273"/>
   <path class="fil0" d="M10.305 13.202m-1.092 0c0,0 0,0 0,0 0,0.603 0.489,1.092 1.092,1.092 0.603,0 1.092,-0.489 1.092,-1.092 0,0 0,0 0,0 0,0 0,-0.001 0,-0.001 0,-0.603 -0.489,-1.092 -1.092,-1.092 -0.603,0 -1.092,0.489 -1.092,1.092 0,0 0,0.001 0,0.001l0 0z" p-id="2274"/>
   <path class="fil0" d="M17.71 11.629c-3.02,0 -5.477,2.457 -5.477,5.477 0,3.021 2.457,5.478 5.477,5.478 3.02,0 5.477,-2.457 5.477,-5.478 0,-3.02 -2.457,-5.477 -5.477,-5.477l0 0zm0 9.541c-2.241,0 -4.064,-1.823 -4.064,-4.064 0,-2.241 1.823,-4.063 4.064,-4.063 2.241,0 4.063,1.822 4.063,4.063 0,2.241 -1.822,4.064 -4.063,4.064z" p-id="2275"/>
   <path class="fil0" d="M19.777 16.4l-1.361 0 0 -1.611c0,-0.391 -0.316,-0.707 -0.706,-0.707 -0.391,0 -0.707,0.316 -0.707,0.707l0 2.317c0,0.391 0.316,0.707 0.707,0.707 0.005,0 0.01,0 0.016,0 0.005,0 0.01,0 0.015,0l2.036 0c0.39,0 0.706,-0.316 0.706,-0.707 0,-0.39 -0.316,-0.706 -0.706,-0.706l0 0z" p-id="2276"/>
  </g>
 </g>
</svg>
