<?xml version="1.0" encoding="UTF-8"?>
<!DOCTYPE svg PUBLIC "-//W3C//DTD SVG 1.1//EN" "http://www.w3.org/Graphics/SVG/1.1/DTD/svg11.dtd">
<!-- Creator: CorelDRAW 2021 (64-Bit 评估版) -->
<svg xmlns="http://www.w3.org/2000/svg" xml:space="preserve" width="24px" height="24px" version="1.1" style="shape-rendering:geometricPrecision; text-rendering:geometricPrecision; image-rendering:optimizeQuality; fill-rule:evenodd; clip-rule:evenodd"
viewBox="0 0 24 24"
 xmlns:xlink="http://www.w3.org/1999/xlink"
 xmlns:xodm="http://www.corel.com/coreldraw/odm/2003">
 <defs>
  <style type="text/css">
   <![CDATA[
    .fil0 {fill:#A0D9F6;fill-rule:nonzero}
   ]]>
  </style>
 </defs>
 <g id="图层_x0020_1">
  <metadata id="CorelCorpID_0Corel-Layer"/>
 </g>
 <g id="图层_x0020_1_0">
  <metadata id="CorelCorpID_1Corel-Layer"/>
 </g>
 <g id="图层_x0020_1_1">
  <metadata id="CorelCorpID_2Corel-Layer"/>
 </g>
 <g id="图层_x0020_1_2">
  <metadata id="CorelCorpID_3Corel-Layer"/>
 </g>
 <g id="图层_x0020_1_3">
  <metadata id="CorelCorpID_4Corel-Layer"/>
  <g id="扫一扫.svg">
   <path class="fil0" d="M20.02 -0.12l-16.29 0c-1.93,0 -3.5,1.57 -3.5,3.5l0 3.49c0,0.64 0.53,1.16 1.17,1.16 0.65,0 1.17,-0.52 1.17,-1.16l0 -3.49c0,-0.65 0.51,-1.16 1.16,-1.16l16.29 0c0.64,0 1.17,0.51 1.17,1.16l0 3.49c0,0.64 0.51,1.16 1.16,1.16 0.64,0 1.16,-0.52 1.16,-1.16l0 -3.49c0,-1.93 -1.57,-3.5 -3.49,-3.5zm2.33 15.14c-0.65,0 -1.16,0.52 -1.16,1.16l0 3.49c0,0.64 -0.53,1.17 -1.17,1.17l-16.29 0c-0.65,0 -1.16,-0.53 -1.16,-1.17l0 -3.49c0,-0.64 -0.52,-1.16 -1.17,-1.16 -0.64,0 -1.17,0.52 -1.17,1.16l0 3.49c0,1.92 1.57,3.49 3.5,3.49l16.29 0c1.92,0 3.49,-1.57 3.49,-3.49l0 -3.49c0,-0.64 -0.52,-1.16 -1.16,-1.16zm0 -4.66l-20.95 0c-0.64,0 -1.17,0.52 -1.17,1.17 0,0.64 0.53,1.16 1.17,1.16l20.95 0c0.64,0 1.16,-0.52 1.16,-1.16 0,-0.65 -0.52,-1.17 -1.16,-1.17z" p-id="1265"/>
  </g>
 </g>
</svg>
