<?xml version="1.0" encoding="UTF-8"?>
<!DOCTYPE svg PUBLIC "-//W3C//DTD SVG 1.1//EN" "http://www.w3.org/Graphics/SVG/1.1/DTD/svg11.dtd">
<!-- Creator: CorelDRAW 2021 (64-Bit 评估版) -->
<svg xmlns="http://www.w3.org/2000/svg" xml:space="preserve" width="24px" height="24px" version="1.1" style="shape-rendering:geometricPrecision; text-rendering:geometricPrecision; image-rendering:optimizeQuality; fill-rule:evenodd; clip-rule:evenodd"
viewBox="0 0 24 24"
 xmlns:xlink="http://www.w3.org/1999/xlink"
 xmlns:xodm="http://www.corel.com/coreldraw/odm/2003">
 <defs>
  <style type="text/css">
   <![CDATA[
    .fil0 {fill:#646464;fill-rule:nonzero}
   ]]>
  </style>
 </defs>
 <g id="图层_x0020_1">
  <metadata id="CorelCorpID_0Corel-Layer"/>
  <g id="扫一扫.svg">
   <path class="fil0" d="M20.41 1.06l-15.55 0c-1.84,0 -3.34,1.5 -3.34,3.34l0 3.33c0,0.61 0.5,1.11 1.11,1.11 0.62,0 1.12,-0.5 1.12,-1.11l0 -3.33c0,-0.62 0.49,-1.11 1.11,-1.11l15.55 0c0.62,0 1.12,0.49 1.12,1.11l0 3.33c0,0.61 0.49,1.11 1.11,1.11 0.61,0 1.11,-0.5 1.11,-1.11l0 -3.33c0,-1.84 -1.5,-3.34 -3.34,-3.34zm2.23 14.45c-0.62,0 -1.11,0.5 -1.11,1.11l0 3.33c0,0.62 -0.5,1.12 -1.12,1.12l-15.55 0c-0.62,0 -1.11,-0.5 -1.11,-1.12l0 -3.33c0,-0.61 -0.5,-1.11 -1.12,-1.11 -0.61,0 -1.11,0.5 -1.11,1.11l0 3.33c0,1.84 1.5,3.34 3.34,3.34l15.55 0c1.84,0 3.34,-1.5 3.34,-3.34l0 -3.33c0,-0.61 -0.5,-1.11 -1.11,-1.11zm0 -4.45l-20.01 0c-0.61,0 -1.11,0.5 -1.11,1.12 0,0.61 0.5,1.11 1.11,1.11l20.01 0c0.61,0 1.11,-0.5 1.11,-1.11 0,-0.62 -0.5,-1.12 -1.11,-1.12z" p-id="1265"/>
  </g>
 </g>
</svg>
