<?xml version="1.0" encoding="UTF-8"?>
<svg width="16px" height="16px" viewBox="0 0 16 16" version="1.1" xmlns="http://www.w3.org/2000/svg" xmlns:xlink="http://www.w3.org/1999/xlink">
    <!-- Generator: Sketch 61 (89581) - https://sketch.com -->
    <title>-mockplus-</title>
    <desc>Created with Sketch.</desc>
    <defs>
        <path d="M6.99968762,11.3333333 C3.04808276,11.3333333 0.79478467,7.50006745 0.773118343,7.45905841 C0.188127493,6.69499528 0.184794212,5.34817213 0.774784983,4.53446648 C0.789784749,4.50640766 3.04808276,0.666666667 6.99968762,0.666666667 C10.9512925,0.666666667 13.2045906,4.50209092 13.2262569,4.54094159 C13.8129144,5.30284635 13.814581,6.64751113 13.2245902,7.46337515 C13.2095905,7.49143397 10.9512925,11.3333333 6.99968762,11.3333333 L6.99968762,11.3333333 Z M6.99912804,1.33010101 C5.46971307,1.33010101 4.03621352,1.98279876 2.73699556,3.27108233 C2.33763863,3.66465662 1.96095261,4.11690038 1.6156571,4.61314623 C1.43603368,4.87715881 1.31570342,5.07516824 1.26338592,5.17050611 L1.20234884,5.27317766 C0.937273493,5.66919652 0.932041743,6.33411707 1.19014142,6.69835664 L1.27036159,6.82791837 C1.32267909,6.92814536 1.44300934,7.12615479 1.62088885,7.38283368 C1.96618436,7.88152409 2.34287038,8.33132329 2.74048339,8.72245303 C4.03621352,10.0107366 5.46971307,10.6634343 7.00087196,10.6634343 C8.53028693,10.6634343 9.96378648,10.0107366 11.2630044,8.72245303 C11.6658492,8.32398961 12.0442791,7.87174585 12.3843429,7.38038912 C12.5691981,7.11148743 12.6877844,6.91836712 12.7366141,6.82302924 L12.7976512,6.71791313 C13.0627265,6.32433883 13.0679583,5.65941828 12.8098586,5.29517871 L12.7313823,5.16561699 C12.6215156,4.97005212 12.5029292,4.78182093 12.3808551,4.61070167 C12.0373035,4.11690038 11.6606175,3.66710118 11.2595166,3.27108233 C9.96378648,1.98279876 8.53028693,1.33010101 6.99912804,1.33010101 Z M6.99942367,8.66666667 C6.04963619,8.66666667 5.16670269,8.15499856 4.68950364,7.33218093 C4.2146099,6.51166811 4.2146099,5.48833189 4.68950364,4.66551426 C5.16439738,3.84500144 6.04963619,3.33333333 6.99942367,3.33333333 C8.47021108,3.33333333 9.66666667,4.52953039 9.66666667,6 C9.66666667,7.47046961 8.47021108,8.66666667 6.99942367,8.66666667 Z M6.99916002,4 C5.89710206,4 5,4.89672544 5,6.00167926 C5,7.10663308 5.89710206,8 6.99916002,8 C7.71146577,8 8.37673247,7.61712846 8.73288534,6.99916037 C9.08903822,6.3845508 9.08903822,5.61880772 8.73288534,5.00083963 C8.37673247,4.38287154 7.71146577,4 6.99916002,4 Z" id="path-1"></path>
    </defs>
    <g id="修改密码0915" stroke="none" stroke-width="1" fill="none" fill-rule="evenodd">
        <g id="03点击显示密码" transform="translate(-328.000000, -84.000000)">
            <g id="We码/表单/选择类/组件/单行+选择+图标" transform="translate(0.000000, 68.000000)">
                <g id="-mockplus-" transform="translate(328.000000, 16.000000)">
                    <g id="common/invisible_fill" transform="translate(1.000000, 2.000000)">
                        <mask id="mask-2" fill="white">
                            <use xlink:href="#path-1"></use>
                        </mask>
                        <use id="Mask" fill="#999999" xlink:href="#path-1"></use>
                    </g>
                </g>
            </g>
        </g>
    </g>
</svg>