<?xml version="1.0" encoding="UTF-8"?>
<svg width="16px" height="16px" viewBox="0 0 16 16" version="1.1" xmlns="http://www.w3.org/2000/svg" xmlns:xlink="http://www.w3.org/1999/xlink">
    <!-- Generator: Sketch 61 (89581) - https://sketch.com -->
    <title>-mockplus-</title>
    <desc>Created with Sketch.</desc>
    <defs>
        <path d="M7.45556902,4.17221982 C6.54679312,4.40617143 5.62562719,4.39281763 4.69450627,4.13233159 L4.21649104,5.44727449 C4.15363524,5.62018067 3.9625124,5.70939413 3.78960622,5.64653833 L3.78936019,5.64644878 C3.61632775,5.58339307 3.5271096,5.39206404 3.59002929,5.21898209 L4.06285578,3.91831259 C3.37836757,3.64613901 2.68884383,3.24167887 1.99523843,2.70500001 L0.93917588,3.96510619 C0.821009449,4.10610376 0.610915519,4.12461205 0.469917952,4.00644562 L0.469610684,4.00618779 C0.328536085,3.88766732 0.310129072,3.67727404 0.428479584,3.53605682 L1.47937778,2.28211281 C1.01737636,1.88216783 0.553678414,1.4238991 0.0885634419,0.907326506 C-0.0345971713,0.770540117 -0.0285628225,0.555085542 0.102041537,0.426095243 C0.232645897,0.297104943 0.438363053,0.303424922 0.561523666,0.44021131 C4.42169558,4.72745023 7.97861459,4.72745023 11.4266831,0.454038077 C11.5425525,0.310433679 11.7476362,0.292396157 11.8847505,0.413750144 C12.0218647,0.535104131 12.039087,0.749895341 11.9232176,0.893499739 C11.4696873,1.45558887 11.0115749,1.94885479 10.5492372,2.37332287 L11.560412,3.5798684 C11.6787625,3.72108562 11.6603555,3.9314789 11.5192809,4.04999937 L11.5189736,4.0502572 C11.377976,4.16842363 11.1678821,4.14991534 11.0497157,4.00891777 L10.0437831,2.80862722 C9.40026007,3.32649494 8.74890504,3.71282003 8.09066165,3.9676696 L8.5455456,5.21898209 C8.6084653,5.39206404 8.51924715,5.58339307 8.34621471,5.64644878 L8.34596868,5.64653833 C8.1730625,5.70939413 7.98193965,5.62018067 7.91908386,5.44727449 L7.45556902,4.17221982 L7.45556902,4.17221982 Z" id="path-1"></path>
    </defs>
    <g id="修改密码0915" stroke="none" stroke-width="1" fill="none" fill-rule="evenodd">
        <g id="02输入密码" transform="translate(-328.000000, -180.000000)">
            <g id="We码/表单/选择类/组件/单行+选择+图标备份-2" transform="translate(0.000000, 164.000000)">
                <g id="-mockplus-" transform="translate(328.000000, 16.000000)">
                    <g id="common/invisible_fill" transform="translate(2.000000, 5.000000)">
                        <mask id="mask-2" fill="white">
                            <use xlink:href="#path-1"></use>
                        </mask>
                        <use id="Mask" fill="#999999" xlink:href="#path-1"></use>
                    </g>
                </g>
            </g>
        </g>
    </g>
</svg>